<svg height="512pt" viewBox="0 0 512.001 512" width="512pt" xmlns="http://www.w3.org/2000/svg"><path d="m141.652344 465.097656c-2.480469-3.070312-3.796875-7.292968-3.160156-12.683594 5.152343-43.769531 16.089843-82.488281 37.152343-118.433593-11.023437 5.765625-22.101562 11.441406-33.703125 16.085937-25.625 10.257813-56.488281 9.320313-79.492187 25.148438-8.199219 5.640625-16.144531 3.859375-21.628907-1.226563-4.828124-1.667969-8.234374-5.03125-10.230468-9.191406l-30.58593775 12.660156c25.17578175 60.769531 73.76953175 109.363281 134.53906275 134.542969l14.769531-35.691406c-3.980469-2.640625-6.523438-6.691406-7.660156-11.210938zm0 0" fill="#dc691d"/><path d="m148.078125 479.308594 81.441406-196.828125-200.535156 82.980469c26.03125 49.839843 67.953125 90.03125 119.09375 113.847656zm0 0" fill="#f7e6a1"/><path d="m223.957031 1.949219c-114.316406 13.878906-206.335937 105.003906-221.613281 219.144531-5.6875 42.445312-.796875 83.121094 12.199219 119.984375l34.578125-14.457031c-1.042969-7.609375 1.789062-15.777344 8.429687-20.023438 1.296875-1.367187 2.816407-2.648437 4.703125-3.75 40.582032-23.464844 84.445313-34.21875 128.265625-49.585937 27.992188-9.816407 60.8125-31.945313 88.753907-11.105469 10.265624 7.664062 10.203124 20.234375 5.023437 28.832031 1.5 3.601563 1.695313 7.933594-.308594 12.90625-9.976562 24.761719-22.476562 47.757813-35.601562 70.957031-12.863281 22.746094-33.441407 50.03125-37.84375 76.664063 11.09375 10.664063 6.742187 34.683594-13.164063 34.683594-4.261718 0-7.75-1.171875-10.59375-3.007813l-14.328125 34.78125c36.761719 12.683594 77.253907 17.371094 119.492188 11.527344 113.910156-15.765625 204.605469-107.933594 218.183593-222.128906 19.753907-166.207032-119.886718-305.601563-286.175781-285.421875zm0 0" fill="#dc691d"/><path d="m239.867188 35.882812c-102.976563 7.316407-188.480469 87.277344-202.460938 189.5625-4.875 35.671876-.820312 70.867188 9.675781 102.011719l200.835938-84.1875c13.109375-5.421875 26.226562 7.695313 20.804687 20.804688l-82.785156 201.183593c31.136719 10.484376 64.917969 14.203126 100.582031 9.339844 102.277344-13.96875 182.246094-99.445312 189.597657-202.410156 9.605468-134.609375-101.628907-245.875-236.25-236.304688zm0 0" fill="#f7e6a1"/><path d="m247.175781 441.378906c-2.261719 0-4.519531-.867187-6.242187-2.585937-3.449219-3.453125-3.449219-9.03125 0-12.484375l17.65625-17.65625c3.441406-3.449219 9.039062-3.449219 12.480468 0 3.453126 3.453125 3.453126 9.03125 0 12.484375l-17.652343 17.65625c-1.722657 1.71875-3.984375 2.585937-6.242188 2.585937zm0 0" fill="#cb465f"/><path d="m158.898438 361.929688c-2.257813 0-4.519532-.867188-6.238282-2.585938-3.453125-3.453125-3.453125-9.03125 0-12.484375l17.652344-17.652344c3.445312-3.453125 9.039062-3.453125 12.484375 0 3.449219 3.449219 3.449219 9.027344 0 12.480469l-17.65625 17.65625c-1.722656 1.71875-3.980469 2.585938-6.242187 2.585938zm0 0" fill="#ebba16"/><path d="m308.96875 247.171875c-2.261719 0-4.519531-.867187-6.242188-2.585937-3.449218-3.453126-3.449218-9.03125 0-12.484376l17.65625-17.65625c3.441407-3.449218 9.039063-3.449218 12.480469 0 3.453125 3.453126 3.453125 9.03125 0 12.484376l-17.652343 17.65625c-1.722657 1.71875-3.984376 2.585937-6.242188 2.585937zm0 0" fill="#ebba16"/><path d="m158.898438 114.757812c-2.257813 0-4.519532-.867187-6.238282-2.585937-3.453125-3.453125-3.453125-9.03125 0-12.484375l17.652344-17.652344c3.445312-3.453125 9.039062-3.453125 12.484375 0 3.449219 3.449219 3.449219 9.027344 0 12.480469l-17.65625 17.65625c-1.722656 1.71875-3.980469 2.585937-6.242187 2.585937zm0 0" fill="#23a24d"/><path d="m143.679688 190.25 21.363281-21.363281c3.574219-3.574219 3.574219-9.363281 0-12.941407l-12.023438-12.023437c-3.574219-3.574219-9.363281-3.574219-12.941406 0l-28.105469 28.109375c-1.589844 1.589844-1.589844 4.15625 0 5.738281 5.304688 5.304688 5.304688 13.921875 0 19.226563l-21.363281 21.363281c-3.574219 3.574219-3.574219 9.363281 0 12.941406l12.023437 12.019531c3.574219 3.578126 9.367188 3.578126 12.941407 0l28.105469-28.105468c1.589843-1.589844 1.589843-4.15625 0-5.738282-5.3125-5.304687-5.3125-13.910156 0-19.226562zm0 0" fill="#cb465f"/><path d="m397.246094 257.515625 21.359375-21.363281c3.578125-3.574219 3.578125-9.363282 0-12.941406l-12.019531-12.019532c-3.578126-3.578125-9.367188-3.578125-12.941407 0l-28.109375 28.105469c-1.589844 1.589844-1.589844 4.15625 0 5.738281 5.304688 5.304688 5.304688 13.921875 0 19.226563l-21.363281 21.363281c-3.574219 3.574219-3.574219 9.363281 0 12.941406l12.023437 12.023438c3.574219 3.574218 9.367188 3.574218 12.941407 0l28.109375-28.109375c1.585937-1.589844 1.585937-4.15625 0-5.738281-5.308594-5.3125-5.308594-13.921876 0-19.226563zm0 0" fill="#dd352e"/><path d="m294.914062 371.320312-21.363281-21.359374c-3.574219-3.578126-3.574219-9.367188 0-12.941407l12.023438-12.023437c3.578125-3.578125 9.367187-3.578125 12.941406 0l28.109375 28.105468c1.585938 1.589844 1.585938 4.15625 0 5.738282-5.304688 5.304687-5.304688 13.921875 0 19.226562l21.363281 21.363282c3.574219 3.574218 3.574219 9.367187 0 12.941406l-12.023437 12.023437c-3.578125 3.574219-9.367188 3.574219-12.941406 0l-28.109376-28.109375c-1.589843-1.585937-1.589843-4.15625 0-5.738281 5.304688-5.304687 5.304688-13.910156 0-19.226563zm0 0" fill="#23a24d"/><path d="m215.46875 74.273438-21.363281-21.363282c-3.578125-3.574218-3.578125-9.363281 0-12.941406l12.023437-12.023438c3.574219-3.574218 9.363282-3.574218 12.941406 0l28.105469 28.109376c1.589844 1.589843 1.589844 4.15625 0 5.738281-5.304687 5.304687-5.304687 13.917969 0 19.226562l21.363281 21.359375c3.574219 3.578125 3.574219 9.367188 0 12.941406l-12.023437 12.023438c-3.574219 3.578125-9.367187 3.578125-12.941406 0l-28.105469-28.105469c-1.589844-1.589843-1.589844-4.15625 0-5.738281 5.304688-5.304688 5.304688-13.910156 0-19.226562zm0 0" fill="#ebba16"/><path d="m379.589844 134.882812c0-14.625-15.8125-26.480468-35.3125-26.480468s-35.308594 11.855468-35.308594 26.480468c0 7.496094 4.203125 14.203126 10.894531 19 4.394531 3.140626 6.761719 8.429688 6.761719 13.839844v1.394532c0 8.800781 5.957031 17.011718 14.636719 18.476562 11.023437 1.855469 20.671875-6.699219 20.671875-17.398438v-2.472656c0-5.410156 2.367187-10.699218 6.761718-13.839844 6.691407-4.796874 10.894532-11.503906 10.894532-19zm0 0" fill="#6b4842"/><path d="m441.382812 388.414062c0 14.625-15.8125 26.480469-35.3125 26.480469s-35.308593-11.855469-35.308593-26.480469c0-7.496093 4.203125-14.207031 10.894531-19 4.394531-3.148437 6.761719-8.429687 6.761719-13.839843v-1.394531c0-8.800782 5.957031-17.011719 14.636719-18.476563 11.023437-1.855469 20.671874 6.699219 20.671874 17.398437v2.472657c0 5.410156 2.367188 10.699219 6.761719 13.839843 6.691407 4.792969 10.894531 11.503907 10.894531 19zm0 0" fill="#6b4842"/><path d="m256.003906 194.207031c0 17.0625-13.832031 30.894531-30.898437 30.894531-17.0625 0-30.894531-13.832031-30.894531-30.894531 0-17.066406 13.832031-30.898437 30.894531-30.898437 17.066406 0 30.898437 13.832031 30.898437 30.898437zm0 0" fill="#c5411e"/><path d="m88.277344 345.34375v1.394531c0 5.410157-2.363282 10.6875-6.761719 13.839844-6.691406 4.804687-10.890625 11.511719-10.890625 19.007813 0 14.625 15.808594 26.480468 35.308594 26.480468s35.3125-11.855468 35.3125-26.480468c0-7.496094-4.203125-14.203126-10.894532-19-4.394531-3.148438-6.761718-8.429688-6.761718-13.839844v-2.472656c0-6.132813-3.222656-11.484376-8-14.644532l-26.675782 11.035156c-.378906 1.527344-.636718 3.082032-.636718 4.679688zm0 0" fill="#6b4842"/></svg>