<svg height="512pt" viewBox="0 0 512 512.00194" width="512pt" xmlns="http://www.w3.org/2000/svg"><path d="m247.484375 435.175781c-2.183594 0-4.371094-.835937-6.035156-2.5-3.335938-3.335937-3.335938-8.726562 0-12.0625l17.066406-17.066406c3.328125-3.339844 8.738281-3.339844 12.066406 0 3.335938 3.335937 3.335938 8.726563 0 12.0625l-17.066406 17.066406c-1.664063 1.664063-3.855469 2.5-6.03125 2.5zm0 0"/><path d="m162.152344 358.378906c-2.183594 0-4.371094-.835937-6.035156-2.5-3.335938-3.335937-3.335938-8.730468 0-12.066406l17.066406-17.066406c3.328125-3.335938 8.738281-3.335938 12.066406 0 3.335938 3.335937 3.335938 8.730468 0 12.066406l-17.066406 17.066406c-1.664063 1.664063-3.855469 2.5-6.03125 2.5zm0 0"/><path d="m307.214844 247.449219c-2.183594 0-4.367188-.839844-6.03125-2.503907-3.335938-3.335937-3.335938-8.726562 0-12.0625l17.066406-17.066406c3.328125-3.339844 8.738281-3.339844 12.066406 0 3.335938 3.335938 3.335938 8.726563 0 12.0625l-17.066406 17.066406c-1.664062 1.664063-3.859375 2.503907-6.035156 2.503907zm0 0"/><path d="m162.152344 119.449219c-2.183594 0-4.371094-.835938-6.035156-2.5-3.335938-3.335938-3.335938-8.730469 0-12.066407l17.066406-17.066406c3.328125-3.335937 8.738281-3.335937 12.066406 0 3.335938 3.335938 3.335938 8.730469 0 12.066406l-17.066406 17.066407c-1.664063 1.664062-3.855469 2.5-6.03125 2.5zm0 0"/><path d="m114.007812 254.84375c-4.445312 0-8.902343-1.679688-12.289062-5.066406l-11.628906-11.632813c-3.285156-3.285156-5.085938-7.644531-5.085938-12.285156 0-4.644531 1.808594-9.011719 5.09375-12.289063l20.648438-20.648437c1.792968-1.800781 1.792968-4.71875 0-6.519531-4.855469-4.855469-4.855469-12.757813 0-17.613282l27.171875-27.179687c6.5625-6.570313 18.011719-6.570313 24.582031 0l11.625 11.625c3.277344 3.273437 5.085938 7.644531 5.085938 12.277344 0 4.652343-1.808594 9.019531-5.09375 12.296875l-20.652344 20.648437c-1.792969 1.800781-1.792969 4.71875 0 6.519531 4.855468 4.855469 4.855468 12.757813 0 17.613282l-27.167969 27.179687c-3.390625 3.386719-7.84375 5.074219-12.289063 5.074219zm11.734376-76.882812c5.367187 8.390624 4.394531 19.695312-2.929688 27.015624l-20.648438 20.660157 11.621094 12.066406 24.6875-24.292969c-5.367187-8.390625-4.394531-19.695312 2.925782-27.019531l20.652343-20.65625-11.625-12.066406zm0 0"/><path d="m359.113281 319.859375c-4.445312 0-8.898437-1.6875-12.285156-5.066406l-11.632813-11.632813c-6.773437-6.773437-6.773437-17.808594 0-24.582031l20.660157-20.652344c.871093-.871093 1.347656-2.023437 1.347656-3.257812 0-1.238281-.476563-2.390625-1.347656-3.253907-2.355469-2.355468-3.652344-5.492187-3.652344-8.8125 0-3.320312 1.296875-6.460937 3.652344-8.808593l27.167969-27.175781c6.5625-6.5625 18.015624-6.570313 24.585937 0l11.621094 11.621093c3.277343 3.277344 5.085937 7.644531 5.085937 12.277344 0 4.652344-1.808594 9.023437-5.09375 12.296875l-20.648437 20.652344c-1.792969 1.800781-1.792969 4.71875 0 6.519531 4.851562 4.855469 4.851562 12.757813 0 17.613281l-27.179688 27.175782c-3.378906 3.398437-7.832031 5.085937-12.28125 5.085937zm11.742188-76.882813c2.21875 3.445313 3.414062 7.472657 3.414062 11.691407 0 5.785156-2.253906 11.226562-6.347656 15.324219l-20.660156 20.648437 11.621093 12.078125 24.6875-24.296875c-5.375-8.378906-4.394531-19.695313 2.925782-27.015625l20.652344-20.660156-11.621094-12.0625zm0 0"/><path d="m327.054688 429.894531c-4.640626 0-9.011719-1.808593-12.296876-5.09375l-27.167968-27.179687c-2.355469-2.34375-3.652344-5.484375-3.652344-8.804688 0-3.320312 1.296875-6.460937 3.652344-8.804687.871094-.871094 1.347656-2.023438 1.347656-3.261719s-.476562-2.386719-1.347656-3.257812l-20.652344-20.652344c-6.773438-6.773438-6.773438-17.808594 0-24.582032l11.625-11.625c6.773438-6.765624 17.800781-6.757812 24.574219-.007812l27.179687 27.1875c4.855469 4.855469 4.855469 12.757812 0 17.613281-1.800781 1.800781-1.800781 4.71875 0 6.519531l20.65625 20.65625c3.277344 3.277344 5.085938 7.648438 5.085938 12.289063 0 4.644531-1.808594 9.011719-5.09375 12.289063l-11.621094 11.613281c-3.285156 3.292969-7.644531 5.101562-12.289062 5.101562zm-24.480469-41.417969 24.257812 24.257813 12.066407-11.621094-20.648438-21.101562c-7.332031-7.332031-8.304688-18.664063-2.910156-27.042969l-24.261719-24.269531-12.0625 11.625 20.648437 21.101562c4.085938 4.085938 6.347657 9.539063 6.347657 15.324219-.007813 4.226562-1.203125 8.261719-3.4375 11.726562zm0 0"/><path d="m250.257812 142.746094c-4.644531 0-9.011718-1.808594-12.296874-5.09375l-27.171876-27.179688c-2.34375-2.328125-3.648437-5.46875-3.648437-8.796875 0-3.347656 1.304687-6.476562 3.667969-8.824219 1.773437-1.785156 1.773437-4.710937-.019532-6.511718l-20.648437-20.648438c-6.773437-6.777344-6.773437-17.808594 0-24.585937l11.621094-11.621094c6.777343-6.765625 17.800781-6.757813 24.578125-.007813l27.175781 27.1875c4.855469 4.855469 4.855469 12.753907 0 17.609376-.878906.878906-1.355469 2.03125-1.355469 3.261718 0 1.238282.476563 2.378906 1.347656 3.25l20.660157 20.667969c3.285156 3.285156 5.085937 7.644531 5.085937 12.289063 0 4.640624-1.808594 9.007812-5.09375 12.285156l-11.625 11.613281c-3.277344 3.296875-7.636718 5.105469-12.277344 5.105469zm-24.484374-41.414063 24.261718 24.261719 12.066406-11.621094-20.652343-21.105468c-4.085938-4.085938-6.347657-9.523438-6.347657-15.324219 0-4.214844 1.195313-8.261719 3.4375-11.722657l-24.265624-24.261718-12.066407 11.621094 20.648438 21.105468c7.332031 7.328125 8.304687 18.652344 2.917969 27.046875zm0 0"/><path d="m341.316406 198.628906c-1.425781 0-2.859375-.121094-4.292968-.359375-12.125-2.03125-21.273438-13.328125-21.273438-26.273437v-1.347656c0-2.660157-1.136719-5.136719-2.96875-6.441407-8.960938-6.417969-14.097656-15.640625-14.097656-25.308593 0-18.824219 19.140625-34.132813 42.664062-34.132813 23.527344 0 42.667969 15.308594 42.667969 34.132813 0 9.667968-5.136719 18.890624-14.097656 25.308593-1.835938 1.304688-2.96875 3.769531-2.96875 6.441407v2.382812c0 7.53125-3.3125 14.660156-9.097657 19.546875-4.660156 3.941406-10.511718 6.050781-16.535156 6.050781zm.03125-76.796875c-13.875 0-25.597656 7.816407-25.597656 17.066407 0 5.605468 4.359375 9.5625 6.960938 11.425781 6.324218 4.519531 10.105468 12.125 10.105468 20.324219v1.347656c0 4.632812 3.089844 8.78125 7.03125 9.4375 3.4375.597656 5.851563-.929688 6.988282-1.894532 1.9375-1.636718 3.046874-4.019531 3.046874-6.519531v-2.378906c0-8.199219 3.78125-15.804687 10.101563-20.328125 2.59375-1.859375 6.964844-5.816406 6.964844-11.425781 0-9.238281-11.726563-17.054688-25.601563-17.054688zm0 0"/><path d="m401.082031 418.109375c-23.527343 0-42.667969-15.308594-42.667969-34.132813 0-9.667968 5.136719-18.890624 14.097657-25.308593 1.835937-1.304688 2.96875-3.769531 2.96875-6.441407v-1.347656c0-12.9375 9.140625-24.226562 21.265625-26.273437 7.476562-1.265625 15.078125.816406 20.839844 5.691406 5.773437 4.890625 9.09375 12.015625 9.09375 19.550781v2.378906c0 2.664063 1.136718 5.136719 2.96875 6.441407 8.960937 6.417969 14.097656 15.640625 14.097656 25.308593 0 18.824219-19.140625 34.132813-42.664063 34.132813zm0-76.804687c-.480469 0-.980469.042968-1.511719.136718-3.941406.664063-7.03125 4.804688-7.03125 9.4375v1.347656c0 8.199219-3.78125 15.804688-10.101562 20.324219-2.59375 1.863281-6.964844 5.820313-6.964844 11.425781 0 9.25 11.726563 17.066407 25.601563 17.066407s25.597656-7.816407 25.597656-17.066407c0-5.605468-4.359375-9.5625-6.960937-11.425781-6.324219-4.519531-10.105469-12.125-10.105469-20.324219v-2.378906c0-2.503906-1.109375-4.875-3.054688-6.519531-.945312-.8125-2.824219-2.023437-5.46875-2.023437zm0 0"/><path d="m226.152344 234.648438c-21.171875 0-38.402344-17.230469-38.402344-38.398438 0-21.171875 17.230469-38.402344 38.402344-38.402344 21.167968 0 38.398437 17.230469 38.398437 38.402344 0 21.167969-17.230469 38.398438-38.398437 38.398438zm0-59.734376c-11.761719 0-21.335938 9.566407-21.335938 21.335938 0 11.765625 9.574219 21.332031 21.335938 21.332031 11.757812 0 21.332031-9.566406 21.332031-21.332031 0-11.769531-9.574219-21.335938-21.332031-21.335938zm0 0"/><path d="m138.609375 511.976562c-1.109375 0-2.21875-.214843-3.269531-.648437-60.515625-25.070313-109.601563-74.152344-134.671875-134.679687-.867188-2.089844-.867188-4.445313 0-6.535157.871093-2.09375 2.527343-3.746093 4.625-4.617187l221.863281-91.808594c3.191406-1.339844 6.863281-.589844 9.292969 1.851562 2.441406 2.441407 3.175781 6.109376 1.851562 9.300782l-91.808593 221.863281c-.871094 2.089844-2.523438 3.746094-4.617188 4.617187-1.046875.433594-2.15625.65625-3.265625.65625zm-118.757813-134.03125c23.039063 50.183594 64.015626 91.167969 114.199219 114.199219l80.613281-194.8125zm0 0"/><path d="m255.820312 512c-28.355468 0-56.269531-4.691406-83.34375-14.042969-2.21875-.769531-4.027343-2.414062-4.992187-4.558593-.964844-2.140626-1.007813-4.582032-.109375-6.757813l93.0625-225.964844c1.621094-3.9375-.742188-6.71875-1.511719-7.476562-.765625-.75-3.558593-3.132813-7.484375-1.460938l-225.539062 94.351563c-2.167969.90625-4.609375.890625-6.757813-.074219-2.140625-.949219-3.804687-2.75-4.582031-4.96875-13.59375-38.558594-17.691406-78.914063-12.203125-119.949219 15.394531-115.078125 106.546875-205.207031 221.648437-219.175781 79.207032-9.574219 156.773438 16.921875 212.792969 72.8125 56.019531 55.886719 82.753907 133.367187 73.34375 212.582031-13.664062 114.921875-103.390625 206.28125-218.210937 222.160156-12.09375 1.679688-24.148438 2.515626-36.113282 2.523438zm-69.160156-27.371094c33.296875 10.128906 67.878906 12.789063 102.933594 7.960938 107.136719-14.832032 190.855469-100.0625 203.601562-207.289063 8.789063-73.972656-16.152343-146.320312-68.441406-198.480469-52.292968-52.164062-124.722656-76.980468-198.6875-67.953124-107.390625 13.03125-192.425781 97.125-206.792968 204.5-4.730469 35.292968-1.851563 70.039062 8.53125 103.421874l217.050781-90.808593c9.105469-3.800781 19.113281-1.851563 26.113281 5.109375 6.996094 6.953125 9.007812 16.945312 5.246094 26.078125zm0 0"/><path d="m151.679688 480.378906c-1.234376 0-2.464844-.265625-3.597657-.804687-50.816406-23.660157-93.097656-64.089844-119.074219-113.832031-1.109374-2.125-1.269531-4.617188-.453124-6.867188.820312-2.253906 2.542968-4.054688 4.761718-4.96875l193.851563-80.210938c3.191406-1.339843 6.859375-.589843 9.289062 1.851563 2.441407 2.441406 3.175781 6.109375 1.851563 9.300781l-78.742188 190.257813c-.886718 2.148437-2.621094 3.839843-4.789062 4.683593-.996094.394532-2.046875.589844-3.097656.589844zm-103.054688-114.335937c23.007812 40.085937 57.558594 73.070312 98.652344 94.136719l67.386718-162.847657zm0 0"/><path d="m255.863281 477.859375c-24.019531 0-47.691406-3.890625-70.6875-11.636719-2.238281-.753906-4.0625-2.398437-5.042969-4.550781-.984374-2.148437-1.015624-4.613281-.121093-6.800781l80.417969-194.332032c1.628906-3.925781-.726563-6.71875-1.496094-7.476562-.757813-.757812-3.539063-3.097656-7.472656-1.492188l-194.335938 80.414063c-2.183594.898437-4.640625.863281-6.792969-.117187-2.148437-.972657-3.804687-2.800782-4.554687-5.042969-11.042969-32.792969-14.25-66.953125-9.523438-101.539063 11.585938-84.800781 72.464844-155.984375 155.082032-181.355468 2.808593-.859376 5.863281-.222657 8.082031 1.699218s3.300781 4.847656 2.855469 7.75l20.59375 20.894532c4.09375 4.089843 6.347656 9.542968 6.347656 15.328124 0 4.222657-1.195313 8.257813-3.429688 11.722657l24.257813 24.261719 12.066406-11.625-20.648437-21.101563c-7.332032-7.328125-8.304688-18.660156-2.910157-27.039063l-15.292969-15.292968c-2.304687-2.304688-3.097656-5.71875-2.039062-8.796875 1.058594-3.082031 3.769531-5.292969 7.003906-5.703125l2.664063-.347656c2.960937-.382813 5.921875-.777344 8.925781-.992188h.015625c64.527344-4.65625 127.597656 18.910156 173.105469 64.4375 45.507812 45.523438 68.972656 108.625 64.375 173.121094-2.722656 38.152344-15.640625 75.3125-37.367188 107.472656-1.691406 2.5-4.609375 3.851562-7.578125 3.738281-3.011719-.179687-5.699219-1.9375-7.082031-4.617187-1.246094-2.429688-3.113281-4.546875-5.554688-6.289063-6.324218-4.519531-10.105468-12.125-10.105468-20.324219v-2.378906c0-2.503906-1.109375-4.875-3.054688-6.519531-1.125-.949219-3.523437-2.476563-6.96875-1.886719-3.953125.65625-7.042968 4.804688-7.042968 9.429688v1.347656c0 8.199219-3.777344 15.800781-10.101563 20.324219-2.59375 1.859375-6.964844 5.820312-6.964844 11.425781 0 9.25 11.726563 17.066406 25.601563 17.066406l2.234375-.179687c3.59375-.109375 6.863281 1.835937 8.285156 5.113281 1.425781 3.269531.675781 7.074219-1.894531 9.546875-34.285156 33.09375-76.832032 53.921875-123.046875 60.238281-10.316407 1.40625-20.589844 2.105469-30.804688 2.105469zm-56.515625-25.085937c27.578125 7.960937 56.132813 10.027343 85.007813 6.058593 36.667969-5 70.859375-19.949219 99.855469-43.511719-15.164063-5.230468-25.804688-17.3125-25.804688-31.351562 0-9.667969 5.136719-18.890625 14.097656-25.308594 1.835938-1.304687 2.96875-3.769531 2.96875-6.441406v-1.347656c0-12.945313 9.148438-24.234375 21.273438-26.265625 7.464844-1.265625 15.0625.816406 20.820312 5.683593 5.785156 4.886719 9.105469 12.011719 9.105469 19.546876v2.382812c0 2.660156 1.136719 5.136719 2.96875 6.441406.804687.570313 1.570313 1.179688 2.3125 1.792969 16.332031-27.339844 26.078125-58.035156 28.3125-89.429687 4.25-59.550782-17.40625-117.816407-59.414063-159.835938-40.328124-40.351562-95.625-62-152.675781-59.867188l5.339844 5.34375c4.855469 4.855469 4.855469 12.753907 0 17.609376-.871094.878906-1.347656 2.023437-1.347656 3.261718 0 1.238282.476562 2.378906 1.347656 3.257813l20.660156 20.660156c3.285157 3.285156 5.085938 7.644531 5.085938 12.289063 0 4.640624-1.808594 9.007812-5.09375 12.285156l-11.625 11.613281c-6.570313 6.570313-18.019531 6.570313-24.582031 0l-27.171876-27.175781c-2.351562-2.347656-3.648437-5.488282-3.648437-8.808594 0-3.316406 1.296875-6.457031 3.648437-8.804688.871094-.878906 1.351563-2.023437 1.351563-3.257812 0-1.238281-.480469-2.390625-1.351563-3.261719l-20.648437-20.648437c-.828125-.828125-1.554687-1.726563-2.183594-2.671875-72.003906 25.539062-124.5 89.238281-134.800781 164.585937-3.949219 28.894532-1.910156 57.457032 6.058594 85.050782l185.726562-76.855469c9.105469-3.78125 19.097656-1.785157 26.066406 5.1875 6.972657 6.96875 8.960938 16.960937 5.191407 26.078125zm0 0"/><path d="m110.953125 409.578125c-23.527344 0-42.667969-15.308594-42.667969-34.132813 0-9.667968 5.136719-18.890624 14.097656-25.308593 1.835938-1.304688 2.96875-3.773438 2.96875-6.445313v-1.347656c0-2.0625.28125-4.207031.863282-6.5625.648437-2.644531 2.515625-4.8125 5.027344-5.851562l25.785156-10.667969c2.621094-1.089844 5.605468-.800781 7.972656.769531 7.234375 4.796875 11.550781 12.75 11.550781 21.273438v2.378906c0 2.664062 1.136719 5.136718 2.972657 6.445312 8.957031 6.414063 14.09375 15.640625 14.09375 25.308594 0 18.832031-19.136719 34.140625-42.664063 34.140625zm-8.535156-65.800781c-.023438 8.167968-3.796875 15.726562-10.101563 20.242187-2.59375 1.859375-6.964844 5.820313-6.964844 11.425781 0 9.25 11.726563 17.066407 25.601563 17.066407s25.597656-7.816407 25.597656-17.066407c0-5.605468-4.359375-9.566406-6.960937-11.425781-6.324219-4.523437-10.105469-12.125-10.105469-20.328125v-2.378906c0-1.460938-.398437-2.875-1.132813-4.121094zm0 0"/></svg>