<svg height="512pt" viewBox="-1 0 512 512.00147" width="512pt" xmlns="http://www.w3.org/2000/svg"><path d="m509.898438 317.71875c-1.714844-29.46875-7.074219-56.164062-16-79.851562-.035157-.292969-.085938-.582032-.175782-.871094-.152344-.488282-.394531-.921875-.667968-1.320313-5.902344-15.164062-13.277344-29.078125-22.125-41.660156-7.582032-10.78125-16.375-20.53125-26.15625-29.054687 7.734374-18.875 6.269531-40.070313-4.089844-56.152344-6.542969-10.167969-16.007813-17.691406-27.308594-22.007813 12.457031-2.765625 25.179688-7.058593 29.324219-9.371093 19.796875-11.03125 35.429687-28.660157 44.011719-49.640626.613281-1.5.460937-3.207031-.410157-4.578124-.875-1.367188-2.355469-2.226563-3.976562-2.308594-13.988281-.675782-28.085938 1.253906-41.90625 5.734375-18.40625 5.96875-41.511719 18.304687-55.632813 35.988281 4.609375-21.984375 18.464844-41.964844 38.078125-53.292969 2.390625-1.382812 3.210938-4.441406 1.828125-6.832031-1.378906-2.390625-4.4375-3.210938-6.828125-1.828125-29.011719 16.757813-46.832031 50.328125-44.542969 83.734375-19.777343 4.28125-37.832031 15.957031-47.699218 31.648438-3.433594 5.457031-6.039063 11.617187-7.636719 17.964843-52.804687 13.734375-105.457031 31.570313-156.40625 48.832031l-3.339844 1.132813c-34.148437 11.570313-68.695312 23.953125-102.679687 36.8125-13.640625 5.167969-32.320313 12.246094-43.492188 27.09375-13.347656 17.757813-12.914062 40.589844-11.203125 64.386719 3.714844 51.65625 7.441407 103.3125 11.167969 154.96875.917969 12.730468 2.789062 27.007812 13.46875 35.332031 8.75 6.8125 20.386719 6.949219 28.878906 7.046875 122.355469 1.472656 246.785156 2.269531 369.835938 2.375h.636718c21.53125 0 43.722657-1.359375 58.683594-16.292969 13.472656-13.445312 16.089844-33.957031 18-48.933593 5.359375-42.148438 10.898438-85.730469 8.363282-129.054688zm-102.074219-263.3125c10.707031-8.097656 22.933593-14.121094 35.679687-18.253906 10.1875-3.304688 20.523438-5.097656 30.832032-5.347656-8.109376 15.882812-20.863282 29.175781-36.503907 37.890624-2.550781 1.421876-13.992187 5.550782-26.769531 8.378907-6.40625 1.417969-13.867188 3.242187-20.464844 2.371093-.4375-.058593-.894531-.136718-1.253906-.394531-.410156-.300781-.632812-.796875-.769531-1.289062-2.082031-7.589844 14.179687-19.519531 19.25-23.355469zm-80.726563 84.648438c1.234375-6.25 3.648438-12.363282 6.988282-17.671876 10.75-17.089843 32.980468-28.652343 55.320312-28.769531h.351562c18.453126 0 33.542969 7.664063 42.519532 21.609375 9.003906 13.980469 9.757812 33.585938 1.914062 49.949219 0 0 0 .003906-.003906.007813-1.527344 3.203124-3.359375 6.214843-5.464844 8.980468-.703125.921875-1.433594 1.816406-2.195312 2.683594-14.347656 16.347656-39.066406 23.621094-61.507813 18.09375-15.152343-3.734375-27.484375-12.558594-33.839843-24.214844-.605469-1.105468-1.152344-2.242187-1.648438-3.40625-3.472656-8.148437-4.34375-17.679687-2.433594-27.261718zm-267.996094 91.097656c33.875-12.816406 68.308594-25.164063 102.347657-36.695313l3.339843-1.132812c49.410157-16.742188 100.421876-34.03125 151.464844-47.519531-.050781.703124-.085937 1.40625-.109375 2.109374-.003906.167969-.003906.332032-.007812.5-.015625.585938-.023438 1.167969-.023438 1.75 0 .253907.007813.507813.011719.765626.007812.503906.023438 1.007812.042969 1.511718.011719.257813.023437.519532.039062.777344.027344.539062.070313 1.074219.113281 1.613281.019532.203125.03125.40625.050782.609375.070312.730469.152344 1.460938.253906 2.183594.015625.136719.039062.269531.058594.402344.085937.59375.175781 1.183594.28125 1.765625.042968.242187.089844.484375.136718.722656.089844.488281.1875.96875.292969 1.453125.054688.25.113281.5.167969.75.117188.5.242188.996094.375 1.488281.054688.210938.105469.421875.164062.632813.191407.691406.398438 1.378906.617188 2.0625.023438.078125.050781.15625.078125.234375.199219.605469.40625 1.203125.628906 1.796875.078125.21875.164063.4375.25.65625.175781.457031.355469.914062.546875 1.367187.097656.230469.195313.464844.296875.695313.199219.453125.40625.90625.617188 1.355468.09375.199219.1875.402344.285156.601563.3125.640625.636719 1.273437.976563 1.898437 7.695312 14.113282 22.359374 24.734376 40.230468 29.140626.765625.1875 1.539063.363281 2.3125.527343.25.050781.503906.097657.753906.148438.523438.105469 1.050782.207031 1.578126.300781.296874.050781.59375.097656.890624.148438.484376.078124.96875.15625 1.453126.226562.316406.042969.625.082031.941406.125.472656.0625.949218.117188 1.425781.171875.3125.03125.625.066406.941406.097656.480469.046875.964844.085938 1.445313.125.304687.023438.609375.046875.914062.066407.507813.035156 1.015625.058593 1.523438.082031.277344.011719.554687.027343.835937.035156.582031.019531 1.164063.027344 1.746094.035156.203125 0 .40625.007813.609375.007813.042969 0 .082031.003906.125.003906.101562 0 .203125-.007812.300781-.007812 1.035157-.003907 2.0625-.035157 3.09375-.082032.261719-.011718.523438-.019531.78125-.035156 1.113281-.0625 2.222657-.144531 3.328125-.253906.210938-.019532.417969-.046875.625-.070313.980469-.105469 1.960938-.230469 2.933594-.375.222656-.03125.449219-.0625.671875-.097656 1.09375-.167969 2.183594-.363281 3.269531-.582031.242188-.050782.484375-.101563.726563-.152344.984375-.210938 1.964843-.433594 2.9375-.679688.152343-.039062.308593-.074218.460937-.113281 1.074219-.277343 2.144532-.585937 3.203125-.914062.25-.074219.5-.15625.75-.234375 1.050781-.335938 2.097657-.683594 3.132813-1.066406.027344-.007813.050781-.015626.074218-.023438 1.054688-.390625 2.09375-.808594 3.125-1.246094.238282-.097656.476563-.199218.71875-.304687 1.011719-.441407 2.019532-.898438 3.011719-1.382813.117188-.054687.226563-.117187.339844-.171875.910156-.449219 1.804687-.921875 2.691406-1.410156.210938-.117187.425781-.230469.636719-.351563.949219-.535156 1.886719-1.089843 2.808594-1.667968.171875-.105469.335937-.21875.503906-.324219.820312-.523437 1.628906-1.066406 2.421875-1.621094.167969-.117187.339844-.234375.503906-.351562.882813-.632813 1.75-1.285157 2.597657-1.957031.183593-.144532.363281-.292969.546874-.441407.773438-.625 1.53125-1.265625 2.273438-1.925781.105469-.089844.210938-.179688.3125-.269531.804688-.726563 1.585938-1.476563 2.355469-2.242188.179687-.175781.355469-.359375.53125-.539062.769531-.789063 1.527343-1.585938 2.253906-2.414063.515625-.585937 1.015625-1.1875 1.507813-1.796875.15625-.191406.308593-.386719.460937-.582031.339844-.429688.671875-.859375 1-1.296875.164063-.222656.328125-.449219.492187-.675781.316407-.433594.625-.875.929688-1.320313.148438-.214843.296875-.425781.4375-.644531.367188-.550781.726562-1.109375 1.074219-1.671875.058593-.09375.121093-.183594.179687-.273437 8.410156 7.585937 16.003906 16.171874 22.621094 25.585937 7.59375 10.800781 14.054688 22.652344 19.375 35.507813-31.417969 8.621093-65.183594 7.769531-97.894531 6.941406-13.359375-.339844-27.171875-.691406-40.714844-.402344-38.167969.808594-76.390625 6.8125-113.355469 12.617188-17.128906 2.6875-34.84375 5.46875-52.277344 7.6875-45.164062 5.746093-103.554687 9.882812-157.722656-8.335938 8.722656-11.507812 22.796875-17.515625 38.941406-23.628906zm-44.0625 32.433594c31.335938 10.855468 63.902344 14.429687 94.671876 14.429687 24.855468 0 48.539062-2.320313 69.433593-4.976563 17.578125-2.238281 35.363281-5.03125 52.566407-7.730468 36.636718-5.753906 74.519531-11.703125 112.015624-12.5 13.308594-.28125 27.003907.066406 40.25.402344 33.777344.855468 68.652344 1.734374 101.753907-7.5625 1.707031-.480469 9.832031 36.828124 10.402343 40.144531 1.554688 9.039062 2.046876 18.070312 2.011719 27.207031-27.050781 9.242188-55.535156 3.96875-85.691406-1.613281-10.648437-1.972657-21.664063-4.011719-32.484375-5.3125-27.023438-3.25-54.21875-1.980469-80.824219 3.769531-16.949219 3.664062-33.566406 9.167969-49.636719 14.492188-9.472656 3.136718-19.265624 6.378906-28.953124 9.183593-31.613282 9.152344-56.492188 11.417969-78.304688 7.121094-15.714844-3.09375-30.222656-9.605469-45.578125-16.496094-6.0625-2.726562-12.335937-5.539062-18.621094-8.085937-25.996093-10.542969-47.734375-13.457032-66.261719-8.894532.179688-19.128906.992188-44.363281 3.25-43.578124zm3.5 155.824218c31.84375-8.875 66.023438-1.359375 98.292969 8.167969 4.433594 1.308594 8.878907 2.660156 13.328125 4.007813 27.34375 8.304687 55.550782 16.871093 84.554688 16.867187 2.210937 0 4.433594-.046875 6.660156-.152344 28.003906-1.308593 54.839844-11.117187 80.789062-20.605469 30.820313-11.265624 59.921876-21.914062 90.820313-19.5625 14.09375 1.070313 28.390625 4.992188 42.21875 8.785157 19.097656 5.242187 38.804687 10.640625 58.996094 8.984375-.59375 4.867187-1.972657 9.605468-3.011719 14.378906-.132812.613281-.25 1.226562-.371094 1.839844-37.820312-14.980469-80.433594-19.445313-120.484375-12.558594-21.566406 3.707031-42.628906 10.617188-62.996093 17.304688-25.074219 8.230468-51 16.742187-77.367188 18.953124-18.21875 1.527344-36.464844.097657-54.222656-4.25-14.410156-3.527343-28.640625-9.066406-42.398438-14.421874-11.710937-4.558594-23.820312-9.269532-36.191406-12.832032-30.90625-8.890625-56.890625-8.128906-77.382812 2.234375-.414063-5.714843-.824219-11.425781-1.234376-17.140625zm471.09375 40.410156c-1.640624 10.664063-5.371093 22.03125-13.164062 29.808594-12.402344 12.382813-32.613281 13.394532-52.242188 13.371094-123.015624-.101562-247.410156-.902344-369.730468-2.371094-9.167969-.109375-17.21875-.554687-22.851563-4.9375-7.441406-5.804687-8.84375-17.09375-9.640625-28.164062-.480468-6.671875-.960937-13.339844-1.441406-20.003906 18.871094-11.277344 43.039062-12.457032 73.824219-3.59375 11.9375 3.433593 23.832031 8.0625 35.332031 12.539062 14.0625 5.472656 28.601562 11.128906 43.648438 14.816406 13.941406 3.414063 28.167968 5.128906 42.457031 5.128906 4.988281 0 9.988281-.207031 14.980469-.628906 27.535156-2.308594 54.027343-11.003906 79.652343-19.414062 20.023438-6.574219 40.726563-13.371094 61.570313-16.953125 39.261718-6.75 81.109375-2.074219 117.933594 13.152343.027343 2.398438.046874 4.800782-.328126 7.25zm5.78125-44.089843c-19.070312 2.089843-37.789062-3.027344-57.566406-8.453125-14.28125-3.917969-29.050781-7.972656-44.109375-9.117188-33.046875-2.507812-64.546875 9.007813-95.007812 20.144532-25.242188 9.226562-51.34375 18.769531-77.824219 20.007812-29.621094 1.382812-59.21875-7.605469-87.839844-16.292969-4.476562-1.359375-8.945312-2.714843-13.40625-4.03125-33.070312-9.765625-68.195312-17.460937-101.855468-8.734375-1.722657-23.878906-3.441407-47.757812-5.160157-71.636718 20.824219-3.164063 41.867188 2.84375 58.066407 8.546874 6.019531 2.121094 12.125 4.476563 18.027343 6.75 14.109375 5.4375 28.703125 11.066407 43.9375 14.234376 11.074219 2.304687 22.167969 3.273437 33.257813 3.273437 30.164062 0 60.265625-7.171875 89.628906-14.171875 31.792969-7.578125 64.675781-15.410156 96.960938-13.917969 15.527343.714844 31.253906 3.621094 46.460937 6.433594 8.648437 1.597656 17.589844 3.25 26.484375 4.507813 31.246094 4.410156 55.109375 2.300781 75.007812-6.613282-.304687 23.0625-2.410156 46.195313-5.0625 69.070313zm4.914063-78.925781c-1.082031.007812-2.175781.175781-3.28125.441406-4.09375.988281-8.300781 3.367187-12.179687 4.460937-5.410157 1.527344-10.957032 2.515625-16.542969 3.109375-13.785157 1.464844-27.769531.488282-41.457031-1.445312-8.683594-1.226563-17.519532-2.859375-26.066407-4.4375-15.539062-2.871094-31.605469-5.84375-47.816406-6.589844-33.699219-1.558594-67.269531 6.441406-99.738281 14.179688-40.898438 9.746093-79.527344 18.953124-118.535156 10.835937-14.433594-3.003906-28.640626-8.480469-42.378907-13.777344-5.96875-2.300781-12.140625-4.679687-18.300781-6.847656-17.117188-6.027344-39.382812-12.355469-62.105469-9.121094-.089843-1.230469-.15625-4.984375-.167969-10.09375 16.890626-4.949219 37.375-2.40625 62.539063 7.800781 6.113281 2.476563 12.300781 5.253907 18.285156 7.941407 15.191407 6.820312 30.902344 13.871093 47.742188 17.1875 8.144531 1.605469 16.324219 2.269531 24.34375 2.269531 22.289062 0 43.304687-5.148438 58.671875-9.597656 9.871094-2.855469 19.753906-6.132813 29.3125-9.296875 15.820312-5.242188 32.183594-10.660157 48.609375-14.210938 25.515625-5.515625 51.597656-6.730469 77.515625-3.613281 10.507812 1.265625 21.359375 3.273438 31.859375 5.21875 29.300781 5.421875 59.574219 11.019531 88.40625 2 .820312 4.5625 1.835937 9.101562 1.285156 13.585938zm0 0"/><path d="m251.570312 375.917969c-6.054687-2.554688-14.238281-1.320313-20.855468 3.152343-5.894532 3.980469-9.214844 9.617188-9.117188 15.464844.117188 6.785156 4.457032 13.351563 10.796875 16.34375 2.65625 1.253906 5.59375 1.875 8.5625 1.875 3.707031 0 7.457031-.964844 10.761719-2.875 6.109375-3.53125 10.210938-10.148437 10.449219-16.863281.253906-7.324219-4.101563-14.355469-10.597657-17.097656zm-3.355468 27.902343c-3.929688 2.269532-8.964844 2.554688-12.832032.730469-3.921874-1.851562-6.714843-6.019531-6.785156-10.136719-.058594-3.433593 2.140625-6.914062 6.035156-9.542968 4.632813-3.132813 10.34375-4.140625 14.214844-2.503906 3.816406 1.613281 6.476563 5.988281 6.320313 10.402343-.152344 4.359375-2.882813 8.695313-6.953125 11.050781zm0 0"/><path d="m324.070312 361.195312c-8.492187-3.902343-17.242187-3.109374-22.292968 2.007813-5.980469 6.066406-6.628906 16.398437-1.472656 23.523437 3.765624 5.199219 10.152343 8.214844 16.695312 8.214844 1.851562 0 3.714844-.242187 5.539062-.746094 7.585938-2.085937 13.296876-8.503906 13.886719-15.609374.5625-6.859376-4.285156-13.683594-12.355469-17.390626zm5.375 16.816407c-.34375 4.164062-4.027343 8.132812-8.765624 9.4375-5.414063 1.492187-11.601563-.539063-14.703126-4.828125-3.101562-4.285156-2.742187-10.925782.785157-14.503906 3.34375-3.386719 9.800781-2.667969 14.386719-.5625 4.070312 1.871093 8.6875 5.730468 8.296874 10.457031zm0 0"/><path d="m56.421875 358.519531c-7.667969 3.292969-14.648437 12.015625-11.847656 23.382813 1.226562 4.992187 4.683593 9.457031 9.480469 12.246094 3.246093 1.890624 6.855468 2.867187 10.382812 2.867187 1.683594 0 3.351562-.226563 4.953125-.675781 5.261719-1.488282 9.898437-5.296875 12.402344-10.183594 3.210937-6.28125 2.828125-14.175781-.980469-20.117188-6.25-9.75-16.753906-10.800781-24.390625-7.519531zm19.136719 24.445313c-1.628906 3.1875-4.648438 5.667968-8.074219 6.636718-3.132813.886719-6.746094.339844-9.910156-1.503906-3.164063-1.839844-5.425781-4.710937-6.203125-7.871094-1.835938-7.445312 2.601562-13.039062 7.8125-15.277343 1.570312-.671875 3.414062-1.105469 5.335937-1.105469 3.648438 0 7.574219 1.5625 10.402344 5.972656 2.449219 3.824219 2.707031 9.105469.636719 13.148438zm0 0"/><path d="m152.875 380.960938c-7.621094-.238282-14.273438 3.285156-16.933594 8.960937-1.84375 3.933594-1.792968 8.703125.128906 13.09375 2.941407 6.699219 10.089844 11.011719 17.179688 11.011719 1.796875 0 3.585938-.277344 5.304688-.859375 4.292968-1.460938 7.925781-4.828125 9.960937-9.234375 1.96875-4.261719 2.183594-9.015625.585937-13.042969-2.332031-5.890625-8.550781-9.695313-16.226562-9.929687zm9.285156 20.035156c-1.234375 2.675781-3.371094 4.699218-5.859375 5.542968-5.117187 1.742188-11.574219-1.21875-13.820312-6.335937-1.097657-2.503906-1.171875-5.234375-.199219-7.308594 1.421875-3.035156 5.261719-4.945312 9.863281-4.945312.171875 0 .34375.003906.515625.007812 3.621094.113281 8.394532 1.621094 9.933594 5.511719.894531 2.253906.738281 5-.433594 7.527344zm0 0"/><path d="m384.183594 354.84375c-7.488282-.8125-16.5625 3.003906-18.808594 13.296875-1 4.585937.128906 9.585937 3.101562 13.710937 2.96875 4.128907 7.351563 6.785157 12.019532 7.292969.554687.058594 1.109375.089844 1.664062.089844 4.136719 0 8.304688-1.644531 11.640625-4.636719 3.789063-3.394531 5.964844-8.035156 5.96875-12.730468.011719-10.535157-8.070312-16.210938-15.585937-17.023438zm4.945312 24.542969c-2.308594 2.070312-5.179687 3.089843-7.875 2.796875-2.699218-.292969-5.285156-1.902344-7.097656-4.421875-1.8125-2.515625-2.519531-5.480469-1.941406-8.128907 1.421875-6.523437 6.933594-8.292968 11.214844-7.832031 4.65625.507813 9.347656 3.8125 9.339843 10.058594-.003906 2.710937-1.332031 5.457031-3.640625 7.527344zm0 0"/><path d="m442.355469 384.796875c-.898438 9.230469 6.359375 18.21875 15.527343 19.238281.5625.0625 1.132813.09375 1.703126.09375 3.898437 0 7.859374-1.449218 11.085937-4.097656 3.664063-3.003906 5.980469-7.242188 6.359375-11.621094.953125-11.074218-7.753906-17.894531-16.429688-18.6875-8.007812-.738281-17.140624 3.667969-18.246093 15.074219zm6.964843.675781c.636719-6.546875 5.121094-8.835937 9.480469-8.835937.386719 0 .777344.019531 1.164063.054687 5.445312.5 10.660156 4.476563 10.089844 11.117188-.214844 2.511718-1.609376 4.996094-3.824219 6.8125-2.25 1.847656-5.007813 2.746094-7.578125 2.457031-5.316406-.589844-9.851563-6.234375-9.332032-11.605469zm0 0"/></svg>