<svg height="512pt" viewBox="-1 0 512 512.00147" width="512pt" xmlns="http://www.w3.org/2000/svg"><path d="m454.574219 349.5c-8.734375 0-18.027344-.714844-28.414063-2.179688-8.640625-1.214843-17.390625-2.832031-25.851562-4.398437l-.414063-.078125c-15.359375-2.835938-31.242187-5.769531-47.140625-6.507812-2.71875-.125-5.523437-.1875-8.332031-.1875-30.292969 0-60.65625 7.238281-90.015625 14.242187-28.949219 6.898437-58.882812 14.03125-88.472656 14.03125-11.445313 0-21.992188-1.035156-32.238282-3.164063-14.828124-3.085937-29.226562-8.636718-43.164062-14.011718l-1.058594-.40625c-5.589844-2.148438-11.371094-4.375-17.109375-6.394532-12.828125-4.515624-29.851562-9.699218-47.757812-9.699218-4.363281 0-8.640625.3125-12.714844.933594l-4.566406.695312 5.925781 82.226562 5.808594-1.507812c9.472656-2.457031 19.296875-3.652344 30.039062-3.652344 24.109375 0 48.484375 6.242188 69.15625 12.347656 4.402344 1.292969 8.898438 2.660157 13.246094 3.984376l.113281.035156c26.953125 8.183594 54.824219 16.644531 83.15625 16.644531 2.136719 0 4.28125-.046875 6.367188-.144531 27.246093-1.277344 53.714843-10.953125 79.378906-20.332032 27.125-9.914062 55.171875-20.160156 83.949219-20.160156 2.992187 0 5.984375.109375 8.902344.332032 14.539062 1.101562 29.042968 5.082031 43.15625 8.957031 17.085937 4.683593 33.226562 9.105469 49.945312 9.105469 3.222656 0 6.417969-.171876 9.488281-.507813l3.964844-.433594.457031-3.960937c2.199219-18.957032 4.761719-43.996094 5.09375-69.582032l.101563-7.824218-7.144531 3.199218c-12.625 5.648438-26.96875 8.398438-43.855469 8.398438zm-377.226563 34.367188c-1.890625 3.683593-5.375 6.546874-9.324218 7.664062-1.125.320312-2.332032.480469-3.585938.480469-2.691406 0-5.414062-.753907-7.867188-2.183594-3.628906-2.105469-6.230468-5.433594-7.140624-9.121094-2.101563-8.542969 3.175781-15.105469 8.972656-17.589843 1.929687-.832032 4.054687-1.269532 6.140625-1.269532 3.488281 0 8.410156 1.195313 12.0625 6.894532 2.863281 4.464843 3.152343 10.40625.742187 15.125zm86.625 17.972656c-1.457031 3.164062-4.015625 5.566406-7.039062 6.59375-1.160156.394531-2.398438.597656-3.679688.597656-5.34375 0-10.527344-3.300781-12.601562-8.03125-1.351563-3.070312-1.417969-6.332031-.179688-8.957031 1.734375-3.703125 6.3125-6.09375 11.671875-6.09375.1875 0 .382813.003906.578125.007812 5.652344.171875 10.148438 2.765625 11.730469 6.769531 1.09375 2.769532.917969 6.089844-.480469 9.113282zm85.238282 3.714844c-2.484376 1.4375-5.339844 2.195312-8.257813 2.195312-2.273437 0-4.496094-.480469-6.425781-1.390625-4.585938-2.164063-7.84375-7.0625-7.925782-11.921875-.074218-4.113281 2.441407-8.203125 6.910157-11.222656 3.402343-2.296875 7.476562-3.613282 11.179687-3.613282 1.832032 0 3.496094.308594 4.933594.914063 4.554688 1.929687 7.726562 7.109375 7.542969 12.316406-.175781 4.960938-3.375 10.074219-7.957031 12.722657zm82.230468-27.378907c-.414062 4.972657-4.71875 9.6875-10.230468 11.203125-1.355469.375-2.773438.5625-4.214844.5625-5.050782 0-9.894532-2.355468-12.640625-6.140625-3.703125-5.117187-3.261719-12.78125.976562-17.089843 1.898438-1.921876 4.78125-2.976563 8.128907-2.976563 2.71875 0 5.664062.691406 8.515624 2 6.144532 2.820313 9.859376 7.707031 9.464844 12.441406zm59.027344 2.699219c-2.417969 2.164062-5.367188 3.355469-8.304688 3.355469-.378906 0-.753906-.019531-1.128906-.058594-3.265625-.355469-6.363281-2.265625-8.5-5.238281-2.144531-2.984375-2.972656-6.527344-2.277344-9.726563 1.527344-6.980469 7.179688-9.472656 11.960938-9.472656.480469 0 .960938.027344 1.429688.078125 4.136718.445312 11.132812 3.484375 11.125 12.050781-.007813 3.273438-1.578126 6.5625-4.304688 9.011719zm81.585938 7.105469c-.265626 3.042969-1.925782 6.023437-4.550782 8.1875-2.332031 1.910156-5.144531 2.964843-7.917968 2.964843-.390626 0-.753907-.023437-1.148438-.070312-6.050781-.671875-11.164062-6.492188-11.164062-12.710938 0-.324218.019531-.679687.058593-1.074218.765625-7.839844 6.46875-10.632813 11.554688-10.632813.417969 0 .84375.019531 1.265625.058594 5.199218.472656 12.660156 4.402344 11.902344 13.277344zm0 0" fill="#c67045"/><path d="m109.738281 272.007812c26.90625 0 52.140625-2.816406 68.773438-4.933593 17.214843-2.183594 34.671875-4.925781 51.558593-7.578125l.945313-.148438c36.773437-5.769531 74.800781-11.734375 112.605469-12.535156 3.351562-.074219 6.804687-.109375 10.546875-.109375 10.046875 0 20.15625.257813 29.929687.507813 9.648438.246093 19.625.496093 29.550782.496093 19.578124 0 45.199218-.863281 69.796874-7.613281l5.464844-1.496094-2.167968-5.238281c-5.457032-13.183594-12.15625-25.457031-19.910157-36.472656-6.839843-9.722657-14.699219-18.609375-23.359375-26.417969l-4.292968-3.867188-3.214844 4.804688c-.101563.152344-.199219.308594-.292969.460938-.308594.492187-.621094.984374-.949219 1.464843l-.070312.109375c-.0625.097656-.128906.195313-.195313.289063l-.15625.226562c-.269531.398438-.550781.796875-.839843 1.195313l-.449219.613281c-.304688.40625-.609375.800781-.921875 1.199219l-.164063.207031c-.0625.082031-.128906.167969-.195312.25l-.074219.089844c-.441406.550781-.894531 1.09375-1.367188 1.628906-.644531.734375-1.316406 1.453125-2.03125 2.175781-.195312.195313-.390624.394532-.578124.585938-.78125.785156-1.449219 1.417968-2.097657 1.992187 0 0-.285156.253907-.359375.324219-.675781.589844-1.363281 1.171875-1.996094 1.6875l-.550781.441406c-.84375.664063-1.65625 1.277344-2.390625 1.800782l-.125.089843c-.140625.09375-.273437.1875-.40625.285157-.730468.507812-1.46875 1-2.222656 1.484374-.109375.074219-.21875.144532-.328125.207032l-.128906.078125c-.859375.542969-1.726563 1.058593-2.625 1.558593-.175781.101563-.355469.207032-.550781.3125-.828126.449219-1.675782.894532-2.503907 1.308594l-.3125.160156c-.960937.46875-1.878906.886719-2.75 1.265626l-.726562.3125c-1.132813.472656-2.066407.84375-2.933594 1.167968l-.25.09375c-.828125.296875-1.71875.597656-2.742187.917969l-.667969.214844c-1 .300781-1.996094.59375-3.09375.878906-.136719.03125-.277344.0625-.371094.085937-.902344.234376-1.8125.4375-2.71875.628907 0 0-.421875.09375-.492187.109375l-.207032.035156c-1.085937.222656-2.082031.402344-2.945312.535156-.253906.035156-.511719.070313-.773438.117188-.898437.128906-1.804687.238281-2.628906.332031-.15625.015625-.640625.070313-.640625.070313-.972656.097656-1.988281.171874-3.105469.234374l-.113281.007813c-.1875.011719-.375.019531-.640625.03125-1.03125.046875-1.964844.070313-2.855469.070313-.121093 0-.238281.003906-.375.011718 0 0-.519531-.011718-.660156-.011718-.523437-.007813-1.050781-.015626-1.5625-.035157l-.796875-.027343-1.414062-.074219-.835938-.0625c-.453125-.039063-.894531-.074219-1.371094-.121094l-.886718-.085937-.386719-.050782c-.289063-.03125-.574219-.066406-.863281-.105468l-.980469-.128907c-.433594-.0625-.875-.136719-1.308594-.207031l-.332031-.054688c-.121094-.019531-.246094-.035156-.363282-.058593l-.175781-.035157c-.46875-.078124-.929687-.167968-1.441406-.273437l-.304687-.058594c-.085938-.015625-.171876-.03125-.253907-.050781l-.164062-.035156c-.714844-.148438-1.421875-.300782-2.128907-.476563-16.507812-4.074219-30.007812-13.796875-37.023437-26.660156-.308594-.566406-.59375-1.128906-.902344-1.765625l-.230469-.480469c-.191406-.410156-.382812-.816406-.566406-1.234375-.066406-.152344-.132812-.304687-.191406-.460937l-.074219-.1875c-.140625-.328125-.273437-.660157-.402343-.992188l-.320313-.832031c-.191406-.515625-.375-1.039062-.550781-1.574219-.035156-.105469-.074219-.21875-.117188-.335937-.183594-.582032-.355468-1.171875-.53125-1.808594 0 0-.117187-.441406-.148437-.558594-.117188-.453125-.226563-.898437-.34375-1.382812-.042969-.179688-.085938-.359375-.121094-.539063l-.027344-.128906c-.0625-.261719-.113281-.527344-.167969-.792969l-.089843-.441406c-.023438-.140625-.121094-.679688-.121094-.679688-.089844-.519531-.179687-1.050781-.257813-1.621093l-.054687-.386719c-.09375-.648438-.164063-1.308594-.230469-1.988281-.011718-.117188-.023437-.238281-.03125-.355469l-.015625-.222656c-.042969-.476563-.078125-.945313-.101562-1.332032-.003907-.167968-.039063-.792968-.039063-.792968-.019531-.4375-.027344-.878906-.035156-1.316406l-.003906-.179688c-.007813-.199219-.007813-.386719-.007813-.582031 0-.527344 0-1.050781.019531-1.582031l.003907-.382813.003906-.144531c.019531-.628906.054687-1.261719.101563-1.898438l.496093-6.976562-6.761719 1.789062c-51.136718 13.515625-102.210937 30.820313-151.605468 47.554688l-3.53125 1.203125c-34.1875 11.582031-68.675782 23.945312-102.503906 36.75-16.871094 6.382812-31.609376 12.691406-41.164063 25.285156l-4.207031 5.542969 6.597656 2.21875c26.976562 9.070312 56.804688 13.480468 91.175781 13.480468zm0 0" fill="#c67045"/><path d="m441.960938 31.394531c-30.515626 9.902344-49.992188 27.773438-58.042969 41.195313l5.113281 4.4375-9.898438 7.882812 14.921876-.390625c4.886718-.128906 10.972656-.988281 18.089843-2.566406 12.503907-2.769531 24.804688-7.046875 28.121094-8.894531 16.554687-9.21875 29.875-23.042969 38.519531-39.984375l3.816406-7.472657-8.390624.203126c-10.78125.261718-21.632813 2.144531-32.25 5.589843zm0 0" fill="#cbe580"/><path d="m504.996094 319.808594-.316406-6.027344-5.863282 1.433594c-14.113281 3.449218-29.472656 5.125-46.953125 5.125-21.1875 0-42.789062-2.464844-63.769531-4.855469-21.191406-2.425781-43.101562-4.933594-64.863281-4.933594-10.128907 0-19.355469.535157-28.210938 1.628907-19.964843 2.46875-39.585937 8.074218-58.554687 13.496093l-.839844.238281c-7.277344 2.074219-14.796875 4.21875-22.226562 6.140626-14.90625 3.867187-34.675782 8.308593-55.363282 8.308593-9.484375 0-18.507812-.957031-26.820312-2.84375-13.488282-3.070312-26.40625-8.808593-38.902344-14.355469l-.164062-.074218c-6.933594-3.074219-14.105469-6.257813-21.320313-8.96875-13.824219-5.175782-26.621094-7.800782-38.035156-7.800782-8.554688 0-16.484375 1.472657-23.574219 4.378907l-3.351562 1.371093 1.457031 20.25 5.304687-.753906c3.847656-.546875 7.871094-.824218 11.964844-.824218 17.875 0 34.925781 5.1875 47.78125 9.707031 6.015625 2.121093 12.082031 4.457031 17.945312 6.71875l.214844.082031c13.90625 5.363281 28.28125 10.910156 43.164063 14.007812 10.414062 2.167969 21.050781 3.21875 32.511719 3.21875 29.089843 0 57.796874-6.84375 88.191406-14.085937 29.371094-7.003906 59.738281-14.242187 89.957031-14.242187 2.828125 0 5.652344.0625 8.394531.191406 15.851563.730468 31.734375 3.664062 47.140625 6.511718 8.144531 1.503907 17.375 3.214844 26.269531 4.472657 10.402344 1.46875 19.699219 2.179687 28.425782 2.179687 17.195312 0 31.765625-2.847656 44.507812-8.6875l6.457032 1.875-.0625-6.722656c-.050782-5.449219-.214844-10.886719-.496094-16.160156zm0 0" fill="#fff"/><path d="m486.609375 420.207031c-16.886719 0-33.761719-4.628906-50.085937-9.105469l-.160157-.046874c-14.003906-3.835938-28.484375-7.804688-43-8.910157-2.992187-.226562-6.054687-.34375-9.109375-.34375-28.535156 0-55.320312 9.785157-83.675781 20.148438l-.132813.046875c-25.589843 9.359375-52.050781 19.035156-79.296874 20.308594-2.136719.097656-4.304688.148437-6.433594.148437-28.273438 0-56.144532-8.460937-83.089844-16.640625-4.464844-1.367188-8.929688-2.710938-13.375-4.023438-20.652344-6.101562-45.019531-12.335937-69.15625-12.335937-11.308594 0-22.039062 1.394531-31.902344 4.144531l-3.9375 1.097656 2.375 32.917969 6.953125-4.121093c10.269531-6.082032 23.300781-9.300782 37.683594-9.300782 7.558594 0 15.507813.875 23.632813 2.59375 13.476562 2.851563 26.714843 7.613282 39.511718 12.222656l.214844.078126c7.660156 2.761718 16.339844 5.898437 24.941406 8.496093 22.839844 6.859375 46.546875 10.335938 70.464844 10.335938 18.179688 0 36.347656-2.03125 53.996094-6.03125 14.976562-3.386719 29.832031-8.253907 44.195312-12.960938l.191406-.0625c20.859376-6.851562 42.433594-13.929687 64.519532-16.496093 6.777344-.789063 13.886718-1.1875 21.132812-1.1875 30.671875 0 61.226563 7.03125 88.1875 13.234374l5.382813 1.238282.699219-5.480469c.621093-4.871094 1.230468-9.761719 1.824218-14.671875l.730469-6.085938-6.105469.503907c-2.332031.191406-4.746094.289062-7.175781.289062zm0 0" fill="#fff"/><path d="m490.441406 242.957031-1.570312-4.390625-4.492188 1.261719c-24.859375 6.984375-50.8125 7.882813-70.648437 7.882813-.003907 0-.007813 0-.007813 0-9.898437 0-19.921875-.253907-29.621094-.496094-9.757812-.25-19.847656-.511719-29.882812-.511719-3.769531 0-7.238281.035156-10.601562.109375-37.8125.796875-75.851563 6.769531-112.679688 12.550781l-.949219.148438c-16.859375 2.644531-34.289062 5.378906-51.476562 7.558593-16.660157 2.121094-41.921875 4.941407-68.796875 4.941407-35.125 0-65.558594-4.628907-93.042969-14.15625l-4.378906-1.515625-1.84375 4.25c-5.753907 13.25-6.097657 28.679687-4.84375 47.769531l.4375 6.648437 6.261719-2.277343c6.214843-2.261719 13.113281-3.40625 20.5-3.40625 11.066406 0 23.503906 2.558593 36.964843 7.609375 7.070313 2.652344 14.144531 5.785156 20.984375 8.816406l.335938.148438c12.609375 5.609374 25.648437 11.410156 39.457031 14.539062 8.535156 1.9375 17.785156 2.921875 27.492187 2.921875 21.015626 0 41.03125-4.488281 56.121094-8.398437 7.425782-1.921876 14.9375-4.066407 22.203125-6.136719l.953125-.273438c18.863282-5.386719 38.367188-10.957031 58.070313-13.398437 8.742187-1.078125 17.851562-1.605469 27.851562-1.605469 21.515625 0 43.375 2.496094 64.519531 4.914063 20.921876 2.390624 42.554688 4.867187 64.042969 4.867187 18.273438 0 34.292969-1.804687 48.980469-5.519531l4.070312-1.027344-.308593-4.1875c-1.886719-25.320312-6.628907-48.746094-14.101563-69.636719zm0 0" fill="#ffdac4"/><path d="m402.992188 428.1875c-7.339844 0-14.542969.402344-21.40625 1.199219-22.375 2.597656-44.101563 9.730469-65.109376 16.625-14.355468 4.710937-29.199218 9.582031-44.105468 12.953125-17.46875 3.953125-35.414063 5.957031-53.335938 5.957031-23.625 0-47.042968-3.4375-69.597656-10.21875-8.527344-2.566406-17.171875-5.683594-24.796875-8.433594-12.929687-4.667969-26.304687-9.496093-40.121094-12.417969-8.273437-1.75-16.480469-2.640624-24.386719-2.640624-16.699218 0-30.949218 3.964843-42.355468 11.789062l-2.367188 1.621094 1.609375 22.269531c.878907 12.191406 2.496094 24.6875 11.554688 31.746094 6.863281 5.339843 15.773437 5.875 25.859375 5.996093 121.671875 1.460938 246.085937 2.257813 369.785156 2.371094h.550781c20.425781 0 41.515625-1.148437 55.238281-14.832031 11.246094-11.226563 14.191407-27.695313 16.433594-45.007813l.582032-4.496093-4.417969-1.019531c-27.417969-6.308594-58.496094-13.460938-89.613281-13.460938zm0 0" fill="#ffdac4"/><g fill="#935252"><path d="m460.472656 371.71875c-.652344-.066406-1.242187-.078125-1.679687-.078125-7.996094 0-13.664063 5.242187-14.445313 13.347656-.777344 8.03125 5.773438 16.164063 13.765625 17.0625.488281.054688.984375.082031 1.480469.082031 3.46875 0 6.953125-1.296874 9.816406-3.652343 3.238282-2.664063 5.285156-6.394531 5.625-10.242188.839844-9.785156-6.902344-15.816406-14.5625-16.519531zm0 0"/><path d="m383.96875 356.828125c-.601562-.0625-1.214844-.09375-1.824219-.09375-7.433593 0-13.25 4.644531-14.8125 11.828125-.882812 4.027344.125 8.441406 2.761719 12.113281 2.636719 3.675781 6.511719 6.035157 10.625 6.476563.476562.050781.960938.078125 1.445312.078125 3.679688 0 7.339844-1.464844 10.304688-4.125 3.355469-3.007813 5.289062-7.097657 5.304688-11.246094 0-9.304687-7.15625-14.3125-13.804688-15.03125zm0 0"/><path d="m323.226562 363.007812c-3.132812-1.4375-6.628906-2.230468-9.84375-2.230468-4.191406 0-7.707031 1.328125-10.175781 3.828125-5.238281 5.296875-5.8125 14.695312-1.28125 20.953125 3.300781 4.550781 9.089844 7.378906 15.105469 7.378906 1.699219 0 3.375-.222656 4.988281-.667969 6.792969-1.878906 11.894531-7.574219 12.40625-13.847656.601563-7.304687-5.386719-12.753906-11.199219-15.414063zm0 0"/><path d="m250.785156 377.753906c-1.832031-.769531-3.886718-1.164062-6.105468-1.164062-4.335938 0-8.894532 1.472656-12.84375 4.140625-5.3125 3.589843-8.316407 8.601562-8.238282 13.765625.101563 6.050781 3.984375 11.910156 9.65625 14.578125 2.316406 1.089843 4.976563 1.667969 7.695313 1.667969 3.453125 0 6.832031-.894532 9.773437-2.59375 5.519532-3.203126 9.230469-9.164063 9.449219-15.207032.21875-6.503906-3.632813-12.746094-9.386719-15.1875zm0 0"/><path d="m152.863281 382.964844c-.238281-.011719-.480469-.011719-.71875-.011719-6.613281 0-12.128906 2.996094-14.382812 7.808594-1.609375 3.410156-1.554688 7.585937.140625 11.445312 2.535156 5.789063 8.820312 9.835938 15.289062 9.835938 1.636719 0 3.226563-.257813 4.734375-.773438 3.769531-1.292969 6.96875-4.273437 8.773438-8.171875 1.742187-3.757812 1.941406-7.933594.542969-11.46875-2.421876-6.117187-9.003907-8.484375-14.378907-8.664062zm0 0"/><path d="m64.515625 358.839844c-2.488281 0-5.019531.527344-7.304687 1.519531-6.917969 2.972656-13.214844 10.832031-10.703126 21.070313 1.101563 4.457031 4.214844 8.464843 8.558594 10.996093 2.921875 1.695313 6.15625 2.59375 9.355469 2.59375 1.519531 0 3.011719-.203125 4.425781-.605469 4.730469-1.34375 8.902344-4.769531 11.171875-9.179687 2.886719-5.664063 2.539063-12.769531-.886719-18.109375-3.417968-5.339844-8.609374-8.285156-14.617187-8.285156zm0 0"/></g><path d="m389.753906 87.613281h-.375c-23.984375.128907-47.90625 12.628907-59.527344 31.105469-3.652343 5.808594-6.300781 12.503906-7.660156 19.355469-2.117187 10.605469-1.167968 21.054687 2.734375 30.191406.554688 1.308594 1.179688 2.605469 1.859375 3.851563 7.023438 12.878906 20.523438 22.605468 37.035156 26.679687 5.316407 1.308594 10.839844 1.96875 16.410157 1.96875 19.464843 0 38.175781-8.082031 50.019531-21.589844.808594-.902343 1.609375-1.878906 2.457031-2.992187 2.316407-3.054688 4.335938-6.367188 6-9.84375l.488281-1.035156v-.023438c8.046876-17.679688 7.015626-38.664062-2.714843-53.765625-9.921875-15.414063-26.515625-23.902344-46.726563-23.902344zm0 0" fill="#ed6d66"/><path d="m509.898438 317.71875c-1.714844-29.46875-7.074219-56.164062-16-79.851562-.035157-.292969-.085938-.582032-.175782-.871094-.152344-.488282-.394531-.921875-.667968-1.320313-5.902344-15.164062-13.277344-29.078125-22.125-41.660156-7.582032-10.78125-16.375-20.53125-26.15625-29.054687 7.734374-18.875 6.269531-40.070313-4.089844-56.152344-6.542969-10.167969-16.007813-17.691406-27.308594-22.007813 12.457031-2.765625 25.179688-7.058593 29.324219-9.371093 19.796875-11.03125 35.429687-28.660157 44.011719-49.640626.613281-1.5.460937-3.207031-.410157-4.578124-.875-1.367188-2.355469-2.226563-3.976562-2.308594-13.988281-.675782-28.085938 1.253906-41.90625 5.734375-18.40625 5.96875-41.511719 18.304687-55.632813 35.988281 4.609375-21.984375 18.464844-41.964844 38.078125-53.292969 2.390625-1.382812 3.210938-4.441406 1.828125-6.832031-1.378906-2.390625-4.4375-3.210938-6.828125-1.828125-29.011719 16.757813-46.832031 50.328125-44.542969 83.734375-19.777343 4.28125-37.832031 15.957031-47.699218 31.648438-3.433594 5.457031-6.039063 11.617187-7.636719 17.964843-52.804687 13.734375-105.457031 31.570313-156.40625 48.832031l-3.339844 1.132813c-34.148437 11.570313-68.695312 23.953125-102.679687 36.8125-13.640625 5.167969-32.320313 12.246094-43.492188 27.09375-13.347656 17.757813-12.914062 40.589844-11.203125 64.386719 3.714844 51.65625 7.441407 103.3125 11.167969 154.96875.917969 12.730468 2.789062 27.007812 13.46875 35.332031 8.75 6.8125 20.386719 6.949219 28.878906 7.046875 122.355469 1.472656 246.785156 2.269531 369.835938 2.375h.636718c21.53125 0 43.722657-1.359375 58.683594-16.292969 13.472656-13.445312 16.089844-33.957031 18-48.933593 5.359375-42.148438 10.898438-85.730469 8.363282-129.054688zm-102.074219-263.3125c10.707031-8.097656 22.933593-14.121094 35.679687-18.253906 10.1875-3.304688 20.523438-5.097656 30.832032-5.347656-8.109376 15.882812-20.863282 29.175781-36.503907 37.890624-2.550781 1.421876-13.992187 5.550782-26.769531 8.378907-6.40625 1.417969-13.867188 3.242187-20.464844 2.371093-.4375-.058593-.894531-.136718-1.253906-.394531-.410156-.300781-.632812-.796875-.769531-1.289062-2.082031-7.589844 14.179687-19.519531 19.25-23.355469zm-80.726563 84.648438c1.234375-6.25 3.648438-12.363282 6.988282-17.671876 10.75-17.089843 32.980468-28.652343 55.320312-28.769531h.351562c18.453126 0 33.542969 7.664063 42.519532 21.609375 9.003906 13.980469 9.757812 33.585938 1.914062 49.949219 0 0 0 .003906-.003906.007813-1.527344 3.203124-3.359375 6.214843-5.464844 8.980468-.703125.921875-1.433594 1.816406-2.195312 2.683594-14.347656 16.347656-39.066406 23.621094-61.507813 18.09375-15.152343-3.734375-27.484375-12.558594-33.839843-24.214844-.605469-1.105468-1.152344-2.242187-1.648438-3.40625-3.472656-8.148437-4.34375-17.679687-2.433594-27.261718zm-267.996094 91.097656c33.875-12.816406 68.308594-25.164063 102.347657-36.695313l3.339843-1.132812c49.410157-16.742188 100.421876-34.03125 151.464844-47.519531-.050781.703124-.085937 1.40625-.109375 2.109374-.003906.167969-.003906.332032-.007812.5-.015625.585938-.023438 1.167969-.023438 1.75 0 .253907.007813.507813.011719.765626.007812.503906.023438 1.007812.042969 1.511718.011719.257813.023437.519532.039062.777344.027344.539062.070313 1.074219.113281 1.613281.019532.203125.03125.40625.050782.609375.070312.730469.152344 1.460938.253906 2.183594.015625.136719.039062.269531.058594.402344.085937.59375.175781 1.183594.28125 1.765625.042968.242187.089844.484375.136718.722656.089844.488281.1875.96875.292969 1.453125.054688.25.113281.5.167969.75.117188.5.242188.996094.375 1.488281.054688.210938.105469.421875.164062.632813.191407.691406.398438 1.378906.617188 2.0625.023438.078125.050781.15625.078125.234375.199219.605469.40625 1.203125.628906 1.796875.078125.21875.164063.4375.25.65625.175781.457031.355469.914062.546875 1.367187.097656.230469.195313.464844.296875.695313.199219.453125.40625.90625.617188 1.355468.09375.199219.1875.402344.285156.601563.3125.640625.636719 1.273437.976563 1.898437 7.695312 14.113282 22.359374 24.734376 40.230468 29.140626.765625.1875 1.539063.363281 2.3125.527343.25.050781.503906.097657.753906.148438.523438.105469 1.050782.207031 1.578126.300781.296874.050781.59375.097656.890624.148438.484376.078124.96875.15625 1.453126.226562.316406.042969.625.082031.941406.125.472656.0625.949218.117188 1.425781.171875.3125.03125.625.066406.941406.097656.480469.046875.964844.085938 1.445313.125.304687.023438.609375.046875.914062.066407.507813.035156 1.015625.058593 1.523438.082031.277344.011719.554687.027343.835937.035156.582031.019531 1.164063.027344 1.746094.035156.203125 0 .40625.007813.609375.007813.042969 0 .082031.003906.125.003906.101562 0 .203125-.007812.300781-.007812 1.035157-.003907 2.0625-.035157 3.09375-.082032.261719-.011718.523438-.019531.78125-.035156 1.113281-.0625 2.222657-.144531 3.328125-.253906.210938-.019532.417969-.046875.625-.070313.980469-.105469 1.960938-.230469 2.933594-.375.222656-.03125.449219-.0625.671875-.097656 1.09375-.167969 2.183594-.363281 3.269531-.582031.242188-.050782.484375-.101563.726563-.152344.984375-.210938 1.964843-.433594 2.9375-.679688.152343-.039062.308593-.074218.460937-.113281 1.074219-.277343 2.144532-.585937 3.203125-.914062.25-.074219.5-.15625.75-.234375 1.050781-.335938 2.097657-.683594 3.132813-1.066406.027344-.007813.050781-.015626.074218-.023438 1.054688-.390625 2.09375-.808594 3.125-1.246094.238282-.097656.476563-.199218.71875-.304687 1.011719-.441407 2.019532-.898438 3.011719-1.382813.117188-.054687.226563-.117187.339844-.171875.910156-.449219 1.804687-.921875 2.691406-1.410156.210938-.117187.425781-.230469.636719-.351563.949219-.535156 1.886719-1.089843 2.808594-1.667968.171875-.105469.335937-.21875.503906-.324219.820312-.523437 1.628906-1.066406 2.421875-1.621094.167969-.117187.339844-.234375.503906-.351562.882813-.632813 1.75-1.285157 2.597657-1.957031.183593-.144532.363281-.292969.546874-.441407.773438-.625 1.53125-1.265625 2.273438-1.925781.105469-.089844.210938-.179688.3125-.269531.804688-.726563 1.585938-1.476563 2.355469-2.242188.179687-.175781.355469-.359375.53125-.539062.769531-.789063 1.527343-1.585938 2.253906-2.414063.515625-.585937 1.015625-1.1875 1.507813-1.796875.15625-.191406.308593-.386719.460937-.582031.339844-.429688.671875-.859375 1-1.296875.164063-.222656.328125-.449219.492187-.675781.316407-.433594.625-.875.929688-1.320313.148438-.214843.296875-.425781.4375-.644531.367188-.550781.726562-1.109375 1.074219-1.671875.058593-.09375.121093-.183594.179687-.273437 8.410156 7.585937 16.003906 16.171874 22.621094 25.585937 7.59375 10.800781 14.054688 22.652344 19.375 35.507813-31.417969 8.621093-65.183594 7.769531-97.894531 6.941406-13.359375-.339844-27.171875-.691406-40.714844-.402344-38.167969.808594-76.390625 6.8125-113.355469 12.617188-17.128906 2.6875-34.84375 5.46875-52.277344 7.6875-45.164062 5.746093-103.554687 9.882812-157.722656-8.335938 8.722656-11.507812 22.796875-17.515625 38.941406-23.628906zm-44.0625 32.433594c31.335938 10.855468 63.902344 14.429687 94.671876 14.429687 24.855468 0 48.539062-2.320313 69.433593-4.976563 17.578125-2.238281 35.363281-5.03125 52.566407-7.730468 36.636718-5.753906 74.519531-11.703125 112.015624-12.5 13.308594-.28125 27.003907.066406 40.25.402344 33.777344.855468 68.652344 1.734374 101.753907-7.5625 1.707031-.480469 9.832031 36.828124 10.402343 40.144531 1.554688 9.039062 2.046876 18.070312 2.011719 27.207031-27.050781 9.242188-55.535156 3.96875-85.691406-1.613281-10.648437-1.972657-21.664063-4.011719-32.484375-5.3125-27.023438-3.25-54.21875-1.980469-80.824219 3.769531-16.949219 3.664062-33.566406 9.167969-49.636719 14.492188-9.472656 3.136718-19.265624 6.378906-28.953124 9.183593-31.613282 9.152344-56.492188 11.417969-78.304688 7.121094-15.714844-3.09375-30.222656-9.605469-45.578125-16.496094-6.0625-2.726562-12.335937-5.539062-18.621094-8.085937-25.996093-10.542969-47.734375-13.457032-66.261719-8.894532.179688-19.128906.992188-44.363281 3.25-43.578124zm3.5 155.824218c31.84375-8.875 66.023438-1.359375 98.292969 8.167969 4.433594 1.308594 8.878907 2.660156 13.328125 4.007813 27.34375 8.304687 55.550782 16.871093 84.554688 16.867187 2.210937 0 4.433594-.046875 6.660156-.152344 28.003906-1.308593 54.839844-11.117187 80.789062-20.605469 30.820313-11.265624 59.921876-21.914062 90.820313-19.5625 14.09375 1.070313 28.390625 4.992188 42.21875 8.785157 19.097656 5.242187 38.804687 10.640625 58.996094 8.984375-.59375 4.867187-1.972657 9.605468-3.011719 14.378906-.132812.613281-.25 1.226562-.371094 1.839844-37.820312-14.980469-80.433594-19.445313-120.484375-12.558594-21.566406 3.707031-42.628906 10.617188-62.996093 17.304688-25.074219 8.230468-51 16.742187-77.367188 18.953124-18.21875 1.527344-36.464844.097657-54.222656-4.25-14.410156-3.527343-28.640625-9.066406-42.398438-14.421874-11.710937-4.558594-23.820312-9.269532-36.191406-12.832032-30.90625-8.890625-56.890625-8.128906-77.382812 2.234375-.414063-5.714843-.824219-11.425781-1.234376-17.140625zm471.09375 40.410156c-1.640624 10.664063-5.371093 22.03125-13.164062 29.808594-12.402344 12.382813-32.613281 13.394532-52.242188 13.371094-123.015624-.101562-247.410156-.902344-369.730468-2.371094-9.167969-.109375-17.21875-.554687-22.851563-4.9375-7.441406-5.804687-8.84375-17.09375-9.640625-28.164062-.480468-6.671875-.960937-13.339844-1.441406-20.003906 18.871094-11.277344 43.039062-12.457032 73.824219-3.59375 11.9375 3.433593 23.832031 8.0625 35.332031 12.539062 14.0625 5.472656 28.601562 11.128906 43.648438 14.816406 13.941406 3.414063 28.167968 5.128906 42.457031 5.128906 4.988281 0 9.988281-.207031 14.980469-.628906 27.535156-2.308594 54.027343-11.003906 79.652343-19.414062 20.023438-6.574219 40.726563-13.371094 61.570313-16.953125 39.261718-6.75 81.109375-2.074219 117.933594 13.152343.027343 2.398438.046874 4.800782-.328126 7.25zm5.78125-44.089843c-19.070312 2.089843-37.789062-3.027344-57.566406-8.453125-14.28125-3.917969-29.050781-7.972656-44.109375-9.117188-33.046875-2.507812-64.546875 9.007813-95.007812 20.144532-25.242188 9.226562-51.34375 18.769531-77.824219 20.007812-29.621094 1.382812-59.21875-7.605469-87.839844-16.292969-4.476562-1.359375-8.945312-2.714843-13.40625-4.03125-33.070312-9.765625-68.195312-17.460937-101.855468-8.734375-1.722657-23.878906-3.441407-47.757812-5.160157-71.636718 20.824219-3.164063 41.867188 2.84375 58.066407 8.546874 6.019531 2.121094 12.125 4.476563 18.027343 6.75 14.109375 5.4375 28.703125 11.066407 43.9375 14.234376 11.074219 2.304687 22.167969 3.273437 33.257813 3.273437 30.164062 0 60.265625-7.171875 89.628906-14.171875 31.792969-7.578125 64.675781-15.410156 96.960938-13.917969 15.527343.714844 31.253906 3.621094 46.460937 6.433594 8.648437 1.597656 17.589844 3.25 26.484375 4.507813 31.246094 4.410156 55.109375 2.300781 75.007812-6.613282-.304687 23.0625-2.410156 46.195313-5.0625 69.070313zm4.914063-78.925781c-1.082031.007812-2.175781.175781-3.28125.441406-4.09375.988281-8.300781 3.367187-12.179687 4.460937-5.410157 1.527344-10.957032 2.515625-16.542969 3.109375-13.785157 1.464844-27.769531.488282-41.457031-1.445312-8.683594-1.226563-17.519532-2.859375-26.066407-4.4375-15.539062-2.871094-31.605469-5.84375-47.816406-6.589844-33.699219-1.558594-67.269531 6.441406-99.738281 14.179688-40.898438 9.746093-79.527344 18.953124-118.535156 10.835937-14.433594-3.003906-28.640626-8.480469-42.378907-13.777344-5.96875-2.300781-12.140625-4.679687-18.300781-6.847656-17.117188-6.027344-39.382812-12.355469-62.105469-9.121094-.089843-1.230469-.15625-4.984375-.167969-10.09375 16.890626-4.949219 37.375-2.40625 62.539063 7.800781 6.113281 2.476563 12.300781 5.253907 18.285156 7.941407 15.191407 6.820312 30.902344 13.871093 47.742188 17.1875 8.144531 1.605469 16.324219 2.269531 24.34375 2.269531 22.289062 0 43.304687-5.148438 58.671875-9.597656 9.871094-2.855469 19.753906-6.132813 29.3125-9.296875 15.820312-5.242188 32.183594-10.660157 48.609375-14.210938 25.515625-5.515625 51.597656-6.730469 77.515625-3.613281 10.507812 1.265625 21.359375 3.273438 31.859375 5.21875 29.300781 5.421875 59.574219 11.019531 88.40625 2 .820312 4.5625 1.835937 9.101562 1.285156 13.585938zm0 0"/><path d="m251.570312 375.917969c-6.054687-2.554688-14.238281-1.320313-20.855468 3.152343-5.894532 3.980469-9.214844 9.617188-9.117188 15.464844.117188 6.785156 4.457032 13.351563 10.796875 16.34375 2.65625 1.253906 5.59375 1.875 8.5625 1.875 3.707031 0 7.457031-.964844 10.761719-2.875 6.109375-3.53125 10.210938-10.148437 10.449219-16.863281.253906-7.324219-4.101563-14.355469-10.597657-17.097656zm-3.355468 27.902343c-3.929688 2.269532-8.964844 2.554688-12.832032.730469-3.921874-1.851562-6.714843-6.019531-6.785156-10.136719-.058594-3.433593 2.140625-6.914062 6.035156-9.542968 4.632813-3.132813 10.34375-4.140625 14.214844-2.503906 3.816406 1.613281 6.476563 5.988281 6.320313 10.402343-.152344 4.359375-2.882813 8.695313-6.953125 11.050781zm0 0"/><path d="m324.070312 361.195312c-8.492187-3.902343-17.242187-3.109374-22.292968 2.007813-5.980469 6.066406-6.628906 16.398437-1.472656 23.523437 3.765624 5.199219 10.152343 8.214844 16.695312 8.214844 1.851562 0 3.714844-.242187 5.539062-.746094 7.585938-2.085937 13.296876-8.503906 13.886719-15.609374.5625-6.859376-4.285156-13.683594-12.355469-17.390626zm5.375 16.816407c-.34375 4.164062-4.027343 8.132812-8.765624 9.4375-5.414063 1.492187-11.601563-.539063-14.703126-4.828125-3.101562-4.285156-2.742187-10.925782.785157-14.503906 3.34375-3.386719 9.800781-2.667969 14.386719-.5625 4.070312 1.871093 8.6875 5.730468 8.296874 10.457031zm0 0"/><path d="m56.421875 358.519531c-7.667969 3.292969-14.648437 12.015625-11.847656 23.382813 1.226562 4.992187 4.683593 9.457031 9.480469 12.246094 3.246093 1.890624 6.855468 2.867187 10.382812 2.867187 1.683594 0 3.351562-.226563 4.953125-.675781 5.261719-1.488282 9.898437-5.296875 12.402344-10.183594 3.210937-6.28125 2.828125-14.175781-.980469-20.117188-6.25-9.75-16.753906-10.800781-24.390625-7.519531zm19.136719 24.445313c-1.628906 3.1875-4.648438 5.667968-8.074219 6.636718-3.132813.886719-6.746094.339844-9.910156-1.503906-3.164063-1.839844-5.425781-4.710937-6.203125-7.871094-1.835938-7.445312 2.601562-13.039062 7.8125-15.277343 1.570312-.671875 3.414062-1.105469 5.335937-1.105469 3.648438 0 7.574219 1.5625 10.402344 5.972656 2.449219 3.824219 2.707031 9.105469.636719 13.148438zm0 0"/><path d="m152.875 380.960938c-7.621094-.238282-14.273438 3.285156-16.933594 8.960937-1.84375 3.933594-1.792968 8.703125.128906 13.09375 2.941407 6.699219 10.089844 11.011719 17.179688 11.011719 1.796875 0 3.585938-.277344 5.304688-.859375 4.292968-1.460938 7.925781-4.828125 9.960937-9.234375 1.96875-4.261719 2.183594-9.015625.585937-13.042969-2.332031-5.890625-8.550781-9.695313-16.226562-9.929687zm9.285156 20.035156c-1.234375 2.675781-3.371094 4.699218-5.859375 5.542968-5.117187 1.742188-11.574219-1.21875-13.820312-6.335937-1.097657-2.503906-1.171875-5.234375-.199219-7.308594 1.421875-3.035156 5.261719-4.945312 9.863281-4.945312.171875 0 .34375.003906.515625.007812 3.621094.113281 8.394532 1.621094 9.933594 5.511719.894531 2.253906.738281 5-.433594 7.527344zm0 0"/><path d="m384.183594 354.84375c-7.488282-.8125-16.5625 3.003906-18.808594 13.296875-1 4.585937.128906 9.585937 3.101562 13.710937 2.96875 4.128907 7.351563 6.785157 12.019532 7.292969.554687.058594 1.109375.089844 1.664062.089844 4.136719 0 8.304688-1.644531 11.640625-4.636719 3.789063-3.394531 5.964844-8.035156 5.96875-12.730468.011719-10.535157-8.070312-16.210938-15.585937-17.023438zm4.945312 24.542969c-2.308594 2.070312-5.179687 3.089843-7.875 2.796875-2.699218-.292969-5.285156-1.902344-7.097656-4.421875-1.8125-2.515625-2.519531-5.480469-1.941406-8.128907 1.421875-6.523437 6.933594-8.292968 11.214844-7.832031 4.65625.507813 9.347656 3.8125 9.339843 10.058594-.003906 2.710937-1.332031 5.457031-3.640625 7.527344zm0 0"/><path d="m442.355469 384.796875c-.898438 9.230469 6.359375 18.21875 15.527343 19.238281.5625.0625 1.132813.09375 1.703126.09375 3.898437 0 7.859374-1.449218 11.085937-4.097656 3.664063-3.003906 5.980469-7.242188 6.359375-11.621094.953125-11.074218-7.753906-17.894531-16.429688-18.6875-8.007812-.738281-17.140624 3.667969-18.246093 15.074219zm6.964843.675781c.636719-6.546875 5.121094-8.835937 9.480469-8.835937.386719 0 .777344.019531 1.164063.054687 5.445312.5 10.660156 4.476563 10.089844 11.117188-.214844 2.511718-1.609376 4.996094-3.824219 6.8125-2.25 1.847656-5.007813 2.746094-7.578125 2.457031-5.316406-.589844-9.851563-6.234375-9.332032-11.605469zm0 0"/></svg>