<?xml version="1.0" encoding="iso-8859-1"?>
<!-- Generator: Adobe Illustrator 18.0.0, SVG Export Plug-In . SVG Version: 6.00 Build 0)  -->
<!DOCTYPE svg PUBLIC "-//W3C//DTD SVG 1.1//EN" "http://www.w3.org/Graphics/SVG/1.1/DTD/svg11.dtd">
<svg version="1.1" id="Capa_1" xmlns="http://www.w3.org/2000/svg" xmlns:xlink="http://www.w3.org/1999/xlink" x="0px" y="0px"
	 viewBox="0 0 52.308 52.308" style="enable-background:new 0 0 52.308 52.308;" xml:space="preserve">
<path d="M49.575,0.169c-0.458-0.307-1.081-0.185-1.388,0.274l-3.584,5.351C40.864,4.198,34.7,3.308,28.664,3.308
	c-3.968,0-7.775,0.381-11.098,1.08c-1.534-2.125-4.024-3.516-6.839-3.516c-4.652,0-8.437,3.785-8.437,8.438s3.785,8.438,8.437,8.438
	c0.938,0,1.856-0.159,2.74-0.465c0.777,1.09,1.623,2.234,2.507,3.4c0.086,0.19,0.222,0.366,0.403,0.529
	c3.352,4.385,7.129,8.953,9.446,11.709c0.611,0.727,1.434,1.221,2.341,1.424V45.32c-3.2,0.071-11,0.545-11,3.488
	c0,3.331,9.996,3.5,12,3.5s12-0.169,12-3.5c0-2.943-7.8-3.417-11-3.488V34.305c0.89-0.227,1.692-0.727,2.281-1.464
	c3.533-4.417,6.462-8.232,8.81-11.465c0.268-0.221,0.443-0.464,0.531-0.732c3.893-5.42,6.012-9.064,6.328-10.888
	c0.032-0.145,0.051-0.293,0.051-0.447c0-0.962-0.654-1.824-1.782-2.575l3.467-5.176C50.156,1.098,50.033,0.477,49.575,0.169z
	 M18.568,6.209c3.029-0.584,6.562-0.901,10.096-0.901c6.781,0,11.901,1.078,14.801,2.186l-2.61,3.897
	c-2.805,0.521-6.801,0.917-12.191,0.917c-3.616,0-6.995-0.192-9.863-0.561c0.021-0.067,0.028-0.137,0.046-0.205
	c0.072-0.257,0.13-0.516,0.176-0.778c0.02-0.113,0.043-0.224,0.058-0.338c0.05-0.369,0.082-0.74,0.082-1.117
	c0-0.274-0.015-0.546-0.041-0.818C19.107,8.326,19.078,8.164,19.052,8c-0.016-0.099-0.026-0.199-0.046-0.298
	c-0.04-0.207-0.093-0.41-0.148-0.612c-0.014-0.051-0.025-0.104-0.04-0.155c-0.065-0.221-0.141-0.436-0.223-0.648
	C18.585,6.262,18.578,6.235,18.568,6.209z M40.676,18.747c-0.459-0.24-1.077-0.465-1.897-0.662l3.275-4.889
	c1.006-0.213,1.945-0.467,2.773-0.769C43.944,13.966,42.594,16.047,40.676,18.747z M36.63,17.698
	c-1.832-0.242-4.257-0.391-7.466-0.391c-7.182,0-10.57,0.699-12.109,1.488c-0.838-1.115-1.635-2.205-2.358-3.234l-0.051-0.073
	c-0.051-0.073-0.095-0.138-0.145-0.209c-0.184-0.265-0.365-0.527-0.54-0.785c-0.069-0.101-0.132-0.196-0.197-0.293
	c-0.169-0.252-0.334-0.502-0.494-0.749c-0.047-0.073-0.097-0.148-0.142-0.219c-0.162-0.252-0.317-0.499-0.463-0.738
	c0.536,0.184,1.145,0.352,1.805,0.511c0.458,0.11,0.935,0.216,1.453,0.313l-0.01,0.02l1.34,0.207l0.729,0.112l0.004-0.009
	c3.072,0.427,6.738,0.655,10.676,0.655c2.147,0,6.574-0.079,10.668-0.643L36.63,17.698z M39.008,48.808
	c-0.892,0.593-4.254,1.5-9.843,1.5s-8.952-0.907-9.843-1.5c0.837-0.557,3.853-1.39,8.843-1.49v1.131c0,0.553,0.448,1,1,1
	s1-0.447,1-1v-1.131C35.155,47.417,38.17,48.251,39.008,48.808z M46.164,9.308c0,0.344-0.774,0.874-2.44,1.393l1.564-2.334
	C45.854,8.722,46.164,9.05,46.164,9.308z"/>
<g>
</g>
<g>
</g>
<g>
</g>
<g>
</g>
<g>
</g>
<g>
</g>
<g>
</g>
<g>
</g>
<g>
</g>
<g>
</g>
<g>
</g>
<g>
</g>
<g>
</g>
<g>
</g>
<g>
</g>
</svg>
