<svg height="511pt" viewBox="0 -43 511.99979 511" width="511pt" xmlns="http://www.w3.org/2000/svg"><path d="m501.675781 233.574219c-12.238281 15.328125-32.027343 21.148437-49.941406 15.960937l-28.941406 36.210938-11.71875-9.363282-26.019531-13.417968-12.941407-6.671875-1.878906 2.351562-23.441406-18.730469 36.199219-45.300781c-9.007813-16.332031-7.6875-36.914062 4.550781-52.242187 7.882812-9.851563 19.132812-16.0625 31.671875-17.460938 12.539062-1.402344 24.878906 2.167969 34.742187 10.050782 7.210938 5.757812 12.5 13.5 15.347657 22.109374 9.03125.878907 17.753906 4.332032 24.960937 10.089844 20.351563 16.273438 23.683594 46.0625 7.410156 66.414063zm0 0" fill="#f0e7df"/><path d="m501.675781 233.574219c-12.238281 15.328125-32.027343 21.148437-49.941406 15.960937l-28.941406 36.210938-11.71875-9.363282-26.019531-13.417968 84.25-105.894532c9.03125.878907 17.753906 4.332032 24.960937 10.089844 20.351563 16.273438 23.683594 46.0625 7.410156 66.414063zm0 0" fill="#dfcdbd"/><path d="m354.652344 326.765625v30h-329.261719l-.359375-14.640625c-.019531-.929688-.03125-1.859375-.03125-2.796875 0-95.035156 77.3125-172.347656 172.347656-172.347656h.410156c27.539063.070312 54.910157 6.789062 79.191407 19.449219 23.589843 12.3125 44.34375 30.222656 60.003906 51.8125l-12.152344 8.8125 25.121094 79.710937zm0 0" fill="#ff8900"/><path d="m354.652344 326.765625v30h-156.894532v-189.785156c27.539063.070312 54.910157 6.789062 79.191407 19.449219 23.589843 12.3125 44.34375 30.222656 60.003906 51.8125l-12.152344 8.8125 25.121094 79.710937zm0 0" fill="#e67500"/><path d="m452.195312 356.777344h-223.289062l.09375-15.089844c.167969-29.660156 11.839844-57.523438 32.878906-78.453125 21.050782-20.941406 48.992188-32.472656 78.671875-32.472656 29.691407 0 57.632813 11.53125 78.675781 32.472656 21.039063 20.929687 32.71875 48.792969 32.890626 78.453125zm0 0" fill="#ff8900"/><path d="m163.714844 126.789062-14.914063-26.03125-.148437.085938c2.191406-1.328125 8.152344-6.128906 9.402344-12.328125.992187-4.898437-.949219-10.746094-5.765626-17.382813-10.429687-14.363281-14.007812-28.429687-10.640624-41.8125 4.808593-19.105468 21.984374-27.882812 23.925781-28.820312l13.046875 27.015625.179687-.085937c-.066406.035156-6.738281 3.636718-8.089843 9.34375-1.277344 5.40625 2.480468 12.085937 5.855468 16.734374 12.558594 17.300782 12.800782 32.09375 10.792969 41.457032-4.34375 20.253906-21.679687 30.699218-23.644531 31.824218zm0 0" fill="#dfcdbd"/><path d="m228.863281 126.789062-14.917969-26.03125-.148437.085938c2.191406-1.328125 8.15625-6.128906 9.40625-12.328125.988281-4.898437-.953125-10.746094-5.769531-17.382813-10.425782-14.363281-14.003906-28.429687-10.636719-41.8125 4.804687-19.101562 21.984375-27.882812 23.925781-28.820312l13.046875 27.019531.179688-.089843c-.070313.035156-6.742188 3.636718-8.09375 9.347656-1.273438 5.402344 2.480469 12.082031 5.855469 16.730468 12.558593 17.300782 12.800781 32.09375 10.792968 41.457032-4.34375 20.253906-21.679687 30.699218-23.640625 31.824218zm0 0" fill="#dfcdbd"/><path d="m452.195312 356.777344h-111.644531v-126.015625c29.691407 0 57.632813 11.53125 78.675781 32.472656 21.039063 20.929687 32.71875 48.792969 32.890626 78.453125zm0 0" fill="#e67500"/><path d="m482.015625 326.765625v53.042969c0 25.28125-20.570313 45.851562-45.851563 45.851562h-390.3125c-25.28125 0-45.851562-20.570312-45.851562-45.851562v-53.042969zm0 0" fill="#ffc473"/><path d="m482.015625 326.765625v53.042969c0 25.28125-20.570313 45.851562-45.851563 45.851562h-195.15625v-98.894531zm0 0" fill="#ffb74f"/></svg>