<?xml version="1.0" encoding="iso-8859-1"?>
<!-- Generator: Adobe Illustrator 19.0.0, SVG Export Plug-In . SVG Version: 6.00 Build 0)  -->
<svg version="1.1" id="Capa_1" xmlns="http://www.w3.org/2000/svg" xmlns:xlink="http://www.w3.org/1999/xlink" x="0px" y="0px"
	 viewBox="0 0 512.136 512.136" style="enable-background:new 0 0 512.136 512.136;" xml:space="preserve">
<g transform="translate(0 -1)">
	<path style="fill:#5E5F62;" d="M503.004,468.16l-81.375-74.3c-17.317-15.997-21.143-41.901-9.191-62.222
		c55.081-95.994,30.57-217.938-57.324-285.195S143.109-12.596,64.85,65.662s-86.477,202.369-19.221,290.263
		s189.2,112.405,285.194,57.326c20.321-11.953,46.225-8.126,62.222,9.191l75.282,82.451c4.796,5.252,11.581,8.244,18.694,8.243
		s13.897-2.996,18.691-8.25C514.986,493.957,513.781,477.61,503.004,468.16z"/>
	<circle style="fill:#A5A5A4;" cx="221" cy="221.83" r="176.55"/>
	<path style="fill:#E6E7E8;" d="M277.357,307.914c8.733,1.21,17.624,0.531,26.071-1.992c19.094-4.886,33.773-20.162,37.895-39.435
		c1.393-8.723-0.333-17.657-4.875-25.234c-3.15-5.212-2.915-11.796,0.6-16.769c4.894-6.912,7.531-15.168,7.55-23.636
		c-1.012-19.97-13.938-37.37-32.765-44.106c-8.892-3.466-15.814-10.662-18.932-19.682c-4.974-16.728-19.944-28.51-37.373-29.415
		c-14.803-2.973-30.066,2.195-40.018,13.55c-6.379,6.648-15.989,9.077-24.76,6.26c-6.279-1.523-12.713-2.317-19.174-2.365
		c-28.226-0.241-52.308,14.345-56.333,35.351c-1.325,7.017-0.463,14.271,2.47,20.782c4.551,11.774-0.143,25.108-11.065,31.435
		c-10.712,6.909-17.433,18.562-18.05,31.294c0,14.498,23.508,26.066,43.461,32.972c13.174,3.517,23.341,14.001,26.452,27.276
		l0.088,0.473c3.821,19.649,25.436,32.8,50.887,31.864c18.467-0.392,36.02-8.113,48.789-21.46
		C263.122,309.772,270.216,307.109,277.357,307.914z"/>
	<circle style="fill:#F3D55B;" cx="238.65" cy="221.83" r="52.966"/>
	<path style="fill:#F9EAB0;" d="M221.01,230.654c-2.341,0.001-4.587-0.929-6.243-2.585c-1.656-1.656-2.585-3.901-2.585-6.243
		c0.016-14.619,11.863-26.467,26.483-26.483c4.875,0,8.828,3.952,8.828,8.828s-3.952,8.828-8.828,8.828
		c-4.873,0.005-8.823,3.954-8.828,8.828c0.001,2.341-0.929,4.587-2.585,6.243C225.597,229.724,223.351,230.654,221.01,230.654
		L221.01,230.654z"/>
</g>
<g>
</g>
<g>
</g>
<g>
</g>
<g>
</g>
<g>
</g>
<g>
</g>
<g>
</g>
<g>
</g>
<g>
</g>
<g>
</g>
<g>
</g>
<g>
</g>
<g>
</g>
<g>
</g>
<g>
</g>
</svg>
