<?xml version="1.0" encoding="iso-8859-1"?>
<!-- Generator: Adobe Illustrator 19.0.0, SVG Export Plug-In . SVG Version: 6.00 Build 0)  -->
<svg version="1.1" id="Capa_1" xmlns="http://www.w3.org/2000/svg" xmlns:xlink="http://www.w3.org/1999/xlink" x="0px" y="0px"
	 viewBox="0 0 511.998 511.998" style="enable-background:new 0 0 511.998 511.998;" xml:space="preserve">
<g>
	<g>
		<g>
			<path d="M511.715,476.693c-0.743-8.826-4.798-17.044-11.35-23.004l-78.65-71.825c-13.834-12.741-16.855-33.431-7.242-49.596
				c47.459-82.745,36.718-186.563-26.675-257.839s-165.25-94.055-252.966-56.574S-6.826,144.69,0.864,239.768
				c6.118,75.726,50.561,143.056,117.788,178.445c67.228,35.389,147.889,33.915,213.778-3.907
				c16.165-9.608,36.849-6.588,49.592,7.242l72.775,79.704c6.252,6.837,15.086,10.735,24.35,10.746h0.017
				c9.272-0.013,18.113-3.912,24.375-10.75C509.604,494.581,512.572,485.664,511.715,476.693z M490.948,489.726
				c-3.011,3.329-7.295,5.221-11.784,5.204h-0.009c-4.479,0.02-8.754-1.866-11.758-5.188l-72.775-79.704
				c-10.657-11.73-25.777-18.407-41.625-18.383c-10.216,0.023-20.246,2.734-29.083,7.858
				c-76.385,43.799-172.217,33.873-238.002-24.654C20.127,316.334-0.886,222.309,33.725,141.345
				c34.612-80.964,117.1-130.742,204.864-123.627h0c69.891,5.657,132.028,46.68,164.688,108.728
				c32.661,62.048,31.304,136.493-3.597,197.31c-13.649,23.094-9.258,52.591,10.525,70.708l78.658,71.825v0.004
				c3.351,3.083,5.434,7.303,5.842,11.838C495.142,482.353,493.777,486.563,490.948,489.726z"/>
			<path d="M341.19,229.318c5.725-8.117,8.809-17.801,8.833-27.733c-0.941-22.776-15.537-42.732-36.958-50.529
				c-6.253-2.391-11.15-7.394-13.408-13.696c-5.693-19.355-22.897-33.072-43.034-34.313c-17.373-3.346-35.203,2.899-46.692,16.354
				c-4.137,3.653-9.928,4.78-15.133,2.946c-6.708-1.628-13.581-2.476-20.483-2.529c-31.533-0.417-58.292,17.012-62.916,41.1
				c-1.628,8.477-0.594,17.25,2.958,25.117c2.451,7.722-0.855,16.104-7.917,20.075c-12.609,8.236-20.424,22.09-20.95,37.142
				c0,15.538,16.067,28.975,47.758,39.938c9.954,2.551,17.678,10.402,20.066,20.396c4.317,22.179,27.275,37.746,55.117,37.746
				c0.917,0,1.833-0.017,2.767-0.05c20.15-0.511,39.276-8.985,53.192-23.567c2.789-3.003,6.809-4.548,10.892-4.188
				c9.651,1.351,19.479,0.608,28.817-2.179c21.626-5.678,38.159-23.132,42.658-45.033c1.65-10.389-0.409-21.027-5.817-30.05
				C339.611,234.111,339.71,231.37,341.19,229.318z M327.189,219.556c-5.348,7.549-5.701,17.554-0.9,25.462
				c3.361,5.633,4.632,12.269,3.592,18.746c-3.459,15.355-15.301,27.435-30.583,31.2c-6.993,2.103-14.358,2.673-21.592,1.671h-0.009
				c-9.717-1.176-19.403,2.424-25.992,9.662c-10.807,11.176-25.598,17.62-41.142,17.925c-20.383,0.862-37.658-9.283-40.558-24.242
				c-3.511-15.89-15.499-28.548-31.175-32.917c-25.058-8.671-36.275-18.208-36.275-23.813c0.613-9.58,5.806-18.276,13.95-23.359
				c13.897-8.402,19.616-25.667,13.483-40.704c-2.146-4.711-2.783-9.971-1.825-15.058c2.983-15.6,22.458-27.25,45.417-27.25
				l0.583,0.004c5.588,0.041,11.153,0.727,16.583,2.046c11.761,3.628,24.558,0.051,32.733-9.15
				c7.788-8.439,19.43-12.177,30.675-9.85c13.586,0.428,25.365,9.523,29.217,22.558c3.802,11.118,12.279,20.015,23.2,24.35
				c14.999,5.198,25.405,18.902,26.383,34.746C332.928,208.026,330.914,214.302,327.189,219.556z"/>
			<path d="M239.089,162.131c-32.99,0-59.733,26.744-59.733,59.733c0.038,32.974,26.759,59.695,59.733,59.733
				c32.99,0,59.733-26.744,59.733-59.733S272.079,162.131,239.089,162.131z M239.089,264.531c-23.564,0-42.667-19.102-42.667-42.667
				c0.028-23.553,19.114-42.639,42.667-42.667c23.564,0,42.667,19.103,42.667,42.667S262.653,264.531,239.089,264.531z"/>
			<path d="M239.089,196.264c-14.132,0.015-25.585,11.468-25.6,25.6c-0.001,2.263,0.898,4.434,2.499,6.035
				c1.6,1.6,3.771,2.499,6.035,2.499c2.263,0.001,4.434-0.898,6.035-2.499c1.6-1.6,2.499-3.771,2.499-6.035
				c0.005-4.711,3.822-8.529,8.533-8.533c4.713,0,8.533-3.821,8.533-8.533S243.802,196.264,239.089,196.264z"/>
			<path d="M222.023,42.664c-98.969,0-179.2,80.231-179.2,179.2c0.112,98.923,80.277,179.088,179.2,179.2
				c98.969,0,179.2-80.231,179.2-179.2S320.992,42.664,222.023,42.664z M222.023,383.998c-89.544,0-162.133-72.59-162.133-162.133
				c0.102-89.502,72.632-162.032,162.133-162.133c89.544,0,162.133,72.59,162.133,162.133S311.566,383.998,222.023,383.998z"/>
		</g>
	</g>
</g>
<g>
</g>
<g>
</g>
<g>
</g>
<g>
</g>
<g>
</g>
<g>
</g>
<g>
</g>
<g>
</g>
<g>
</g>
<g>
</g>
<g>
</g>
<g>
</g>
<g>
</g>
<g>
</g>
<g>
</g>
</svg>
