<svg height="511pt" viewBox="0 -102 511.99959 511" width="511pt" xmlns="http://www.w3.org/2000/svg"><path d="m486.652344 200.910156-3.527344 3.144532c-11.1875 9.96875-27.226562 16.445312-45.167969 18.242187-4.070312.402344-8.351562.605469-12.726562.605469-.289063 0-.578125-.007813-.867188-.015625l-4.351562-.09375.867187 3.753906c.058594.25.082032.410156.082032.519531-.007813 5.449219-2.171876 11.183594-6.085938 16.148438l-3.648438 4.625 5.886719.230468c1.328125.050782 2.671875.078126 4.003907.078126 15.558593 0 31.074218-3.480469 44.863281-10.058594 9.082031-4.324219 15.066406-9 18.84375-14.710938 3.621093-5.46875 4.835937-12.34375 3.171875-17.941406zm0 0" fill="#cbe580"/><path d="m273.363281 234.089844c-17.246093-1.8125-34.023437-6.835938-50.28125-11.707032-7.578125-2.273437-16.167969-4.847656-22.789062-10.527343-2.441407-2.09375-4.640625-4.890625-6.1875-7.875l-2.425781-4.671875-2.785157 4.46875c-3.167969 5.085937-7.644531 9.515625-12.9375 12.808594l-2.09375 1.304687.871094 2.308594c2.660156 7.007812.945313 15.390625-4.582031 22.421875l-2.972656 3.78125 4.703124 1.003906c20.367188 4.351562 41.210938 6.554688 61.949219 6.554688 9.351563 0 18.816407-.449219 28.140625-1.339844 5.652344-.535156 11.601563-1.269532 16.746094-3.792969 4.714844-2.308594 8.160156-6.011719 9.457031-10.160156l1.203125-3.863281-4.046875-.03125c-3.894531-.03125-7.921875-.257813-11.96875-.683594zm0 0" fill="#cbe580"/><path d="m384.394531 219.082031c-7-.992187-15.710937-2.230469-22.375-7.113281-2.683593-1.980469-4.980469-4.816406-6.457031-7.992188l-2.367188-5.078124-2.914062 4.785156c-5.921875 9.707031-14.8125 17.652344-25.707031 22.972656-8.664063 4.230469-18.519531 6.839844-29.289063 7.757812l-2.613281.226563-.125 2.617187-.011719.296876c-.523437 3.386718-2.191406 6.6875-4.8125 9.539062l-3.390625 3.6875 4.851563 1.25c17.460937 4.488281 35.519531 6.765625 53.675781 6.765625 12.757813 0 25.53125-1.136719 37.96875-3.378906 7.8125-1.417969 16.765625-3.511719 23.980469-8.308594 7.476562-4.984375 12.132812-12.667969 12.144531-20.054687 0-.15625.039063-.347657.121094-.597657l1.203125-3.683593-3.863282-.246094c-10.210937-.648438-20.273437-2.070313-30.019531-3.445313zm0 0" fill="#94c668"/><path d="m170.476562 219.625-3.070312 1.207031c-9.320312 3.65625-19.144531 4.800781-26.664062 5.390625-5.449219.4375-11.042969.660156-16.621094.660156-24.378906 0-49.3125-4.28125-72.105469-12.375-3.914063-1.394531-9.78125-3.605468-15.507813-6.730468l-3.03125-1.652344-1.214843 3.234375c-.121094.324219-.429688.90625-1.144531 1.171875-2.78125 1.03125-4.832032 3.429688-5.78125 6.753906-1.304688 4.605469-.277344 10.152344 2.554687 13.804688 5.4375 7.023437 14.863281 9.746094 23.265625 11.742187 25.574219 6.082031 51.867188 9.230469 78.140625 9.351563l1.179687.003906c10.199219 0 20.835938-.707031 29.515626-5.820312 10.074218-5.964844 13.390624-16.597657 11.394531-23.566407zm0 0" fill="#94c668"/><path d="m296.785156 184.164062c-64.773437 0-135.996094-4.554687-217.742187-13.925781l-3.035157-.339843c-20.304687-2.261719-62.5625-6.96875-67.175781-29.496094-2.195312-10.753906-1.691406-33.722656 26.324219-66.753906 10.617188-12.507813 25.167969-24.386719 40.96875-33.453126 19.207031-11.019531 39.0625-17.121093 55.910156-17.183593 1.191406 0 2.382813.019531 3.570313.039062h.136719c1.191406.027344 2.382812.054688 3.585937.054688 1.179687 0 2.226563-.027344 3.191406-.078125l5.730469-.316406-4.292969 3.808593c-17.792969 15.785157-29.65625 38.183594-32.542969 61.449219-.046874.355469.105469.613281.203126.734375.164062.214844.40625.351563.675781.386719-.003907 0-.003907-.003906-.003907-.003906.011719 0 .070313.007812.121094.007812.5 0 .921875-.378906.984375-.878906 3.382813-27.214844 19-52.582032 41.78125-67.851563.027344-.03125.089844-.082031.148438-.128906l.21875-.164063.253906-.097656c2.546875-1.003906 5.105469-2.195312 7.359375-3.242187l.1875-.089844c3.4375-1.597656 6.679688-3.105469 10.0625-4.175781 8.332031-2.628906 16.652344-3.960938 24.726562-3.960938 1.144532 0 2.296876.027344 3.429688.082032 8.261719.398437 16.273438 1.941406 23.808594 4.589843 1.058594.417969 4.292968 2.195313 9.195312 4.941407 2.6875 1.496093 5.453125 3.039062 7.597656 4.179687.984376.527344 1.929688 1.027344 2.761719 1.402344l1.988281.90625-1.074218 1.902343c-12.214844 21.597657-20.328125 45.976563-23.46875 70.496094-.066406.542969.324218 1.042969.871094 1.113282l.128906.015624c.5 0 .929687-.378906.996094-.882812 3.257812-25.546875 11.925781-50.785156 25.0625-72.984375l.3125-.746094.5625-.335937c15.015624-8.953125 33.210937-13.886719 51.238281-13.886719.566406 0 1.132812.003906 1.699219.015625 19.371093.335938 37.25 6.117188 51.710937 16.726562l.34375.253907.210937.367187c12.742188 22.375 20.988282 47.726563 23.851563 73.320313.054687.5.488281.890625.992187.890625l.121094-.007813c.535156-.0625.933594-.558593.871094-1.101562-2.714844-24.296875-10.300781-48.566407-21.945312-70.191407l-1.117188-2.078124 2.234375-.761719c15.109375-5.171875 30.402344-7.792969 45.453125-7.792969 11.984375 0 23.464844 1.6875 34.117188 5.015625 27.480468 8.589844 49.550781 28.332031 59.039062 52.816406 10.066406 25.992188 4.28125 57.023438-14.066406 75.453125-20.171875 20.253906-51.011719 24.617188-78.335938 27.121094-35.40625 3.242188-71.363281 4.820312-109.917968 4.820312-.007813 0-.011719 0-.019532 0zm0 0" fill="#f7b36f"/><path d="m263.375 300.289062c-76.558594 0-144.300781-6.042968-207.097656-18.472656-13.78125-2.730468-27.988282-6.234375-37.035156-16.265625-4.957032-5.5-7.382813-14.1875-6.035157-21.613281.652344-3.589844 2.453125-8.492188 7.347657-11.460938l2.339843-1.417968 1.625 2.199218c.0625.082032.253907.351563.253907.351563 5.894531 7.609375 15.722656 10.804687 25.460937 13.113281 25.863281 6.160156 52.457031 9.339844 79.039063 9.460938.367187.007812.675781.007812.96875.007812h.078124c10.847657 0 22.195313-.769531 31.695313-6.382812l.359375-.226563 1.933594-1.179687 1.664062 1.53125c.253906.234375.546875.390625.867188.464844 21.941406 5.019531 44.464844 7.5625 66.941406 7.5625 9.445312 0 19.0625-.453126 28.578125-1.355469 5.160156-.492188 10.636719-1.144531 15.796875-3.167969l1.503906-.589844 1.320313.933594c.214843.152344.421875.261719.59375.308594 19.816406 5.78125 40.421875 8.710937 61.257812 8.710937 12.96875 0 25.992188-1.160156 38.707031-3.449219 7.511719-1.355468 16.210938-3.34375 23.746094-7.835937l1.234375-.734375 1.347657.5c.148437.054688.277343.085938.414062.105469 4.230469.515625 8.542969.777343 12.800781.777343 16.15625 0 32.273438-3.617187 46.617188-10.460937 9.765625-4.652344 16.269531-9.777344 20.46875-16.117187.316406-.480469.609375-.972657.902343-1.472657l2.003907-3.445312 2.753906 2.882812c8.160156 8.542969 10.183594 22.863281 4.917969 34.828125-5.035156 11.453125-16.265625 21.152344-30.8125 26.609375-13.703125 5.164063-28.710938 6.441407-41.949219 7.566407-39.261719 3.324218-98.722656 7.734374-162.609375 7.734374zm0 0" fill="#f7b36f"/><g fill="#ed6d66"><path d="m496.019531 156.664062-4.433593 4.839844c.824218-.90625 1.640624-1.8125 2.4375-2.742187l-4.433594-4.039063c-.179688.183594-.851563.894532-.984375 1.035156-20.347657 20.421876-51.160157 25.800782-81.429688 28.566407-13.925781 1.28125-28.539062 2.328125-43.433593 3.113281l-.871094 5.8125c13.082031 4.773438 26.84375 7.191406 40.910156 7.191406 1.300781 0 2.605469-.023437 3.90625-.066406-1.320312.042969-2.640625.066406-3.96875.066406-14.40625 0-28.484375-2.535156-41.847656-7.539062l-3.632813-1.359375-.402343 3.859375c-.480469 4.667968 2.210937 10.152344 6.550781 13.339844 5.875 4.308593 13.691406 5.402343 20.589843 6.371093 13.15625 1.859375 26.761719 3.78125 40.285157 3.777344 4.273437 0 8.410156-.195313 12.285156-.582031 19.296875-1.925782 35.765625-9.242188 46.375-20.609375 8.738281-9.351563 13.445313-22.09375 12.589844-34.082031zm-10.265625 10.792969c-.144531.136719-.285156.277344-.429687.417969.144531-.140625.285156-.28125.429687-.417969zm-3.058594 2.8125c-.175781.15625-.355468.320313-.535156.480469.179688-.160156.359375-.324219.535156-.480469zm-3.273437 2.804688c-.167969.136719-.328125.273437-.492187.40625.164062-.132813.328124-.269531.492187-.40625zm-3.40625 2.707031c-.132813.101562-.261719.203125-.394531.304688.132812-.101563.261718-.203126.394531-.304688zm-3.492187 2.582031c-.09375.066407-.1875.132813-.277344.199219.089844-.066406.183594-.132812.277344-.199219zm-3.554688 2.4375c-.0625.039063-.121094.082031-.183594.121094.058594-.039063.121094-.082031.183594-.121094zm-3.613281 2.292969c-.039063.019531-.074219.042969-.113281.066406.039062-.023437.074218-.046875.113281-.066406zm-3.660157 2.144531c-.027343.015625-.054687.03125-.082031.046875.027344-.015625.050781-.03125.082031-.046875zm-3.710937 2.007813c-.035156.015625-.070313.03125-.105469.050781.035156-.015625.070313-.035156.105469-.050781zm-3.765625 1.867187c-.058594.027344-.113281.050781-.171875.078125.058594-.023437.113281-.050781.171875-.078125zm-3.820312 1.734375c-.097657.039063-.195313.078125-.289063.121094.09375-.042969.191406-.082031.289063-.121094zm-3.882813 1.597656c-.152344.058594-.304687.113282-.457031.167969.152344-.054687.304687-.109375.457031-.167969zm-3.949219 1.460938c-.203125.070312-.410156.136719-.613281.203125.203125-.066406.410156-.128906.613281-.203125zm-4.023437 1.328125c-.019531.003906-.035157.011719-.054688.015625.019531-.003906.035157-.011719.054688-.015625zm-26.976563 4.953125c-.421875.027344-.847656.039062-1.269531.0625.421875-.023438.847656-.035156 1.269531-.0625zm0 0"/><path d="m348.699219 198.222656 3.898437-7.601562-7.667968 3.4375-1.335938-5.734375c-15.484375.558593-31.226562.839843-46.785156.839843-28.332032 0-58.402344-.890624-89.378906-2.648437l-1.476563 5.699219c13.558594 6.554687 28.257813 11.1875 43.449219 13.75-17.230469-2.894532-33.777344-8.441406-48.839844-16.472656l-3.683594-2.472657-.964844 4.273438c-1.507812 6.679687 2.421876 13.613281 6.980469 17.523437 5.964844 5.117188 13.746094 7.453125 21.355469 9.738282 16.042969 4.808593 32.636719 9.78125 49.527344 11.550781 4.292968.453125 8.515625.679687 12.558594.679687 13.695312 0 25.96875-2.597656 36.480468-7.726562 11.304688-5.515625 20.5-14.335938 25.882813-24.835938zm-3.894531-4.109375c-.0625.027344-.121094.054688-.183594.078125.066406-.027344.132812-.054687.199218-.085937zm-95.386719 11.855469c1.46875.25 2.945312.472656 4.421875.683594-1.476563-.207032-2.953125-.4375-4.421875-.683594zm4.8125.738281c1.375.191407 2.75.363281 4.128906.519531-1.378906-.15625-2.753906-.332031-4.128906-.519531zm4.933593.605469c1.257813.136719 2.523438.265625 3.789063.375-1.265625-.109375-2.53125-.238281-3.789063-.375zm5.085938.472656c1.121094.089844 2.242188.171875 3.363281.238282-1.125-.0625-2.242187-.152344-3.363281-.238282zm5.417969.332032c.890625.042968 1.78125.089843 2.675781.117187-.894531-.027344-1.785156-.074219-2.675781-.117187zm7.476562.195312c-.035156 0-.070312 0-.105469 0h.113282zm0 0"/><path d="m124.109375 222.875c5.445313 0 10.9375-.214844 16.316406-.640625 9.996094-.789063 22.816407-2.515625 33.265625-8.957031 7.410156-4.554688 12.933594-11.417969 15.152344-18.835938l1.515625-5.050781-5.117187 1.28125c-.347657.085937-.699219.160156-1.046876.246094l-.507812-5.898438c-33.0625-2.292969-68.460938-5.59375-105.21875-9.808593l-3.015625-.339844c-11.6875-1.304688-29.351563-3.273438-44.117187-8.523438l-2.394532 5.464844c-2.460937-1.292969-4.898437-2.617188-7.292968-3.996094l-3.804688-2.199218-.660156 4.34375c-1.125 7.386718 1.242187 15.875 6.175781 22.144531 7.691406 9.800781 20.070313 15.105469 29.996094 18.636719 22.359375 7.9375 46.824219 12.132812 70.753906 12.132812zm-14.726563-26.910156c.074219.007812.144532.015625.214844.023437-.070312-.007812-.140625-.015625-.214844-.023437zm1.457032.140625c3.328125.316406 6.664062.566406 10.011718.734375-3.351562-.167969-6.691406-.417969-10.011718-.734375zm28.042968.917969c.898438-.027344 1.789063-.082032 2.6875-.121094-.898437.039062-1.789062.09375-2.6875.121094zm32.769532-3.425782c1.597656-.289062 3.183594-.613281 4.769531-.941406-1.585937.328125-3.171875.648438-4.769531.941406zm-26.128906 3.128906c1.367187-.082031 2.730468-.195312 4.09375-.304687-1.363282.109375-2.726563.222656-4.09375.304687zm6.589843-.492187c1.582031-.140625 3.152344-.316406 4.722657-.492187-1.570313.175781-3.140626.351562-4.722657.492187zm6.550781-.683594c1.664063-.199219 3.320313-.433593 4.976563-.667969-1.65625.234376-3.3125.46875-4.976563.667969zm6.511719-.878906c1.664063-.25 3.320313-.535156 4.972657-.820313-1.652344.285157-3.308594.570313-4.972657.820313zm12.921875-2.351563c1.480469-.3125 2.949219-.660156 4.417969-1.007812-1.46875.347656-2.9375.691406-4.417969 1.007812zm-81.070312 2.027344c-.414063-.066406-.824219-.140625-1.238282-.207031.414063.066406.824219.140625 1.238282.207031zm-4.933594-.84375c-.773438-.144531-1.550781-.296875-2.324219-.449218.773438.152343 1.550781.304687 2.324219.449218zm-4.867188-.949218c-.957031-.199219-1.910156-.40625-2.867187-.617188.957031.210938 1.910156.417969 2.867187.617188zm-4.808593-1.046876c-1.074219-.246093-2.148438-.503906-3.21875-.765624 1.074219.261718 2.144531.519531 3.21875.765624zm-4.738281-1.144531c-1.171876-.292969-2.335938-.59375-3.5-.90625 1.164062.3125 2.328124.613281 3.5.90625zm-30.097657-9.875c5.46875 2.234375 11.042969 4.265625 16.710938 6.070313-5.664063-1.804688-11.242188-3.835938-16.710938-6.070313zm16.839844 6.109375c1.351563.429688 2.707031.84375 4.066406 1.246094-1.359375-.402344-2.714843-.816406-4.066406-1.246094zm4.839844 1.476563c1.25.367187 2.503906.71875 3.757812 1.066406-1.253906-.347656-2.507812-.699219-3.757812-1.066406zm-37.328125-14.714844c-.648438-.324219-1.289063-.652344-1.929688-.984375.640625.332031 1.28125.660156 1.929688.984375zm14.054687 6.480469c-.84375-.355469-1.675781-.71875-2.515625-1.082032.835938.363282 1.671875.726563 2.515625 1.082032zm-4.765625-2.0625c-.722656-.320313-1.441406-.652344-2.160156-.984375.71875.332031 1.4375.664062 2.160156.984375zm-4.699218-2.164063c-.660157-.3125-1.316407-.632812-1.96875-.953125.652343.320313 1.308593.636719 1.96875.953125zm0 0"/></g><path d="m495.644531 215.730469c-.105469-.082031-.222656-.136719-.332031-.210938 1.03125-6.074219.113281-12.1875-2.824219-17.125 11.496094-15.046875 14.453125-35.214843 6.992188-50.71875-.0625-.125-.144531-.234375-.214844-.351562 13.574219-20.65625 16.757813-49.078125 7.316406-73.445313-10.355469-26.734375-34.320312-48.253906-64.105469-57.5625-25.527343-7.976562-55.171874-7.058594-83.757812 2.554688-31.398438-22.367188-76.5625-23.613282-111.695312-3.058594-2.210938-1.144531-5.890626-3.199219-8.558594-4.6875-6.285156-3.511719-8.984375-4.988281-10.390625-5.480469-8.320313-2.917969-17.109375-4.621093-26.125-5.050781-10.078125-.488281-20.496094.941406-30.949219 4.246094-3.949219 1.246094-7.644531 2.96875-11.222656 4.636718-4.910156 2.285157-9.546875 4.445313-14.40625 5.230469-2.96875.480469-6.121094.417969-9.457032.351563-1.300781-.027344-2.597656-.046875-3.910156-.046875-23.351562.089843-45.4375 9.96875-59.859375 18.242187-16.601562 9.527344-31.90625 22.039063-43.085937 35.222656-12.972656 15.289063-33.863282 45.171876-28.0625 73.53125 1.566406 7.65625 5.992187 13.585938 12.066406 18.234376-2.503906 4.800781-3.582031 10.480468-3.058594 16.441406.625 7.09375 3.414063 14.105468 7.847656 19.75 2.570313 3.265625 5.546876 6.070312 8.734376 8.507812-3.835938 2.105469-6.640626 5.71875-7.980469 10.414063-.953125 3.34375-1.070313 6.960937-.433594 10.421875-6.257813 3.257812-10.464844 9.261718-11.847656 16.914062-1.742188 9.597656 1.289062 20.410156 7.71875 27.542969 10.488281 11.636719 25.945312 15.496094 40.878906 18.453125 57.144531 11.308594 117.742187 17.335938 185.257813 18.417969 7.464843.117187 14.988281.179687 22.605468.179687 49.113282 0 101.796875-2.507812 163.699219-7.753906 13.039063-1.101562 29.269531-2.476562 43.917969-7.984375 16.542968-6.21875 28.882812-17 34.753906-30.351563 7.074219-16.089843 2.984375-35.636718-9.511719-45.464843zm-71.847656 10.144531c.476563.003906.953125.023438 1.429687.023438 4.332032 0 8.675782-.1875 13.023438-.621094 18.785156-1.878906 35.191406-8.570313 46.867188-18.988282 1.398437 4.683594.40625 10.601563-2.792969 15.4375-3.460938 5.234376-9.0625 9.574219-17.636719 13.660157-14.621094 6.972656-31.207031 10.316406-47.457031 9.683593 4.261719-5.398437 6.714843-11.738281 6.726562-18 0-.414062-.0625-.808593-.160156-1.195312zm57.933594-30.21875c-10.109375 10.828125-25.90625 17.8125-44.476563 19.667969-17.171875 1.722656-34.808594-.769531-51.867187-3.175781-6.554688-.925782-13.976563-1.972657-19.226563-5.828126-2.550781-1.875-4.695312-4.875-4.941406-7.855468 7.644531 2.703125 15.839844 2.988281 22.167969 3.203125 5.761719.195312 11.683593.34375 17.695312.34375 25.027344 0 51.578125-2.578125 74.234375-15.128907 8.089844-4.484374 14.390625-9.671874 18.855469-15.492187-1.113281 8.8125-8.953125 20.53125-12.441406 24.265625zm-304.191407 23.476562c5.824219-3.625 10.5625-8.410156 13.90625-13.769531 1.785157 3.453125 4.238282 6.492188 6.898438 8.773438 7.105469 6.09375 16.023438 8.765625 23.894531 11.125 16.359375 4.902343 33.277344 9.96875 50.808594 11.8125 4.199219.441406 8.285156.667969 12.265625.703125-1.035156 3.300781-3.949219 6.417968-7.910156 8.355468-4.695313 2.300782-10.335938 2.992188-15.710938 3.503907-29.878906 2.847656-59.859375 1.097656-89.183594-5.164063 5.585938-7.097656 8.371094-16.527344 5.03125-25.339844zm96.554688 7.992188c-16.601562-1.742188-33.0625-6.675781-48.984375-11.445312-7.253906-2.171876-14.757813-4.421876-20.253906-9.132813-3.054688-2.621094-6.5-7.40625-5.832031-10.972656 23.589843 12.066406 49.878906 18.125 76.175781 18.125 23.753906 0 47.503906-4.953125 69.269531-14.847657-1.878906 9.296876-16.226562 18.21875-22.96875 21.511719-13.136719 6.414063-29.085938 8.691407-47.40625 6.761719zm-63.050781-36.90625c12.566406-1.453125 26.15625.785156 38.574219 1.179688 15.722656.5 31.457031.769531 47.191406.769531 5.230468 0 27.683594-2.464844 39.839844-.808594-19.664063 8.289063-41.367188 12.519531-63.449219 12.226563-21.707031-.269532-42.957031-4.871094-62.15625-13.367188zm84.460937 47.792969c.03125-.207031.027344-.40625.03125-.609375 11.132813-.945313 21.289063-3.628906 30.351563-8.054688 11.53125-5.628906 20.867187-14.117187 26.953125-24.101562 1.699218 3.644531 4.328125 6.878906 7.402344 9.136718 7.277343 5.34375 16.410156 6.632813 23.746093 7.667969 9.917969 1.398438 20.023438 2.816407 30.234375 3.472657-.160156.484374-.265625.992187-.265625 1.53125-.011719 6.394531-4.15625 13.121093-10.816406 17.554687-6.769531 4.503906-15.351563 6.496094-22.851563 7.851563-29.867187 5.394531-60.964843 4.222656-90.363281-3.339844 2.976563-3.226563 4.945313-7.058594 5.578125-11.109375zm73.777344-47.671875c4.632812-1.097656 10.128906-.820313 14.171875-1.101563 8.003906-.554687 16.003906-1.191406 23.996094-1.921875 15.875-1.457031 31.875-3.535156 47.101562-8.425781 7.453125-2.394531 14.707031-5.472656 21.414063-9.519531 3.191406-1.925782 8.175781-7.453125 12.578125-7.503906-3.507813 6.097656-9.5625 11.554687-18.074219 16.265624-25.867188 14.332032-57.035156 14.546876-86.742188 13.539063-5.195312-.175781-10.039062-.4375-14.445312-1.332031zm-358.488281-50.335938c-2.125-10.394531-1.589844-32.664062 25.890625-65.058594 10.453125-12.324218 24.816406-24.050781 40.4375-33.015624 12.359375-7.089844 25.8125-12.714844 39.851562-15.382813 7.996094-1.519531 16.527344-1.820313 24.890625-2.699219-8.320312 7.097656-14.703125 13.980469-19.882812 21.363282-10.121094 14.417968-14.9375 30.621093-13.558594 45.625.242187 2.59375 2.421875 4.542968 4.976563 4.542968.152343 0 .308593-.007812.464843-.023437 2.75-.25 4.769531-2.6875 4.519531-5.4375-1.164062-12.640625 3.019532-26.480469 11.78125-38.964844 7.0625-10.0625 16.726563-19.226563 31.335938-29.726563.863281-.617187 1.460938-1.457031 1.789062-2.386718.238282-.101563.476563-.191406.710938-.300782 3.441406-1.601562 6.6875-3.113281 10.015625-4.167968 9.316406-2.941406 18.554687-4.214844 27.453125-3.789063 9.5.449219 21.140625 1.90625 29.097656 7.621094 2.75 1.976563 4.378906 5.472656 7.324219 7.0625.476563.253906.960937.460937 1.453125.640625-16.816406 30.621094-23.257812 56.449219-20.230469 80.8125.3125 2.53125 2.46875 4.386719 4.957031 4.386719.203126 0 .414063-.011719.621094-.039063 2.742188-.339844 4.6875-2.839844 4.347656-5.578125-2.941406-23.667969 4.167969-49.289062 22.363282-80.589843 5.925781-2.246094 11.84375-6.109376 16.46875-7.761719 11.292968-4.039063 23.347656-6.042969 35.339844-5.828125 11.109374.195312 22.207031 2.242187 32.535156 6.371094 4.167968 1.667968 8.023437 4.175781 12.050781 6.226562.007813.875.222656 1.761719.710937 2.566406 14.863282 24.433594 24.707032 52.335938 28.464844 80.6875.332032 2.515625 2.480469 4.34375 4.949219 4.34375.21875 0 .441406-.015625.664063-.042968 2.738281-.363282 4.660156-2.875 4.300781-5.613282-3.628907-27.367187-12.675781-54.328125-26.25-78.425781 7.191406.011719 14.152343-2.933594 21.285156-4.246094 19.035156-3.5 39.019531-3.113281 57.570313 2.683594 26.90625 8.410156 48.5 27.710937 57.765624 51.628906 9.792969 25.285157 4.195313 55.4375-13.617187 73.320313-19.695313 19.78125-50.125 24.074218-77.101563 26.542968-93.972656 8.609376-197.964843 5.714844-327.265624-9.097656l-3.039063-.339844c-19.839844-2.210937-61.125-6.816406-65.441406-27.910156zm165.0625 46.875c-11.765625 5.34375-26.164063 6.082032-40.179688 6.257813-19.285156.246093-39.753906.125-59.320312-4.1875-11.898438-2.625-27.730469-7.878907-41.308594-18.351563 4.285156.996094 8.355469 2.414063 13.207031 3.390625 8.878906 1.789063 17.875 2.863281 26.871094 3.867188l3.011719.339843c25.460937 2.917969 50.960937 5.488282 76.5 7.617188 4.757812.394531 13.980469-.289062 21.21875 1.066406zm-150.140625 3.375c-2.503906-3.1875-8.667969-14.625-5.125-19.097656 13.183594 13.203125 31.648437 22.714844 53.613281 27.558594 17.0625 3.757812 34.472656 4.5 51.238281 4.5 3.480469 0 6.941406-.035156 10.359375-.078125 17.359375-.21875 35.347657-1.253907 49.878907-10.105469 2.183593 6.683594-8.859376 14.800781-13.554688 17.695312-9.902344 6.097657-22.265625 7.757813-31.933594 8.523438-28.859375 2.273438-58.542968-1.644531-85.832031-11.335938-9.539063-3.394531-21.417969-8.464843-28.644531-17.660156zm132.742187 53.523438c-8.59375 5.078125-19.574219 5.449218-29.148437 5.410156-26.050782-.121094-52.109375-3.242188-77.457032-9.269531-7.910156-1.886719-16.757812-4.414063-21.589843-10.660157-2.246094-2.902343-3.085938-7.488281-2.035157-11.15625.476563-1.679687 1.550782-3.871093 3.933594-4.753906 1.410156-.527344 2.421875-1.625 2.914063-2.933594 5.410156 2.949219 10.960937 5.152344 15.941406 6.921876 23.308594 8.28125 48.285156 12.542968 73.109375 12.542968 5.632812 0 11.257812-.222656 16.855469-.660156 8.160156-.644531 18.09375-1.898438 27.519531-5.589844 2.160156 7.546875-3.300781 16.167969-10.042969 20.148438zm337.542969 13.394531c-4.707031 10.710937-15.320312 19.828125-29.117188 25.015625-13.355468 5.019531-28.171874 6.273438-41.242187 7.382812-102.625 8.695313-237.285156 15.332032-368.777344-10.691406-13.285156-2.628906-26.957031-5.980468-35.390625-15.339844-4.363281-4.839843-6.496094-12.5-5.308594-19.0625.550782-3.042968 2.035157-7.0625 5.941407-9.4375.085937.113282.164062.230469.25.34375 6.503906 8.394532 16.910156 11.816407 27.183593 14.261719 26.085938 6.207031 52.910157 9.417969 79.722657 9.542969.355469.003906.707031.003906 1.0625.003906 11.410156 0 23.257812-.917968 33.21875-6.800781.132812-.078125.265625-.164063.398437-.246094.609375.554688 1.355469.980469 2.21875 1.179688 22.257813 5.085937 44.902344 7.640625 67.621094 7.640625 9.613281 0 19.242188-.457032 28.859375-1.375 5.4375-.515625 11.148437-1.222656 16.605469-3.359375.449218.320312.941406.585937 1.5.75 20.121094 5.867187 41.105468 8.820312 62.089844 8.820312 13.152343 0 26.304687-1.160156 39.234374-3.496093 7.878907-1.421876 16.882813-3.519532 24.753907-8.207032.34375.121094.699219.21875 1.074219.261719 4.359374.535156 8.765624.800781 13.179687.800781 16.488281 0 33.117187-3.6875 47.917969-10.746094 10.28125-4.902343 17.167968-10.359374 21.671875-17.167968.351562-.53125.675781-1.074219.992187-1.617188 7.238282 7.574219 9.175782 20.546875 4.339844 31.542969zm0 0"/></svg>