<svg height="511pt" viewBox="0 -102 511.99959 511" width="511pt" xmlns="http://www.w3.org/2000/svg"><path d="m495.644531 215.730469c-.105469-.082031-.222656-.136719-.332031-.210938 1.03125-6.074219.113281-12.1875-2.824219-17.125 11.496094-15.046875 14.453125-35.214843 6.992188-50.71875-.0625-.125-.144531-.234375-.214844-.351562 13.574219-20.65625 16.757813-49.078125 7.316406-73.445313-10.355469-26.734375-34.320312-48.253906-64.105469-57.5625-25.527343-7.976562-55.171874-7.058594-83.757812 2.554688-31.398438-22.367188-76.5625-23.613282-111.695312-3.058594-2.210938-1.144531-5.890626-3.199219-8.558594-4.6875-6.285156-3.511719-8.984375-4.988281-10.390625-5.480469-8.320313-2.917969-17.109375-4.621093-26.125-5.050781-10.078125-.488281-20.496094.941406-30.949219 4.246094-3.949219 1.246094-7.644531 2.96875-11.222656 4.636718-4.910156 2.285157-9.546875 4.445313-14.40625 5.230469-2.96875.480469-6.121094.417969-9.457032.351563-1.300781-.027344-2.597656-.046875-3.910156-.046875-23.351562.089843-45.4375 9.96875-59.859375 18.242187-16.601562 9.527344-31.90625 22.039063-43.085937 35.222656-12.972656 15.289063-33.863282 45.171876-28.0625 73.53125 1.566406 7.65625 5.992187 13.585938 12.066406 18.234376-2.503906 4.800781-3.582031 10.480468-3.058594 16.441406.625 7.09375 3.414063 14.105468 7.847656 19.75 2.570313 3.265625 5.546876 6.070312 8.734376 8.507812-3.835938 2.105469-6.640626 5.71875-7.980469 10.414063-.953125 3.34375-1.070313 6.960937-.433594 10.421875-6.257813 3.257812-10.464844 9.261718-11.847656 16.914062-1.742188 9.597656 1.289062 20.410156 7.71875 27.542969 10.488281 11.636719 25.945312 15.496094 40.878906 18.453125 57.144531 11.308594 117.742187 17.335938 185.257813 18.417969 7.464843.117187 14.988281.179687 22.605468.179687 49.113282 0 101.796875-2.507812 163.699219-7.753906 13.039063-1.101562 29.269531-2.476562 43.917969-7.984375 16.542968-6.21875 28.882812-17 34.753906-30.351563 7.074219-16.089843 2.984375-35.636718-9.511719-45.464843zm-71.847656 10.144531c.476563.003906.953125.023438 1.429687.023438 4.332032 0 8.675782-.1875 13.023438-.621094 18.785156-1.878906 35.191406-8.570313 46.867188-18.988282 1.398437 4.683594.40625 10.601563-2.792969 15.4375-3.460938 5.234376-9.0625 9.574219-17.636719 13.660157-14.621094 6.972656-31.207031 10.316406-47.457031 9.683593 4.261719-5.398437 6.714843-11.738281 6.726562-18 0-.414062-.0625-.808593-.160156-1.195312zm57.933594-30.21875c-10.109375 10.828125-25.90625 17.8125-44.476563 19.667969-17.171875 1.722656-34.808594-.769531-51.867187-3.175781-6.554688-.925782-13.976563-1.972657-19.226563-5.828126-2.550781-1.875-4.695312-4.875-4.941406-7.855468 7.644531 2.703125 15.839844 2.988281 22.167969 3.203125 5.761719.195312 11.683593.34375 17.695312.34375 25.027344 0 51.578125-2.578125 74.234375-15.128907 8.089844-4.484374 14.390625-9.671874 18.855469-15.492187-1.113281 8.8125-8.953125 20.53125-12.441406 24.265625zm-304.191407 23.476562c5.824219-3.625 10.5625-8.410156 13.90625-13.769531 1.785157 3.453125 4.238282 6.492188 6.898438 8.773438 7.105469 6.09375 16.023438 8.765625 23.894531 11.125 16.359375 4.902343 33.277344 9.96875 50.808594 11.8125 4.199219.441406 8.285156.667969 12.265625.703125-1.035156 3.300781-3.949219 6.417968-7.910156 8.355468-4.695313 2.300782-10.335938 2.992188-15.710938 3.503907-29.878906 2.847656-59.859375 1.097656-89.183594-5.164063 5.585938-7.097656 8.371094-16.527344 5.03125-25.339844zm96.554688 7.992188c-16.601562-1.742188-33.0625-6.675781-48.984375-11.445312-7.253906-2.171876-14.757813-4.421876-20.253906-9.132813-3.054688-2.621094-6.5-7.40625-5.832031-10.972656 23.589843 12.066406 49.878906 18.125 76.175781 18.125 23.753906 0 47.503906-4.953125 69.269531-14.847657-1.878906 9.296876-16.226562 18.21875-22.96875 21.511719-13.136719 6.414063-29.085938 8.691407-47.40625 6.761719zm-63.050781-36.90625c12.566406-1.453125 26.15625.785156 38.574219 1.179688 15.722656.5 31.457031.769531 47.191406.769531 5.230468 0 27.683594-2.464844 39.839844-.808594-19.664063 8.289063-41.367188 12.519531-63.449219 12.226563-21.707031-.269532-42.957031-4.871094-62.15625-13.367188zm84.460937 47.792969c.03125-.207031.027344-.40625.03125-.609375 11.132813-.945313 21.289063-3.628906 30.351563-8.054688 11.53125-5.628906 20.867187-14.117187 26.953125-24.101562 1.699218 3.644531 4.328125 6.878906 7.402344 9.136718 7.277343 5.34375 16.410156 6.632813 23.746093 7.667969 9.917969 1.398438 20.023438 2.816407 30.234375 3.472657-.160156.484374-.265625.992187-.265625 1.53125-.011719 6.394531-4.15625 13.121093-10.816406 17.554687-6.769531 4.503906-15.351563 6.496094-22.851563 7.851563-29.867187 5.394531-60.964843 4.222656-90.363281-3.339844 2.976563-3.226563 4.945313-7.058594 5.578125-11.109375zm73.777344-47.671875c4.632812-1.097656 10.128906-.820313 14.171875-1.101563 8.003906-.554687 16.003906-1.191406 23.996094-1.921875 15.875-1.457031 31.875-3.535156 47.101562-8.425781 7.453125-2.394531 14.707031-5.472656 21.414063-9.519531 3.191406-1.925782 8.175781-7.453125 12.578125-7.503906-3.507813 6.097656-9.5625 11.554687-18.074219 16.265624-25.867188 14.332032-57.035156 14.546876-86.742188 13.539063-5.195312-.175781-10.039062-.4375-14.445312-1.332031zm-358.488281-50.335938c-2.125-10.394531-1.589844-32.664062 25.890625-65.058594 10.453125-12.324218 24.816406-24.050781 40.4375-33.015624 12.359375-7.089844 25.8125-12.714844 39.851562-15.382813 7.996094-1.519531 16.527344-1.820313 24.890625-2.699219-8.320312 7.097656-14.703125 13.980469-19.882812 21.363282-10.121094 14.417968-14.9375 30.621093-13.558594 45.625.242187 2.59375 2.421875 4.542968 4.976563 4.542968.152343 0 .308593-.007812.464843-.023437 2.75-.25 4.769531-2.6875 4.519531-5.4375-1.164062-12.640625 3.019532-26.480469 11.78125-38.964844 7.0625-10.0625 16.726563-19.226563 31.335938-29.726563.863281-.617187 1.460938-1.457031 1.789062-2.386718.238282-.101563.476563-.191406.710938-.300782 3.441406-1.601562 6.6875-3.113281 10.015625-4.167968 9.316406-2.941406 18.554687-4.214844 27.453125-3.789063 9.5.449219 21.140625 1.90625 29.097656 7.621094 2.75 1.976563 4.378906 5.472656 7.324219 7.0625.476563.253906.960937.460937 1.453125.640625-16.816406 30.621094-23.257812 56.449219-20.230469 80.8125.3125 2.53125 2.46875 4.386719 4.957031 4.386719.203126 0 .414063-.011719.621094-.039063 2.742188-.339844 4.6875-2.839844 4.347656-5.578125-2.941406-23.667969 4.167969-49.289062 22.363282-80.589843 5.925781-2.246094 11.84375-6.109376 16.46875-7.761719 11.292968-4.039063 23.347656-6.042969 35.339844-5.828125 11.109374.195312 22.207031 2.242187 32.535156 6.371094 4.167968 1.667968 8.023437 4.175781 12.050781 6.226562.007813.875.222656 1.761719.710937 2.566406 14.863282 24.433594 24.707032 52.335938 28.464844 80.6875.332032 2.515625 2.480469 4.34375 4.949219 4.34375.21875 0 .441406-.015625.664063-.042968 2.738281-.363282 4.660156-2.875 4.300781-5.613282-3.628907-27.367187-12.675781-54.328125-26.25-78.425781 7.191406.011719 14.152343-2.933594 21.285156-4.246094 19.035156-3.5 39.019531-3.113281 57.570313 2.683594 26.90625 8.410156 48.5 27.710937 57.765624 51.628906 9.792969 25.285157 4.195313 55.4375-13.617187 73.320313-19.695313 19.78125-50.125 24.074218-77.101563 26.542968-93.972656 8.609376-197.964843 5.714844-327.265624-9.097656l-3.039063-.339844c-19.839844-2.210937-61.125-6.816406-65.441406-27.910156zm165.0625 46.875c-11.765625 5.34375-26.164063 6.082032-40.179688 6.257813-19.285156.246093-39.753906.125-59.320312-4.1875-11.898438-2.625-27.730469-7.878907-41.308594-18.351563 4.285156.996094 8.355469 2.414063 13.207031 3.390625 8.878906 1.789063 17.875 2.863281 26.871094 3.867188l3.011719.339843c25.460937 2.917969 50.960937 5.488282 76.5 7.617188 4.757812.394531 13.980469-.289062 21.21875 1.066406zm-150.140625 3.375c-2.503906-3.1875-8.667969-14.625-5.125-19.097656 13.183594 13.203125 31.648437 22.714844 53.613281 27.558594 17.0625 3.757812 34.472656 4.5 51.238281 4.5 3.480469 0 6.941406-.035156 10.359375-.078125 17.359375-.21875 35.347657-1.253907 49.878907-10.105469 2.183593 6.683594-8.859376 14.800781-13.554688 17.695312-9.902344 6.097657-22.265625 7.757813-31.933594 8.523438-28.859375 2.273438-58.542968-1.644531-85.832031-11.335938-9.539063-3.394531-21.417969-8.464843-28.644531-17.660156zm132.742187 53.523438c-8.59375 5.078125-19.574219 5.449218-29.148437 5.410156-26.050782-.121094-52.109375-3.242188-77.457032-9.269531-7.910156-1.886719-16.757812-4.414063-21.589843-10.660157-2.246094-2.902343-3.085938-7.488281-2.035157-11.15625.476563-1.679687 1.550782-3.871093 3.933594-4.753906 1.410156-.527344 2.421875-1.625 2.914063-2.933594 5.410156 2.949219 10.960937 5.152344 15.941406 6.921876 23.308594 8.28125 48.285156 12.542968 73.109375 12.542968 5.632812 0 11.257812-.222656 16.855469-.660156 8.160156-.644531 18.09375-1.898438 27.519531-5.589844 2.160156 7.546875-3.300781 16.167969-10.042969 20.148438zm337.542969 13.394531c-4.707031 10.710937-15.320312 19.828125-29.117188 25.015625-13.355468 5.019531-28.171874 6.273438-41.242187 7.382812-102.625 8.695313-237.285156 15.332032-368.777344-10.691406-13.285156-2.628906-26.957031-5.980468-35.390625-15.339844-4.363281-4.839843-6.496094-12.5-5.308594-19.0625.550782-3.042968 2.035157-7.0625 5.941407-9.4375.085937.113282.164062.230469.25.34375 6.503906 8.394532 16.910156 11.816407 27.183593 14.261719 26.085938 6.207031 52.910157 9.417969 79.722657 9.542969.355469.003906.707031.003906 1.0625.003906 11.410156 0 23.257812-.917968 33.21875-6.800781.132812-.078125.265625-.164063.398437-.246094.609375.554688 1.355469.980469 2.21875 1.179688 22.257813 5.085937 44.902344 7.640625 67.621094 7.640625 9.613281 0 19.242188-.457032 28.859375-1.375 5.4375-.515625 11.148437-1.222656 16.605469-3.359375.449218.320312.941406.585937 1.5.75 20.121094 5.867187 41.105468 8.820312 62.089844 8.820312 13.152343 0 26.304687-1.160156 39.234374-3.496093 7.878907-1.421876 16.882813-3.519532 24.753907-8.207032.34375.121094.699219.21875 1.074219.261719 4.359374.535156 8.765624.800781 13.179687.800781 16.488281 0 33.117187-3.6875 47.917969-10.746094 10.28125-4.902343 17.167968-10.359374 21.671875-17.167968.351562-.53125.675781-1.074219.992187-1.617188 7.238282 7.574219 9.175782 20.546875 4.339844 31.542969zm0 0"/></svg>