<svg height="512pt" viewBox="0 -11 512.00005 512" width="512pt" xmlns="http://www.w3.org/2000/svg"><path d="m510.300781 206.171875c-5.390625-45.222656-23.476562-87.078125-52.304687-121.046875-17.988282-21.199219-39.492188-38.949219-63.917969-52.761719-12.828125-7.257812-26.449219-13.375-40.472656-18.1875-28.296875-9.710937-57.671875-14.472656-87.355469-14.160156-45.171875.476563-90.636719 11.910156-131.484375 33.070313-42.792969 22.160156-77.320313 53.582031-99.847656 90.863281-9.375 15.511719-17.050781 32.269531-22.8125 49.804687-14.753907 44.917969-16.066407 95.601563-3.691407 142.714844 12.84375 48.902344 38.8125 90.371094 75.097657 119.929688 37.292969 30.382812 86.6875 49.332031 139.082031 53.363281 7.015625.539062 14.050781.804687 21.082031.804687 38.6875 0 77.40625-8.109375 113.113281-23.804687 43.050782-18.925781 79.894532-48.152344 106.546876-84.519531 10.445312-14.253907 19.390624-29.558594 26.578124-45.484376 18.609376-41.210937 25.660157-86.367187 20.386719-130.585937zm-29.5 126.46875c-6.90625 15.296875-15.496093 29.996094-25.53125 43.6875-25.617187 34.953125-61.0625 63.058594-102.5 81.273437-40.707031 17.894532-85.453125 25.566407-129.410156 22.1875-50.378906-3.875-97.800781-22.039062-133.53125-51.144531-34.632813-28.210937-59.441406-67.878906-71.742187-114.71875-11.890626-45.269531-10.640626-93.941406 3.519531-137.050781 5.527343-16.820312 12.882812-32.886719 21.871093-47.753906 21.574219-35.703125 54.730469-65.84375 95.886719-87.160156 39.464844-20.441407 83.378907-31.488282 126.992188-31.949219.878906-.007813 1.757812-.011719 2.640625-.011719 27.625 0 54.984375 4.582031 81.363281 13.632812 13.445313 4.617188 26.5 10.480469 38.796875 17.433594 23.394531 13.230469 43.992188 30.230469 61.214844 50.527344 27.550781 32.46875 44.839844 72.496094 50 115.757812 5.054687 42.417969-1.710938 85.738282-19.570313 125.289063zm0 0"/><path d="m413.132812 120.640625c-14.003906-16.503906-30.746093-30.324219-49.753906-41.074219-9.988281-5.644531-20.585937-10.410156-31.503906-14.15625-22.015625-7.554687-44.894531-11.257812-67.964844-11.015625-35.121094.371094-70.476562 9.261719-102.234375 25.710938-33.292969 17.242187-60.15625 41.695312-77.695312 70.71875-7.300781 12.078125-13.273438 25.121093-17.753907 38.761719-11.484374 34.957031-12.503906 74.398437-2.875 111.054687 9.996094 38.066406 30.21875 70.355469 58.480469 93.378906 29.027344 23.648438 67.464844 38.398438 108.230469 41.53125 5.457031.421875 10.921875.628907 16.394531.628907 30.082031 0 60.199219-6.304688 87.972657-18.515626 33.484374-14.71875 62.148437-37.457031 82.886718-65.757812 8.125-11.085938 15.082032-22.992188 20.679688-35.390625 14.480468-32.070313 19.964844-67.214844 15.863281-101.628906-4.195313-35.203125-18.277344-67.796875-40.726563-94.246094zm-54.675781-32.367187c17.980469 10.167968 33.8125 23.234374 47.054688 38.839843 3.253906 3.832031 6.300781 7.835938 9.179687 11.953125l-14.238281 8.632813c-6.882813-5.636719-15.851563-8.203125-24.605469-6.90625-7.386718 1.097656-14.078125 5.679687-18.84375 12.898437-5.320312 8.054688-7.582031 18.476563-6.03125 27.179688-.378906.300781-.710937.652344-.988281 1.046875l-24.351563 14.089843c-2.027343-2.960937-4.867187-5.078124-8.003906-5.90625-3.234375-.851562-6.496094-.324218-9.445312 1.523438-7.023438 4.402344-9.15625 14.96875-10.179688 20.046875-.171875.859375-.316406 1.722656-.457031 2.585937-.449219.132813-.890625.300782-1.308594.566407-11.863281 7.5625-24.257812 14.449219-36.867187 20.925781l3.078125-34.460938c5.570312-.945312 11.007812-3.488281 15.429687-7.398437 6.398438-5.65625 10.71875-13.917969 12.167969-23.261719 1.386719-8.953125-1.625-17.921875-8.265625-24.605468-3.917969-3.945313-8.753906-6.742188-13.949219-8.21875.113281-.382813.199219-.78125.214844-1.195313l3.066406-72.03125c19.453125.546875 38.847657 3.882813 57.515625 10.289063 10.335938 3.550781 20.371094 8.058593 29.828125 13.40625zm42.804688 84.691406c-1.089844 7.042968-4.253907 13.1875-8.90625 17.300781-4.890625 4.324219-11.488281 6.210937-17.226563 4.921875-6.460937-1.449219-12.097656-7.355469-14.019531-14.695312-1.671875-6.367188.035156-14.921876 4.238281-21.289063 3.179688-4.816406 7.429688-7.84375 11.96875-8.515625 6.6875-.992188 13.59375 1.34375 18.472656 6.253906 4.375 4.402344 6.371094 10.242188 5.472657 16.023438zm-83.472657 64.410156c-1.359374 3.289062-2.765624 5.40625-4.417968 6.667969-1.480469 1.128906-3.441406 1.5-4.566406.871093-.824219-.464843-1.550782-1.597656-1.941407-3.027343-.5-1.839844-.5-4.097657-.5-6.28125v-.003907c0-7.269531 0-14.792968 1.441407-21.953124.632812-3.128907 2.304687-11.429688 5.683593-13.546876.476563-.300781.847657-.390624 1.148438-.390624.164062 0 .308593.027343.441406.0625.945313.25 2 1.230468 2.6875 2.503906 5.691406 10.523437 4.109375 25.207031.023437 35.097656zm-62.429687 162.578125c-3.945313 2.039063-9.703125.5625-12.832031-3.285156 0 0 0 0 0-.003907-2.441406-3.003906-3.511719-7.289062-2.933594-11.757812.863281-6.695312 6.96875-16.25 13.539062-18.53125.679688-.234375 1.347657-.351562 2.015626-.351562 1.214843 0 2.417968.390624 3.640624 1.179687 2.972657 1.917969 5.371094 5.9375 5.703126 9.5625.265624 2.902344-.140626 6.144531-1.3125 10.515625-1.820313 6.75-4.375 10.894531-7.820313 12.671875zm-11.207031-74.648437c-6.460938-1.453126-12.09375-7.359376-14.019532-14.699219-1.667968-6.363281.035157-14.921875 4.238282-21.289063 3.183594-4.816406 7.433594-7.839844 11.96875-8.515625 6.683594-.992187 13.59375 1.347657 18.472656 6.253907 4.375 4.40625 6.371094 10.246093 5.476562 16.023437-1.09375 7.042969-4.257812 13.191406-8.910156 17.304687-4.890625 4.324219-11.484375 6.210938-17.226562 4.921876zm30.539062-172.226563c4.375 4.402344 6.371094 10.242187 5.472656 16.019531-1.089843 7.046875-4.253906 13.191406-8.90625 17.304688-4.890624 4.324218-11.488281 6.210937-17.226562 4.921875-6.460938-1.449219-12.097656-7.355469-14.023438-14.699219-1.667968-6.363281.035157-14.917969 4.242188-21.289062 3.179688-4.816407 7.429688-7.839844 11.96875-8.515626 6.6875-.988281 13.59375 1.347657 18.472656 6.257813zm-108.414062-64.09375c29.355468-15.203125 62.019531-23.746094 94.828125-24.441406l-3.046875 71.644531c-.007813.148438.019531.292969.023437.441406-1.109375.042969-2.222656.136719-3.332031.300782-7.386719 1.09375-14.078125 5.675781-18.84375 12.898437-5.765625 8.730469-7.953125 20.242187-5.570312 29.332031 2.894531 11.035156 11.332031 19.636719 21.503906 21.921875.191406.042969.386718.070313.578125.109375l-3.277344 36.691406c-9.652344-6.183593-19.285156-12.375-28.851563-18.566406-.195312-.125-.398437-.210937-.601562-.308594.132812-.660156.257812-1.328124.363281-2 1.386719-8.953124-1.625-17.921874-8.265625-24.605468-7.109375-7.152344-17.214844-10.554688-27.035156-9.09375-3.433594.507812-6.714844 1.78125-9.726562 3.714844-.328126-.09375-.65625-.15625-.988282-.179688l-27.488281-22.664062c.605469-3.277344.90625-6.613282.835937-9.964844-.003906-.179688-1.242187-18.210938-9.980468-21.214844-1.601563-.546875-5.753906-1.304688-9.703125 3.554688-2.355469 2.898437-3.429688 6.335937-4.378907 9.371093-.300781.960938-.589843 1.871094-.894531 2.703125-5.371093-3.710937-10.511719-7.789062-15.347656-12.167968 16.207031-19.53125 36.503906-35.71875 59.199219-47.476563zm3.738281 134.019531c-1.667969-6.367187.035156-14.921875 4.238281-21.289062 3.179688-4.816406 7.433594-7.84375 11.96875-8.515625 6.683594-.992188 13.59375 1.34375 18.472656 6.253906 4.375 4.402344 6.371094 10.242187 5.472657 16.023437-1.089844 7.042969-4.253907 13.191407-8.90625 17.300782-4.890625 4.324218-11.492188 6.207031-17.226563 4.925781-6.460937-1.453125-12.097656-7.359375-14.019531-14.699219zm-57-43.757812.75-.753906c4.175781-4.222657 7.640625-8.332032 10.589844-12.570313 2.992187-4.296875 5.390625-8.667969 7.128906-12.984375.542969-1.339844.96875-2.707031 1.382813-4.03125.578124-1.855469 1.132812-3.632812 1.890624-4.992188 1.308594 2.855469 2.578126 8.144532 2.628907 10.511719.277343 13.132813-6.175781 26.0625-16.835938 33.742188-3.121093 2.246093-5.785156 3.382812-8.144531 3.472656-2.148438.082031-4.257812-.976563-4.820312-2.414063-.457032-1.167968-.128907-2.941406.859374-4.632812 1.078126-1.84375 2.777344-3.546875 4.570313-5.347656zm-37.289063 13.464844c5.75-17.503907 14.355469-33.75 25.167969-48.359376 5.339844 4.792969 11.023438 9.238282 16.960938 13.265626-.539063.863281-1.105469 1.730468-1.707031 2.589843-2.617188 3.761719-5.722657 7.441407-9.492188 11.253907l-.722656.722656c-2.0625 2.070312-4.398438 4.414062-6.121094 7.367187-2.570312 4.398438-3.132812 9.253907-1.539062 13.324219 2.050781 5.226562 7.707031 8.769531 13.894531 8.769531.207031 0 .410156-.003906.617187-.011719 4.390625-.164062 8.839844-1.917968 13.609375-5.351562 7.605469-5.476562 13.480469-13.101562 17.0625-21.6875l23.847657 19.660156c-.480469.628906-.949219 1.273438-1.394532 1.953125-5.765625 8.730469-7.953125 20.246094-5.570312 29.335938 2.894531 11.03125 11.332031 19.632812 21.503906 21.917969 1.890625.421874 3.828125.628906 5.785156.628906 7.175782 0 14.558594-2.78125 20.253906-7.816406 3.539063-3.128907 6.441407-7.058594 8.574219-11.527344 8.238281 5.328125 16.519531 10.65625 24.824219 15.980468-10.910156 5.25-21.875 10.277344-32.707031 15.246094-22.824219 10.464844-46.398438 21.289063-68.742188 33.796875-6.125-3.542969-13.304687-5.007812-20.351562-3.964843-7.382813 1.097656-14.074219 5.679687-18.84375 12.898437-4.285157 6.492187-6.589844 14.519531-6.511719 21.949219-3.308594 1.492187-6.542969 3.183594-9.648438 5.066406-4.765624-10.113281-8.589843-20.710938-11.453124-31.613281-9.144532-34.816407-8.183594-72.246094 2.703124-105.394531zm63.695313 113.242187c4.375 4.402344 6.371094 10.242187 5.476563 16.019531-1.09375 7.046875-4.257813 13.191406-8.910157 17.304688-4.890625 4.324218-11.484375 6.210937-17.226562 4.921875-6.460938-1.449219-12.09375-7.355469-14.019531-14.699219-1.667969-6.363281.035156-14.917969 4.238281-21.289062 3.183593-4.816407 7.433593-7.839844 11.96875-8.515626 6.691406-.988281 13.59375 1.347657 18.472656 6.257813zm91.40625 119.628906c-38.75-2.980469-75.214844-16.941406-102.679687-39.316406-16.246094-13.234375-29.28125-29.5-39.117188-47.601563 2.242188-1.386718 4.554688-2.664062 6.925781-3.824218 3.492188 9.664062 11.324219 17.03125 20.613281 19.117187 1.890626.421875 3.828126.628907 5.785157.628907 7.175781 0 14.558593-2.78125 20.253906-7.816407 6.398437-5.65625 10.71875-13.917969 12.167969-23.265625 1.273437-8.203125-1.160156-16.410156-6.679688-22.871094 21.003906-11.535156 43.15625-21.71875 64.644532-31.574218 11.609374-5.324219 23.371093-10.722656 35.078124-16.386719l-1.617187 18.082031c-.441406.046875-.886719.089844-1.332031.15625-7.382813 1.09375-14.078125 5.675782-18.84375 12.898438-5.765625 8.730468-7.949219 20.242187-5.566406 29.332031 2.890624 11.03125 11.332031 19.636719 21.503906 21.917969 1.234375.277344 2.492187.453125 3.757812.546875l-.058594 23.125c0 .070312.015626.136719.019532.203125-8.472656 5.171875-14.898438 16.09375-16.007813 24.6875-.929687 7.175781.929688 14.226562 5.09375 19.351562 2.988281 3.675782 7.078125 6.152344 11.429688 7.253906l-.011719 15.925782c-5.128906-.003906-10.253906-.175782-15.359375-.570313zm99.578125-17.070312c-23.484375 10.324219-48.816406 16.222656-74.21875 17.433593l.011719-15.683593c1.289062-.335938 2.546875-.800781 3.746093-1.421875 6.085938-3.136719 10.300782-9.339844 12.890626-18.960938 1.007812-3.746094 2.101562-8.726562 1.617187-14.027344-.617187-6.746093-4.640625-13.4375-10.246094-17.050781-2.679687-1.730469-5.59375-2.644531-8.535156-2.746093l.054687-21.488282c4.445313-1.25 8.695313-3.523437 12.277344-6.691406 6.398438-5.65625 10.71875-13.917969 12.167969-23.265625 1.386719-8.953125-1.625-17.917969-8.265625-24.601563-4.363281-4.390624-9.851562-7.359374-15.714844-8.667968l1.445313-16.152344c14.46875 9.222656 28.964843 18.394531 43.414062 27.46875-1.078125.796875-2.144531 1.617188-3.195312 2.464844-1.96875 1.597656-3.988281 3.414062-5.417969 5.902344-1.941406 3.378906-2.25 7.300781-.820312 10.492187 1.121093 2.5 3.261718 4.542969 6.195312 5.910156 2.503906 1.164063 5.230469 1.742188 8.144531 1.742188 4.75 0 9.988281-1.542969 15.492188-4.605469 3.347656-1.863281 6.367187-3.957031 9.027343-6.234375 27.132813 14.847656 55.355469 28.339844 83.953126 40.128906-20.496094 30.777344-49.972657 55.085938-84.023438 70.054688zm1.367188-127.726563c-3.355469 7.308594-10.109376 12.210938-15.1875 15.035156-3.402344 1.894532-9.820313 4.742188-14.554688 2.539063-.898438-.417969-1.238281-.820313-1.289062-.929687-.054688-.136719-.027344-.742188.363281-1.421876.578125-1.007812 1.636719-1.972656 3.042969-3.113281 0-.003906 0-.003906 0-.003906 3.632812-2.941406 7.519531-5.507813 11.636718-8.222656.875-.578125 1.75-1.15625 2.621094-1.738281 3.480469-2.320313 6.5-4.882813 9.417969-7.363282 1.410156-1.199218 2.871093-2.441406 4.34375-3.617187.34375.523437.707031 1.28125.855469 1.984375.492187 2.339844-.40625 5.019531-1.25 6.851562zm97.109374 31.617188c-2.714843 6.015625-5.757812 11.839844-9.082031 17.480468-.054687-.023437-.101562-.0625-.160156-.085937-27.96875-11.46875-55.574219-24.605469-82.15625-39.046875 1.328125-1.859375 2.460937-3.792969 3.378906-5.792969 2.136719-4.660156 2.792969-9.0625 1.945313-13.085937-.910156-4.3125-4.535156-10.625-10.828125-10.367188-2.910157.121094-5.023438 1.804688-6.035157 2.617188-1.597656 1.277344-3.121093 2.570312-4.597656 3.824218-2.824218 2.398438-5.492187 4.667969-8.484375 6.664063-.863281.570313-1.726562 1.140625-2.589843 1.710937-.082032.054688-.167969.113282-.25.167969-16.109376-10.105469-32.292969-20.347656-48.433594-30.644531 11.847656-6.023438 23.550781-12.402344 34.875-19.367188-.097656 3.144532-.101563 6.214844-.101563 9.128907 0 2.707031 0 5.773437.851563 8.90625 1.109375 4.078125 3.484375 7.316406 6.683594 9.117187 1.882812 1.058594 4.03125 1.574219 6.234374 1.574219 3.207032 0 6.527344-1.09375 9.300782-3.207031 4.097656-3.125 6.296875-7.660156 7.59375-10.800782 3.832031-9.261718 6.304687-23.292968 2.652344-35.976562l24.914062-14.414062c4.074219 7.171874 10.722656 12.429687 18.34375 14.140624 1.886719.425782 3.828125.632813 5.785156.632813 7.175782 0 14.558594-2.78125 20.253906-7.820313 6.398438-5.65625 10.71875-13.917968 12.167969-23.261718 1.039063-6.707032-.390625-13.425782-3.964843-19.179688l13.007812-7.890625c12.710938 20.765625 20.84375 44.335938 23.742188 68.644531 3.890624 32.613282-1.3125 65.921876-15.046876 96.332032zm0 0"/><path d="m341.515625 322.167969c-5.453125-3.667969-11.085937-4.894531-16.535156-6.082031-1.035157-.226563-2.085938-.457032-3.144531-.703126-7.246094-1.703124-13.726563-1.699218-19.816407.011719-6.640625 1.863281-12.128906 5.730469-15.453125 10.886719-2.117187 3.28125-3.472656 7.308594-3.921875 11.644531-.414062 4.03125.011719 7.691407 1.265625 10.882813 2.605469 6.632812 8.535156 10.675781 13.808594 13.359375-.925781 1.660156-1.738281 3.457031-2.289062 5.425781-1.476563 5.296875-.484376 10.621094 2.652343 14.230469 2.574219 2.964843 6.609375 4.671875 10.84375 4.671875.617188 0 1.238281-.035156 1.859375-.109375 3.605469-.429688 7.21875-2.03125 10.730469-4.757813 3.109375-2.414062 5.355469-5.207031 6.613281-8.167968 4.363282-.023438 8.859375-1.46875 12.707032-4.183594 4.335937-3.054688 7.828124-7.539063 10.382812-13.324219 2.015625-4.5625 2.953125-8.933594 2.785156-12.988281-.328125-7.988282-4.996094-15.761719-12.488281-20.796875zm.554687 29.746093c-1.785156 4.046876-4.203124 7.226563-6.996093 9.195313-2.929688 2.0625-6.542969 2.847656-9.433594 2.042969-1.496094-.414063-3.101563-.109375-4.34375.820312-1.238281.933594-1.976563 2.390625-1.996094 3.945313-.019531 1.773437-1.445312 3.894531-3.917969 5.8125-2.058593 1.597656-4.003906 2.515625-5.78125 2.726562-1.597656.191407-3.191406-.289062-3.972656-1.191406-.886718-1.019531-1.113281-3.023437-.566406-4.988281.695312-2.492188 2.414062-5 4.074219-7.425782.84375-1.230468 1.09375-2.773437.683593-4.207031-.414062-1.4375-1.445312-2.609375-2.816406-3.207031-5.945312-2.582031-11.90625-5.5-13.789062-10.289062-.664063-1.6875-.871094-3.773438-.621094-6.199219.285156-2.777344 1.105469-5.285157 2.375-7.25 1.972656-3.058594 5.527344-5.492188 9.753906-6.679688 4.480469-1.257812 9.191406-1.226562 14.828125.097657 1.109375.257812 2.210938.5 3.300781.734374 4.945313 1.082032 9.214844 2.011719 13.085938 4.613282 4.785156 3.214844 7.878906 8.164062 8.074219 12.910156.105469 2.515625-.546875 5.386719-1.941407 8.539062zm0 0"/><path d="m408.632812 222.421875c-8.398437-7.46875-21.261718-10.308594-32.765624-7.238281-6.074219 1.621094-11.753907 4.453125-16.425782 8.183594-8.722656 6.96875-14.320312 17.464843-14.972656 28.085937-.292969 4.78125.492188 8.898437 2.34375 12.238281 2.832031 5.113282 8.398438 8.695313 14.886719 9.582032 3.371093.460937 6.945312.242187 10.839843-.671876 2.117188 5.863282 5.375 11.378907 11.457032 13.917969 1.878906.78125 3.875 1.15625 5.871094 1.15625 5.347656 0 10.683593-2.671875 13.609374-7.265625 2.769532-4.34375 3.070313-9.90625 1.191407-14.597656 6.675781-4.320312 11.394531-11.457031 12.546875-19.429688 1.351562-9.328124-1.695313-17.839843-8.582032-23.960937zm-1.3125 22.527344c-.914062 6.332031-5.574218 12.042969-11.59375 14.214843-1.648437.59375-2.863281 2.007813-3.207031 3.722657-.34375 1.71875.238281 3.492187 1.535157 4.671875 1.9375 1.769531 2.398437 5.261718.988281 7.476562-1.410157 2.210938-4.773438 3.265625-7.191407 2.257813-3.804687-1.589844-5.773437-7.066407-7.199218-12.21875-.371094-1.339844-1.28125-2.464844-2.515625-3.101563-.71875-.375-1.511719-.5625-2.304688-.5625-.566406 0-1.136719.097656-1.683593.292969-4.335938 1.550781-7.964844 2.09375-11.09375 1.664063-3.328126-.453126-6.203126-2.1875-7.496094-4.523438-.914063-1.644531-1.285156-3.925781-1.109375-6.78125.480469-7.84375 4.679687-15.648438 11.234375-20.882812 3.601562-2.875 8.015625-5.066407 12.765625-6.335938 8.210937-2.191406 17.671875-.164062 23.539062 5.050781 3.035157 2.699219 6.425781 7.503907 5.332031 15.054688zm0 0"/><path d="m298.5625 146.066406c-1.960938 4.34375-2.441406 8.789063-1.292969 12.785156 1.503907 5.222657 5.875 9.480469 11.128907 10.847657 1.257812.328125 2.546874.488281 3.839843.488281 4.113281 0 8.230469-1.613281 11.167969-4.523438 2.476562-2.453124 3.890625-5.472656 4.734375-8.347656 5.703125.722656 11.621094-.425781 16.617187-3.34375 6.65625-3.882812 11.390626-10.742187 12.65625-18.34375.5625-3.355468.488282-6.976562-.214843-10.765625-2.769531-14.898437-17.632813-22.699219-29.519531-24.855469-3.933594-.710937-24.113282-3.753906-35.195313 6.382813-6.0625 5.539063-9.035156 13.859375-7.757813 21.703125 1.289063 7.914062 6.707032 14.675781 13.835938 17.972656zm.671875-32.296875c5.488281-5.019531 17.671875-5.550781 26.664063-3.917969 8.753906 1.585938 19.628906 6.945313 21.46875 16.839844.492187 2.636719.554687 5.089844.1875 7.289063-.773438 4.636719-3.777344 8.988281-7.839844 11.355469-4.054688 2.371093-9.320313 2.84375-13.738282 1.234374-1.421874-.515624-3.011718-.359374-4.308593.429688s-2.164063 2.125-2.359375 3.628906c-.507813 3.929688-1.441406 6.449219-2.9375 7.929688-1.378906 1.367187-3.566406 1.953125-5.449219 1.464844-1.878906-.488282-3.503906-2.074219-4.042969-3.9375-.769531-2.683594.453125-6.355469 3.269532-9.820313 1.15625-1.417969 1.441406-3.355469.75-5.046875-.691407-1.691406-2.25-2.871094-4.066407-3.078125-5.90625-.667969-11.277343-5.785156-12.230469-11.648437-.734374-4.488282 1.085938-9.480469 4.632813-12.722657zm0 0"/><path d="m161.691406 149.105469c5.613282 4.136719 13.3125 4.628906 20.214844 3.457031.296875 2.324219.945312 4.460938 1.9375 6.394531 2.90625 5.640625 8.949219 9.3125 15.214844 9.308594.246094 0 .492187-.003906.738281-.015625 6.640625-.308594 12.78125-4.871094 14.933594-11.097656 1.277343-3.691406 1.109375-7.703125-.273438-11.230469 3.410157-1.953125 6.519531-5.15625 9.03125-9.410156 3.660157-6.199219 5.292969-12.558594 4.71875-18.398438-.851562-8.644531-6.601562-16.617187-15.011719-20.808593-6.984374-3.480469-15.449218-4.347657-24.484374-2.5-10.378907 2.121093-20 7.457031-26.394532 14.632812-6.992187 7.847656-10.015625 18.046875-8.082031 27.289062 1.097656 5.246094 3.746094 9.644532 7.457031 12.378907zm8.089844-33.015625c4.992188-5.601563 12.621094-9.789063 20.933594-11.488282 6.726562-1.375 13.125-.789062 18.019531 1.652344 5.273437 2.628906 9.011719 7.667969 9.519531 12.835938.460938 4.6875-1.582031 9.296875-3.375 12.335937-.9375 1.585938-4.289062 6.796875-8.394531 6.683594-2.171875-.046875-4.089844 1.300781-4.808594 3.328125s-.058593 4.289062 1.636719 5.613281c1.914062 1.492188 2.777344 4.492188 1.96875 6.832031-.820312 2.378907-3.378906 4.257813-5.945312 4.378907-2.582032.113281-5.378907-1.511719-6.597657-3.882813-1.21875-2.363281-1.117187-5.417968-.820312-7.566406.242187-1.722656-.433594-3.445312-1.777344-4.550781-.90625-.746094-2.03125-1.136719-3.175781-1.136719-.546875 0-1.101563.089844-1.636719.277344-5.644531 1.957031-13.589844 2.683594-17.703125-.347656-1.726562-1.273438-3.007812-3.539063-3.601562-6.371094-1.269532-6.0625.9375-13.1875 5.757812-18.59375zm0 0"/><path d="m93.808594 269.480469c5.082031 4.800781 12.503906 7.003906 19.382812 5.746093 4.453125-.8125 8.613282-3.070312 11.816406-6.265624 2.65625 2.660156 5.738282 4.878906 9.132813 6.550781 1.84375.910156 4.601563 2.078125 7.796875 2.078125.230469 0 .464844-.007813.699219-.019532 3.730469-.203124 7.34375-2.042968 10.167969-5.175781 4.175781-4.632812 5.816406-11.269531 4.28125-17.320312-1.035157-4.089844-3.476563-7.726563-6.769532-10.296875.867188-2.054688 1.414063-4.171875 1.84375-6.140625 1.046875-4.828125 2.007813-11.167969.144532-17.398438-2.414063-8.078125-9.625-14.789062-18.371094-17.097656-8.167969-2.15625-16.53125-1.148437-24.195313 2.90625-14.671875 7.769531-25.027343 26.265625-24.082031 43.027344.445312 7.96875 3.34375 14.859375 8.152344 19.40625zm20.609375-53.59375c5.480469-2.902344 11.191406-3.605469 16.964843-2.078125 5.449219 1.4375 9.902344 5.480468 11.34375 10.296875 1.207032 4.042969.453126 8.753906-.339843 12.410156-.554688 2.550781-1.265625 5.136719-2.707031 6.742187-1.117188 1.242188-1.539063 2.957032-1.125 4.574219.410156 1.617188 1.601562 2.921875 3.171874 3.480469 2.730469.96875 4.957032 3.410156 5.667969 6.21875.714844 2.808594-.078125 6.015625-2.019531 8.167969-1.011719 1.125-2.238281 1.828125-3.277344 1.886719-.847656.050781-2.015625-.296876-3.53125-1.042969-3.894531-1.921875-7.214844-4.855469-9.601562-8.480469-.929688-1.414062-2.5-2.253906-4.175782-2.253906-.109374 0-.21875.003906-.328124.011718-1.792969.117188-3.386719 1.1875-4.171876 2.808594-1.6875 3.476563-5.09375 6.066406-8.894531 6.761719-3.804687.695313-7.90625-.523437-10.714843-3.175781-3.976563-3.757813-4.863282-9.570313-5.039063-12.703125-.726563-12.894531 7.523437-27.664063 18.777344-33.625zm0 0"/><path d="m214.394531 353.609375c4.640625-9.011719 4.109375-20.644531-1.933593-28.921875-5.707032-7.816406-16.8125-12.382812-26.996094-11.105469-10.484375 1.320313-19.882813 10.410157-24.75 17.796875-2.835938 4.304688-4.875 9.082032-6.058594 14.195313-1.132812 4.894531-1.425781 9.863281-.871094 14.773437.816406 7.191406 3.414063 13.371094 7.511719 17.875 4.375 4.804688 10.554687 7.433594 16.871094 7.433594 2.3125 0 4.640625-.351562 6.902343-1.074219 3.886719-1.238281 7.410157-3.53125 10.210938-6.539062 2.160156 2.550781 5.082031 4.796875 9.007812 5.375 2.90625.425781 6.050782-.203125 8.855469-1.773438 6.0625-3.386719 9.4375-10.53125 8.203125-17.371093-.789062-4.371094-3.386718-8.195313-6.953125-10.664063zm-6.128906 19.308594c-.878906.492187-1.796875.707031-2.523437.605469-2.28125-.335938-4.351563-3.898438-5.902344-6.96875-.878906-1.742188-2.703125-2.808594-4.648438-2.742188-1.953125.074219-3.683594 1.277344-4.433594 3.085938-1.582031 3.820312-4.925781 6.945312-8.722656 8.15625-4.753906 1.515624-9.992187.117187-13.339844-3.5625-3.378906-3.714844-4.570312-8.722657-4.972656-12.269532-.425781-3.777344-.199218-7.609375.675782-11.394531.917968-3.949219 2.484374-7.636719 4.671874-10.949219 3.976563-6.042968 11.316407-12.578125 17.640626-13.371094.75-.09375 1.503906-.140624 2.265624-.140624 5.996094 0 12.214844 2.839843 15.410157 7.21875 4.601562 6.304687 4.046875 16.101562-1.238281 21.84375-1.253907 1.359374-1.652344 3.300781-1.039063 5.042968.609375 1.742188 2.132813 3.007813 3.960937 3.289063 2.582032.394531 4.972657 2.71875 5.4375 5.292969.464844 2.570312-.960937 5.585937-3.242187 6.863281zm0 0"/></svg>