<svg height="512pt" viewBox="0 -11 512.00005 512" width="512pt" xmlns="http://www.w3.org/2000/svg"><path d="m394.652344 145.679688c-3.984375-2.421876-8.140625-3.652344-12.351563-3.652344-10.738281 0-19.09375 7.800781-24.214843 14.34375-4.753907 6.078125-7.371094 13.289062-7.371094 20.300781 0 1.9375.199218 3.820313.585937 5.59375 2.460938 11.191406 12.746094 20.042969 24.457031 21.046875.75.066406 1.515626.097656 2.277344.097656 10.515625 0 21.058594-6.292968 26.234375-15.660156 8.835938-15.984375 2.023438-35-9.617187-42.070312zm0 0" fill="#af7979"/><path d="m272.707031 142.851562c-3.976562-2.421874-8.132812-3.648437-12.351562-3.648437-10.738281 0-19.09375 7.796875-24.207031 14.339844-5.960938 7.625-8.519532 17.050781-6.902344 25.332031v.042969l.117187.527343c2.460938 11.191407 12.746094 20.046876 24.457031 21.050782.742188.0625 1.5.09375 2.253907.09375 10.53125 0 21.085937-6.296875 26.257812-15.667969 8.835938-15.976563 2.015625-34.992187-9.625-42.070313zm0 0" fill="#af7979"/><path d="m262.609375 275.289062c-3.980469-2.417968-8.132813-3.644531-12.339844-3.644531-10.746093 0-19.097656 7.796875-24.210937 14.335938-6.09375 7.785156-8.628906 17.464843-6.789063 25.890625 2.410157 11.015625 12.917969 20.070312 24.445313 21.0625.75.066406 1.519531.097656 2.277344.097656 10.515624 0 21.0625-6.296875 26.25-15.667969 8.828124-15.96875 2.011718-34.988281-9.632813-42.074219zm0 0" fill="#af7979"/><path d="m203.660156 187.667969c-3.984375-2.417969-8.136718-3.644531-12.34375-3.644531-10.761718 0-19.105468 7.800781-24.207031 14.335937-4.761719 6.085937-7.382813 13.292969-7.382813 20.292969 0 1.902344.199219 3.78125.59375 5.597656 2.449219 11.199219 12.730469 20.058594 24.449219 21.0625.742188.066406 1.5.097656 2.25.097656 10.527344 0 21.085938-6.296875 26.273438-15.671875 8.820312-15.972656 2.003906-34.988281-9.632813-42.070312zm0 0" fill="#af7979"/><path d="m140.265625 295.890625c-3.976563-2.421875-8.128906-3.648437-12.339844-3.648437-10.738281 0-19.097656 7.792968-24.21875 14.328124-6.09375 7.789063-8.632812 17.46875-6.785156 25.90625 2.421875 11.007813 12.929687 20.058594 24.445313 21.046876.75.066406 1.515624.097656 2.277343.097656 10.523438 0 21.070313-6.292969 26.246094-15.660156 8.835937-15.988282 2.015625-35.003907-9.625-42.070313zm0 0" fill="#af7979"/><path d="m337.460938 268.175781c-.65625-1.007812-2.234376-2.695312-5.414063-2.695312-.421875 0-.832031.023437-1.289063.078125-3.730468.441406-7.339843 3.4375-10.554687 6.109375-.980469.808593-1.902344 1.570312-2.722656 2.171875-4.535157 3.320312-9.117188 6.773437-13.613281 10.257812-2.71875 2.101563-5.105469 4.058594-6.792969 6.742188-2.074219 3.296875-2.472657 7.164062-1.039063 10.101562 1.574219 3.214844 5.292969 5.292969 9.472656 5.292969h.066407c3.609375-.015625 6.945312-1.40625 10.007812-2.910156 8.652344-4.226563 14.742188-9.121094 18.617188-14.960938 2.246093-3.378906 6.679687-14.664062 3.339843-20.066406zm0 0" fill="#cbe580"/><path d="m305.734375 251.335938c1.261719.480468 2.601563.722656 3.972656.722656 2.496094 0 4.933594-.796875 7.070313-2.320313 2.644531-1.902343 4.78125-4.667969 6.730468-8.699219 6.769532-14.007812 6.292969-37.046874-5.234374-47.722656-1.773438-1.640625-3.46875-2.433594-5.175782-2.433594l-1.324218.019532-.921876.484375c-2.292968 1.046875-4.121093 3.59375-5.730468 7.957031-2.222656 6.035156-3.980469 15.589844-5.234375 28.398438-.078125.84375-.308594 3.375-.308594 3.375-.132813 1.449218-.234375 2.539062-.308594 3.109374-.378906 2.859376-.808593 6.101563-.117187 9.257813.8125 3.695313 3.207031 6.558594 6.582031 7.851563zm0 0" fill="#cbe580"/><path d="m258.265625 360.023438c-.414063-.042969-.847656-.058594-1.320313-.058594-7.960937 0-13.566406 5.769531-16.195312 9.207031-6.121094 7.988281-8.644531 19.175781-6 26.613281 2.628906 7.363282 9.910156 12.710938 17.3125 12.710938 1.195312 0 2.378906-.136719 3.519531-.414063 5.855469-1.414062 10.105469-6.042969 12.648438-9.683593 4.878906-7.003907 7.457031-20.265626 3.105469-29.484376-2.527344-5.335937-7.042969-8.410156-13.070313-8.890624zm0 0" fill="#cbe580"/><path d="m138.445312 137.546875-3.628906-5.613281-4.359375 5.070312c-.335937.386719-.6875.855469-1.109375 1.484375-2.105468 3.199219-3.140625 7.179688-4.140625 11.023438l-.035156.144531c-.730469 2.792969-1.484375 5.683594-2.640625 8.101562-3.082031 6.402344-7.152344 12.148438-12.058594 17.050782l-1.355468 1.324218c-1.78125 1.714844-3.625 3.492188-5.058594 5.683594-2.1875 3.320313-2.84375 6.972656-1.8125 9.992188 1.5625 4.644531 6.523437 6.757812 10.46875 6.757812l.296875-.003906c3.613281-.097656 7.378906-1.59375 11.515625-4.585938 8.730468-6.34375 15.109375-16.007812 17.503906-26.511718 1.65625-7.269532 1.460938-14.960938-.566406-22.230469-.972656-3.535156-1.960938-6.050781-3.019532-7.6875zm0 0" fill="#cbe580"/><g fill="#fff"><path d="m409.121094 257.03125c3.015625-3.269531 5.003906-7.226562 5.75-11.445312 1.980468-11.289063-5.410156-20.078126-9.984375-24.308594-4.351563-4.035156-9.589844-6.082032-15.574219-6.082032-7.28125 0-15.671875 3.140626-24.9375 9.324219-5.128906 3.417969-17.058594 12.800781-17.058594 26.144531 0 7.402344 4.351563 14.800782 10.828125 18.40625 3.042969 1.695313 6.574219 2.59375 10.214844 2.59375 2.832031 0 5.582031-.535156 8.125-1.574218-.609375 5.652344 2.34375 11.695312 7.425781 14.320312 1.855469.964844 4 1.472656 6.203125 1.472656 4.90625 0 9.519531-2.40625 12.058594-6.289062 3.203125-4.941406 2.675781-11.882812-.894531-16.488281 2.59375-1.304688 6.726562-4.855469 7.84375-6.074219zm0 0"/><path d="m286.363281 348.136719c2.460938 5.789062 7.796875 10.34375 13.859375 12.070312-3.964844 4.078125-5.351562 10.65625-2.949218 15.871094 2.238281 4.851563 7.496093 8.113281 13.085937 8.113281 1.480469 0 2.917969-.234375 4.285156-.703125 5.464844-1.894531 9.429688-7.59375 9.429688-13.550781.609375.125 1.933593.324219 4.589843.324219 1.714844 0 4.023438-.09375 5.320313-.304688 4.375-.726562 8.367187-2.625 11.5625-5.496093 8.511719-7.6875 8.078125-19.167969 7.066406-25.324219-2.703125-16.589844-19.960937-21.296875-33.953125-22.320313-1.269531-.097656-2.554687-.144531-3.8125-.144531-4.597656 0-8.84375.582031-12.617187 1.722656-5.585938 1.691407-9.992188 4.574219-13.101563 8.566407-4.550781 5.851562-5.660156 14.359374-2.765625 21.175781zm0 0"/><path d="m210.824219 354.089844c1.457031-2.523438 2.933593-7.679688 3.214843-9.378906.726563-4.386719.21875-8.78125-1.46875-12.714844-4.523437-10.5-15.53125-13.8125-21.699218-14.855469-1.316406-.21875-2.640625-.332031-3.929688-.332031-11.558594 0-21.027344 8.507812-28.148437 25.289062-1.421875 3.347656-3.808594 10.035156-3.808594 17.195313 0 5.367187 1.3125 10.085937 3.902344 14.023437 3.789062 5.769532 10.738281 9.496094 17.703125 9.496094.484375 0 .972656-.019531 1.457031-.054688 6.367187-.476562 12.296875-3.984374 15.886719-9.210937 2.371094 4.652344 7.433594 7.957031 12.761718 7.957031.4375 0 .875-.023437 1.304688-.070312 6.871094-.710938 12.648438-7.140625 12.617188-14.042969-.027344-5.898437-4.285157-11.414063-9.792969-13.300781zm0 0"/><path d="m146.621094 244.265625c1.46875-2.535156 2.941406-7.699219 3.21875-9.382813.726562-4.386718.21875-8.78125-1.472656-12.722656-4.53125-10.496094-15.53125-13.808594-21.722657-14.855468-1.328125-.214844-2.640625-.324219-3.898437-.324219-11.5625 0-21.035156 8.511719-28.152344 25.285156-2.410156 5.671875-7.226562 20.074219.09375 31.222656 3.789062 5.765625 10.738281 9.496094 17.703125 9.492188.484375 0 .972656-.015625 1.457031-.050781 6.382813-.476563 12.3125-3.992188 15.882813-9.210938 2.371093 4.652344 7.429687 7.957031 12.753906 7.957031.445313 0 .890625-.023437 1.316406-.070312 6.867188-.710938 12.648438-7.140625 12.617188-14.046875-.027344-5.890625-4.277344-11.398438-9.796875-13.292969zm0 0"/><path d="m214.773438 101.785156c-4.355469-4.035156-9.59375-6.078125-15.578126-6.078125-7.273437 0-15.664062 3.136719-24.929687 9.324219-5.136719 3.417969-17.070313 12.808594-17.058594 26.140625 0 7.40625 4.351563 14.804687 10.824219 18.410156 3.046875 1.695313 6.578125 2.589844 10.214844 2.589844 2.835937 0 5.589844-.535156 8.125-1.570313-.613282 5.648438 2.332031 11.683594 7.425781 14.324219 1.855469.960938 4 1.46875 6.199219 1.46875 4.914062 0 9.53125-2.410156 12.050781-6.28125 3.21875-4.941406 2.691406-11.886719-.882813-16.496093 2.589844-1.304688 6.664063-4.796876 7.847657-6.074219 3.023437-3.28125 5.007812-7.242188 5.738281-11.4375 1.992188-11.269531-5.394531-20.074219-9.976562-24.320313zm0 0"/><path d="m321.484375 101.597656c-1.171875-.089844-2.488281-.132812-3.808594-.132812-8.078125 0-19.097656 1.78125-25.71875 10.277344-4.550781 5.851562-5.660156 14.367187-2.761719 21.1875 2.496094 5.875 7.730469 10.359374 13.839844 12.066406-3.949218 4.078125-5.332031 10.652344-2.933594 15.863281 2.226563 4.855469 7.476563 8.121094 13.0625 8.117187 1.488282 0 2.9375-.238281 4.285157-.703124 5.574219-1.917969 9.429687-7.71875 9.441406-13.558594.605469.125 1.945313.332031 4.671875.332031 1.574219 0 3.890625-.078125 5.25-.300781 4.382812-.726563 8.378906-2.628906 11.566406-5.503906 8.480469-7.675782 8.0625-19.160157 7.058594-25.328126-2.71875-16.589843-19.964844-21.292968-33.953125-22.316406zm0 0"/></g><path d="m425.949219 147.277344-1.601563-2.710938.015625-.015625-.304687-.46875-.480469-.816406-.035156.019531-1.382813-2.128906c-3.984375-6.128906-8.304687-11.941406-12.839844-17.277344-6.78125-7.988281-14.3125-15.417968-22.378906-22.082031-8.039062-6.636719-16.792968-12.648437-26.023437-17.875-9.671875-5.476563-19.988281-10.113281-30.667969-13.777344-20.808594-7.140625-42.40625-10.761719-64.203125-10.761719-.695313 0-1.398437 0-2.09375.011719-.53125.003907-1.058594.023438-1.585937.039063l-.953126.03125-1.90625.046875v-.066407l-2.023437.113282-.976563.023437v.03125l-2.253906.128907c-31.101562 1.746093-62.320312 10.324218-90.277344 24.800781-28.121093 14.5625-51.878906 34.703125-68.707031 58.242187l-.175781.242188-.109375-.125-1.957031 3.015625-1.660156 2.320312.125.042969-.160157.246094c-1.105469 1.707031-2.109375 3.296875-3.078125 4.878906-7.09375 11.75-12.90625 24.449219-17.277344 37.746094-11.1875 34.054687-12.175781 72.484375-2.785156 108.21875 3.433594 13.082031 8.183594 25.636718 14.117188 37.316406l.914062 1.796875-.058594.03125.757813 1.347656.652344 1.289063.054687-.027344 1.074219 1.921875c10.316406 18.417969 23.53125 34.265625 39.285156 47.101563 28.25 23.007812 65.703125 37.363281 105.453125 40.417968 5.148438.398438 10.472656.601563 15.820313.601563.667969 0 1.335937-.019531 2.003906-.023438l-.125.21875 6.351563-.328125 5.734374-.125-.125-.191406c25.042969-1.617188 49.355469-7.53125 72.316407-17.628906 32.6875-14.375 60.648437-36.550782 80.824219-64.085938.210937-.28125.410156-.5625.609374-.84375l.300782-.421875 1.4375-1.980469.03125.015626.523437-.78125 1.210938-1.667969-.074219-.042969.984375-1.476562c5.828125-8.75 10.933594-17.949219 15.175781-27.34375 14.101563-31.234376 19.445313-65.457032 15.457032-98.980469-2.917969-24.449219-10.640626-47.394531-22.949219-68.203125zm-26.160157 118.953125c2.101563 3.660156 2.042969 8.375-.144531 11.738281-1.980469 3.042969-5.613281 4.933594-9.488281 4.933594-1.726562 0-3.410156-.398438-4.859375-1.148438-3.28125-1.699218-5.589844-5.324218-5.882813-9.234375l-.453124-6.003906-5.816407 1.542969c-1.546875.414062-3.15625.621094-4.773437.621094-3.109375 0-6.140625-.769532-8.765625-2.226563-2.75-1.527344-5.082031-3.828125-6.75-6.660156-1.660157-2.816407-2.539063-5.972657-2.539063-9.128907 0-11.886718 10.996094-20.5 15.726563-23.652343 8.761719-5.84375 16.617187-8.808594 23.355469-8.808594 5.144531 0 9.671874 1.773437 13.453124 5.269531 7.136719 6.605469 10.355469 14.277344 9.0625 21.601563-.644531 3.652343-2.375 7.082031-4.996093 9.925781-.507813.546875-2.53125 2.375-4.417969 3.765625l-.089844.0625c-.3125.230469-.683594.503906-1.09375.78125l-3.832031 2.601563zm-76.800781-60.007813.753907 3.171875c.5625 2.351563.929687 4.800781 1.09375 7.269531.539062 8.109376-.96875 16.734376-4.035157 23.082032-1.71875 3.570312-3.558593 5.976562-5.796875 7.574218-1.59375 1.140626-3.425781 1.742188-5.296875 1.742188-1.003906 0-1.988281-.179688-2.914062-.535156-2.445313-.941406-4.117188-2.957032-4.710938-5.679688-.574219-2.640625-.203125-5.484375.167969-8.285156.074219-.605469.179688-1.703125.316406-3.171875 0 0 .230469-2.554687.296875-3.285156l.140625-1.277344.929688-8.039063.007812-.050781c2.65625-19.742187 6.375-23.957031 8.351563-24.710937.269531-.105469.535156-.152344.808593-.152344 1.121094 0 2.332032.898438 3.148438 1.65625 2.199219 2.039062 4.039062 4.683594 5.464844 7.859375zm-110.640625 18.351563-.96875 2.675781-1.546875 2.421875c-4.941406 7.734375-13.910156 12.730469-22.847656 12.730469-.6875 0-1.328125-.023438-1.960937-.082032-10.441407-.894531-19.601563-8.761718-21.773438-18.707031-1.34375-6.140625-.023438-13.265625 3.621094-19.550781l1.457031-2.515625 2.109375-2.542969c6.519531-7.871094 13.710938-12.03125 20.796875-12.03125 3.644531 0 7.300781 1.097656 10.867187 3.265625 5.777344 3.511719 9.820313 9.625 11.378907 17.226563 1.1875 5.753906.785156 11.828125-1.132813 17.109375zm-66.738281-1.230469c1.464844 3.414062 1.90625 7.234375 1.277344 11.035156-.125.730469-.816407 3.375-1.648438 5.632813-.140625.382812-.304687.832031-.507812 1.320312l-1.757813 4.273438 4.128906 2.089843c3.757813 1.898438 6.296876 5.871094 6.3125 9.875.023438 5.433594-4.519531 10.492188-9.933593 11.050782-.339844.035156-.6875.050781-1.035157.050781-3.355468 0-6.78125-1.738281-8.9375-4.539063l-3.671874-4.769531-4.015626 4.480469c-3.164062 3.535156-7.613281 5.753906-12.203124 6.089844-.417969.03125-.835938.046875-1.253907.046875-6.0625 0-11.875-3.117188-15.171875-8.144531-6.515625-9.914063-2.0625-23.160157.15625-28.394532 6.605469-15.566406 15.136719-23.464844 25.355469-23.464844 1.132813 0 2.296875.101563 3.464844.296876 9.597656 1.609374 16.503906 6.253906 19.441406 13.070312zm154.003906 69.097656c1.503907-2.382812 3.863281-4.238281 6.015625-5.921875.167969-.117187.324219-.238281.476563-.367187l2.710937-2.316406.171875.109374 2.796875-2.117187c2.90625-2.199219 5.28125-3.96875 7.464844-5.5625.90625-.660156 1.902344-1.488281 2.867188-2.292969 2.867187-2.386718 6.117187-5.097656 9.007812-5.433594.320312-.039062.628906-.058593.917969-.058593 1.425781 0 2.359375.441406 2.941406 1.386719 2.320313 3.777343-1.175781 13.667968-3.277344 16.835937-.296875.449219-.648437.9375-1.109375 1.539063l-1.816406 2.371093-2.429688 2.171875c-3.207031 2.875-7.160156 5.4375-12.074218 7.84375-3.1875 1.550782-5.886719 2.589844-8.769532 2.613282-3 0-5.722656-1.453126-6.773437-3.617188-.964844-1.984375-.621094-4.804688.878906-7.183594zm60.839844-134.226562c6.773437-8.660156 14.300781-13.238282 21.765625-13.238282 3.644531 0 7.304688 1.101563 10.875 3.269532 2.746094 1.667968 5.105469 3.921875 7.007812 6.699218l1.640626 2.398438 1.117187 2.765625c.6875 1.707031 1.226563 3.507813 1.609375 5.363281 1.503906 7.277344.476562 14.867188-2.816406 20.828125-4.667969 8.441407-14.183594 14.113281-23.675782 14.113281-.691406 0-1.347656-.027343-1.960937-.082031-7.445313-.644531-14.625-5.046875-18.746094-11.492187l-1.675781-2.625-.804688-2.574219c-.246093-.792969-.421874-1.429687-.546874-2.015625-1.660157-7.574219.664062-16.324219 6.210937-23.410156zm-66.132813-44.621094c6.1875-7.945312 17.335938-9.132812 23.429688-9.132812 1.1875 0 2.363281.042968 3.511719.128906 18.78125 1.375 29.285156 8.039062 31.222656 19.808594 1.5625 9.605468-.609375 17.636718-6.121094 22.617187-2.746093 2.484375-6.21875 4.128906-10.058593 4.769531-.558594.09375-2.652344.261719-4.839844.261719-.324219 0-.648438-.003906-.992188-.011719-.394531-.011718-.871094-.027344-1.398437-.0625l-4.636719-.304687-.644531 4.601562c-.582031 4.175781-3.519531 7.859375-7.300781 9.164063-1.078126.371094-2.210938.558594-3.363282.558594-4.40625 0-8.542968-2.566407-10.304687-6.394532-1.542969-3.351562-1.140625-7.621094 1.03125-10.882812l3.339843-5.007813-5.535156-2.363281c-4.371094-1.863281-7.90625-5.359375-9.703125-9.589844-.929687-2.183594-1.398437-4.53125-1.398437-6.980468 0-4.089844 1.335937-8.0625 3.761718-11.179688zm-55.804687 41.789062c5.433594-6.945312 11.492187-11.347656 17.523437-12.738281l2.773438-.636719 2.753906.191407c3.21875.226562 6.441406 1.308593 9.582032 3.214843 5.769531 3.511719 9.8125 9.628907 11.382812 17.230469 1.5 7.273438.472656 14.867188-2.820312 20.828125-4.082032 7.386719-11.875 12.703125-20.34375 13.875l-2.851563.398438-2.9375-.316406c-10.207031-1.09375-19.152344-8.929688-21.277344-18.640626-1.664062-7.554687.660157-16.304687 6.214844-23.40625zm-62.582031-47.863281c8.753906-5.84375 16.609375-8.804687 23.351562-8.804687 5.148438 0 9.675782 1.769531 13.453125 5.265625 7.132813 6.605469 10.351563 14.28125 9.0625 21.601562-.644531 3.652344-2.371093 7.085938-4.996093 9.925781-.507813.546876-2.53125 2.378907-4.433594 3.769532l-.222656.164062c-.277344.203125-.59375.4375-.945313.679688l-3.828125 2.605468 2.304688 4.015626c2.101562 3.660156 2.042968 8.375-.144532 11.730468-1.984375 3.046875-5.621094 4.941406-9.488281 4.941406-1.734375 0-3.417969-.398437-4.871094-1.152343-3.273437-1.695313-5.582031-5.320313-5.875-9.234375l-.449219-6-5.816406 1.542968c-1.550781.410157-3.15625.617188-4.777344.617188-3.113281 0-6.144531-.769531-8.765624-2.226562-5.640626-3.128907-9.285157-9.328126-9.285157-15.792969-.007812-11.871094 10.992188-20.492188 15.726563-23.648438zm-50.695313 51.519531c1.292969-2.707031 2.09375-5.777343 2.886719-8.800781.976562-3.765625 1.898438-7.324219 3.734375-10.109375 1.0625-1.609375 2.003906-2.328125 2.46875-2.328125.042969 0 .085937.003907.136719.011719.714844.113281 2.199218 1.328125 4.113281 8.214844 1.894531 6.832031 2.074219 14.011718.519531 20.78125-.539062 2.386718-1.324218 4.792968-2.339844 7.152344l-1.195312 2.792968-1.765625 2.839844c-2.914063 4.695312-6.730469 8.828125-11.039063 11.953125-3.585937 2.601563-6.78125 3.917969-9.777343 4.015625h-.304688c-3.527343 0-6.644531-1.933594-7.585937-4.703125-.730469-2.164063-.195313-4.855469 1.484375-7.40625 1.21875-1.867187 2.847656-3.445313 4.636719-5.175781l.078124-.074219c.425782-.417969.84375-.828125 1.253907-1.238281 2.5-2.488282 4.820312-5.21875 6.890625-8.113282l1.125-1.574218.140625.105468.773437-1.382812.832032-1.164062-.128907-.097657 1.285157-2.296875c.671874-1.203125 1.253906-2.3125 1.777343-3.402344zm22.03125 177.464844c-4.667969 8.445313-14.179687 14.117188-23.671875 14.117188-.617187 0-1.273437-.027344-1.964844-.089844-8.925781-.765625-17.214843-6.820312-20.628906-15.070312l-1.109375-2.691407-.367187-2.941406c-.886719-7.15625 1.5-14.957031 6.546875-21.40625 6.773437-8.660156 14.304687-13.238281 21.773437-13.238281 3.640625 0 7.296875 1.097656 10.855469 3.257812 2.0625 1.261719 3.914063 2.851563 5.5 4.734375l1.90625 2.261719 1.332031 2.613281c1.199219 2.351563 2.089844 4.917969 2.648438 7.621094 1.5 7.285156.472656 14.878906-2.820313 20.832031zm60.421875 41.945313c-.339844.035156-.683594.054687-1.027344.054687-3.367187 0-6.800781-1.742187-8.957031-4.542968l-3.671875-4.765626-4.015625 4.480469c-3.160156 3.53125-7.605469 5.753907-12.1875 6.089844-.421875.03125-.847656.046875-1.265625.046875-2.949218 0-5.921875-.757812-8.59375-2.195312-2.683594-1.441407-4.960937-3.503907-6.578125-5.953126-6.523437-9.921874-2.058593-23.164062.164063-28.398437 6.605468-15.5625 15.136718-23.457031 25.355468-23.457031 1.132813 0 2.300782.101562 3.464844.292968 9.589844 1.609376 16.492188 6.253907 19.433594 13.070313 1.464844 3.414063 1.902344 7.238281 1.273438 11.035156-.125.730469-.816407 3.378907-1.636719 5.601563l-.054688.152344c-.132812.351562-.285156.765624-.464843 1.203124l-1.753907 4.273438 4.121094 2.085938c3.761719 1.902343 6.300781 5.871093 6.316406 9.875.023438 5.4375-4.519531 10.496093-9.921875 11.050781zm58.085938 18.238281c-2.878906 4.121094-6.265625 6.9375-9.796875 8.144531l-2.441407.832031-2.535156-.214843c-5.839844-.488281-11.363281-4.878907-13.429687-10.679688-2.332031-6.53125.003906-16.53125 5.550781-23.777343 2.136719-2.789063 4.519531-4.894532 7.074219-6.257813l2.542969-1.355469 2.675781-.320312c.519531-.0625 1.035156-.09375 1.539062-.09375.332031 0 .667969.011718 1.03125.042968 4.980469.386719 8.5625 2.808594 10.636719 7.191407 3.773438 7.980469 1.570312 20.144531-2.847656 26.488281zm3.832031-80.769531c-3.574219 6.472656-10.136719 11.453125-17.554687 13.316406l-3.097657.777344h-2.671875c-.121094 0-.25.003906-.347656.011719-.691406 0-1.332031-.027344-1.960938-.082032-5.035156-.433594-10.011718-2.566406-14.003906-6.007812-3.964844-3.417969-6.726562-7.929688-7.773437-12.703125-1.652344-7.558594.667969-16.304688 6.214843-23.398438 6.371094-8.144531 13.460938-12.707031 20.511719-13.203125l2.597657-.183594 2.640624.582032c2.320313.507812 4.636719 1.457031 6.886719 2.828125 5.777344 3.507812 9.820313 9.625 11.386719 17.222656 1.496094 7.28125.464844 14.875-2.828125 20.839844zm73.921875 46.316406c-2.746094 2.484375-6.21875 4.132813-10.015625 4.761719-.570313.089844-2.664063.269531-4.914063.269531 0 0-.628906 0-.847656-.007813l-.503906-.015624c-.304688-.011719-.636719-.023438-.992188-.046876l-4.632812-.308593-.648438 4.597656c-.59375 4.171875-3.53125 7.855469-7.351562 9.171875-1.027344.363281-2.148438.546875-3.328125.546875-4.40625 0-8.542969-2.5625-10.296875-6.375-1.542969-3.363281-1.140625-7.644531 1.027344-10.90625l3.335937-5.011719-5.539062-2.355468c-4.371094-1.863282-7.902344-5.355469-9.695313-9.578126-.925781-2.191406-1.394531-4.542968-1.394531-6.984374 0-4.089844 1.339844-8.0625 3.765625-11.191407 6.175781-7.941406 17.339844-9.125 23.445312-9.125 1.175782 0 2.347657.042969 3.484376.125 18.796874 1.378907 29.300781 8.046875 31.222656 19.820313 1.574218 9.597656-.597656 17.625-6.121094 22.613281zm0 0" fill="#f9d889"/><path d="m454.179688 88.359375c-8.761719-10.332031-18.492188-19.929687-28.921876-28.53125-10.429687-8.613281-21.746093-16.390625-33.640624-23.105469-12.535157-7.097656-25.875-13.089844-39.636719-17.820312-26.878907-9.222656-54.796875-13.898438-82.984375-13.898438-.898438 0-1.796875 0-2.691406.007813-44.394532.46875-89.082032 11.710937-129.238282 32.511719-41.988281 21.75-75.832031 52.53125-97.867187 89.011718-9.171875 15.167969-16.6875 31.578125-22.34375 48.777344-14.457031 44.011719-15.734375 93.691406-3.605469 139.890625 12.570312 47.863281 37.960938 88.433594 73.417969 117.316406 36.503906 29.742188 84.914062 48.300781 136.304687 52.257813 6.847656.527344 13.8125.792968 20.710938.792968 37.886718 0 76.300781-8.085937 111.097656-23.390624 42.257812-18.578126 78.398438-47.246094 104.519531-82.898438 10.230469-13.953125 19-28.949219 26.0625-44.582031 18.230469-40.390625 25.132813-84.632813 19.96875-127.9375-5.265625-44.238281-22.957031-85.183594-51.152343-118.402344zm-20.742188 226.109375c-5.445312 12.070312-12.226562 23.675781-20.15625 34.488281-20.214844 27.585938-48.179688 49.761719-80.867188 64.128907-26.925781 11.839843-56.648437 18.097656-85.957031 18.097656-5.324219 0-10.710937-.207032-16.007812-.617188-39.753907-3.050781-77.207031-17.40625-105.453125-40.421875-27.445313-22.351562-47.085938-53.742187-56.804688-90.773437-9.386718-35.738282-8.398437-74.171875 2.785156-108.21875 4.351563-13.257813 10.164063-25.957032 17.277344-37.742188 17.058594-28.226562 43.242188-52.039062 75.722656-68.867187 31.066407-16.089844 65.644532-24.789063 99.992188-25.152344.683594-.003906 1.367188-.007813 2.054688-.007813 21.824218 0 43.433593 3.621094 64.230468 10.761719 5.285156 1.808594 10.554688 3.894531 15.675782 6.199219 5.144531 2.308594 10.183593 4.859375 14.984374 7.582031 18.503907 10.464844 34.792969 23.90625 48.410157 39.953125 21.808593 25.691406 35.492187 57.371094 39.574219 91.605469 3.996093 33.507813-1.351563 67.734375-15.460938 98.984375zm0 0" fill="#f7b36f"/><path d="m510.300781 206.171875c-5.390625-45.222656-23.476562-87.078125-52.304687-121.046875-17.988282-21.199219-39.492188-38.949219-63.917969-52.761719-12.828125-7.257812-26.449219-13.375-40.472656-18.1875-28.296875-9.710937-57.671875-14.472656-87.355469-14.160156-45.171875.476563-90.636719 11.910156-131.484375 33.070313-42.792969 22.160156-77.320313 53.582031-99.847656 90.863281-9.375 15.511719-17.050781 32.269531-22.8125 49.804687-14.753907 44.917969-16.066407 95.601563-3.691407 142.714844 12.84375 48.902344 38.8125 90.371094 75.097657 119.929688 37.292969 30.382812 86.6875 49.332031 139.082031 53.363281 7.015625.539062 14.050781.804687 21.082031.804687 38.6875 0 77.40625-8.109375 113.113281-23.804687 43.050782-18.925781 79.894532-48.152344 106.546876-84.519531 10.445312-14.253907 19.390624-29.558594 26.578124-45.484376 18.609376-41.210937 25.660157-86.367187 20.386719-130.585937zm-29.5 126.46875c-6.90625 15.296875-15.496093 29.996094-25.53125 43.6875-25.617187 34.953125-61.0625 63.058594-102.5 81.273437-40.707031 17.894532-85.453125 25.566407-129.410156 22.1875-50.378906-3.875-97.800781-22.039062-133.53125-51.144531-34.632813-28.210937-59.441406-67.878906-71.742187-114.71875-11.890626-45.269531-10.640626-93.941406 3.519531-137.050781 5.527343-16.820312 12.882812-32.886719 21.871093-47.753906 21.574219-35.703125 54.730469-65.84375 95.886719-87.160156 39.464844-20.441407 83.378907-31.488282 126.992188-31.949219.878906-.007813 1.757812-.011719 2.640625-.011719 27.625 0 54.984375 4.582031 81.363281 13.632812 13.445313 4.617188 26.5 10.480469 38.796875 17.433594 23.394531 13.230469 43.992188 30.230469 61.214844 50.527344 27.550781 32.46875 44.839844 72.496094 50 115.757812 5.054687 42.417969-1.710938 85.738282-19.570313 125.289063zm0 0"/><path d="m413.132812 120.640625c-14.003906-16.503906-30.746093-30.324219-49.753906-41.074219-9.988281-5.644531-20.585937-10.410156-31.503906-14.15625-22.015625-7.554687-44.894531-11.257812-67.964844-11.015625-35.121094.371094-70.476562 9.261719-102.234375 25.710938-33.292969 17.242187-60.15625 41.695312-77.695312 70.71875-7.300781 12.078125-13.273438 25.121093-17.753907 38.761719-11.484374 34.957031-12.503906 74.398437-2.875 111.054687 9.996094 38.066406 30.21875 70.355469 58.480469 93.378906 29.027344 23.648438 67.464844 38.398438 108.230469 41.53125 5.457031.421875 10.921875.628907 16.394531.628907 30.082031 0 60.199219-6.304688 87.972657-18.515626 33.484374-14.71875 62.148437-37.457031 82.886718-65.757812 8.125-11.085938 15.082032-22.992188 20.679688-35.390625 14.480468-32.070313 19.964844-67.214844 15.863281-101.628906-4.195313-35.203125-18.277344-67.796875-40.726563-94.246094zm-54.675781-32.367187c17.980469 10.167968 33.8125 23.234374 47.054688 38.839843 3.253906 3.832031 6.300781 7.835938 9.179687 11.953125l-14.238281 8.632813c-6.882813-5.636719-15.851563-8.203125-24.605469-6.90625-7.386718 1.097656-14.078125 5.679687-18.84375 12.898437-5.320312 8.054688-7.582031 18.476563-6.03125 27.179688-.378906.300781-.710937.652344-.988281 1.046875l-24.351563 14.089843c-2.027343-2.960937-4.867187-5.078124-8.003906-5.90625-3.234375-.851562-6.496094-.324218-9.445312 1.523438-7.023438 4.402344-9.15625 14.96875-10.179688 20.046875-.171875.859375-.316406 1.722656-.457031 2.585937-.449219.132813-.890625.300782-1.308594.566407-11.863281 7.5625-24.257812 14.449219-36.867187 20.925781l3.078125-34.460938c5.570312-.945312 11.007812-3.488281 15.429687-7.398437 6.398438-5.65625 10.71875-13.917969 12.167969-23.261719 1.386719-8.953125-1.625-17.921875-8.265625-24.605468-3.917969-3.945313-8.753906-6.742188-13.949219-8.21875.113281-.382813.199219-.78125.214844-1.195313l3.066406-72.03125c19.453125.546875 38.847657 3.882813 57.515625 10.289063 10.335938 3.550781 20.371094 8.058593 29.828125 13.40625zm42.804688 84.691406c-1.089844 7.042968-4.253907 13.1875-8.90625 17.300781-4.890625 4.324219-11.488281 6.210937-17.226563 4.921875-6.460937-1.449219-12.097656-7.355469-14.019531-14.695312-1.671875-6.367188.035156-14.921876 4.238281-21.289063 3.179688-4.816406 7.429688-7.84375 11.96875-8.515625 6.6875-.992188 13.59375 1.34375 18.472656 6.253906 4.375 4.402344 6.371094 10.242188 5.472657 16.023438zm-83.472657 64.410156c-1.359374 3.289062-2.765624 5.40625-4.417968 6.667969-1.480469 1.128906-3.441406 1.5-4.566406.871093-.824219-.464843-1.550782-1.597656-1.941407-3.027343-.5-1.839844-.5-4.097657-.5-6.28125v-.003907c0-7.269531 0-14.792968 1.441407-21.953124.632812-3.128907 2.304687-11.429688 5.683593-13.546876.476563-.300781.847657-.390624 1.148438-.390624.164062 0 .308593.027343.441406.0625.945313.25 2 1.230468 2.6875 2.503906 5.691406 10.523437 4.109375 25.207031.023437 35.097656zm-62.429687 162.578125c-3.945313 2.039063-9.703125.5625-12.832031-3.285156 0 0 0 0 0-.003907-2.441406-3.003906-3.511719-7.289062-2.933594-11.757812.863281-6.695312 6.96875-16.25 13.539062-18.53125.679688-.234375 1.347657-.351562 2.015626-.351562 1.214843 0 2.417968.390624 3.640624 1.179687 2.972657 1.917969 5.371094 5.9375 5.703126 9.5625.265624 2.902344-.140626 6.144531-1.3125 10.515625-1.820313 6.75-4.375 10.894531-7.820313 12.671875zm-11.207031-74.648437c-6.460938-1.453126-12.09375-7.359376-14.019532-14.699219-1.667968-6.363281.035157-14.921875 4.238282-21.289063 3.183594-4.816406 7.433594-7.839844 11.96875-8.515625 6.683594-.992187 13.59375 1.347657 18.472656 6.253907 4.375 4.40625 6.371094 10.246093 5.476562 16.023437-1.09375 7.042969-4.257812 13.191406-8.910156 17.304687-4.890625 4.324219-11.484375 6.210938-17.226562 4.921876zm30.539062-172.226563c4.375 4.402344 6.371094 10.242187 5.472656 16.019531-1.089843 7.046875-4.253906 13.191406-8.90625 17.304688-4.890624 4.324218-11.488281 6.210937-17.226562 4.921875-6.460938-1.449219-12.097656-7.355469-14.023438-14.699219-1.667968-6.363281.035157-14.917969 4.242188-21.289062 3.179688-4.816407 7.429688-7.839844 11.96875-8.515626 6.6875-.988281 13.59375 1.347657 18.472656 6.257813zm-108.414062-64.09375c29.355468-15.203125 62.019531-23.746094 94.828125-24.441406l-3.046875 71.644531c-.007813.148438.019531.292969.023437.441406-1.109375.042969-2.222656.136719-3.332031.300782-7.386719 1.09375-14.078125 5.675781-18.84375 12.898437-5.765625 8.730469-7.953125 20.242187-5.570312 29.332031 2.894531 11.035156 11.332031 19.636719 21.503906 21.921875.191406.042969.386718.070313.578125.109375l-3.277344 36.691406c-9.652344-6.183593-19.285156-12.375-28.851563-18.566406-.195312-.125-.398437-.210937-.601562-.308594.132812-.660156.257812-1.328124.363281-2 1.386719-8.953124-1.625-17.921874-8.265625-24.605468-7.109375-7.152344-17.214844-10.554688-27.035156-9.09375-3.433594.507812-6.714844 1.78125-9.726562 3.714844-.328126-.09375-.65625-.15625-.988282-.179688l-27.488281-22.664062c.605469-3.277344.90625-6.613282.835937-9.964844-.003906-.179688-1.242187-18.210938-9.980468-21.214844-1.601563-.546875-5.753906-1.304688-9.703125 3.554688-2.355469 2.898437-3.429688 6.335937-4.378907 9.371093-.300781.960938-.589843 1.871094-.894531 2.703125-5.371093-3.710937-10.511719-7.789062-15.347656-12.167968 16.207031-19.53125 36.503906-35.71875 59.199219-47.476563zm3.738281 134.019531c-1.667969-6.367187.035156-14.921875 4.238281-21.289062 3.179688-4.816406 7.433594-7.84375 11.96875-8.515625 6.683594-.992188 13.59375 1.34375 18.472656 6.253906 4.375 4.402344 6.371094 10.242187 5.472657 16.023437-1.089844 7.042969-4.253907 13.191407-8.90625 17.300782-4.890625 4.324218-11.492188 6.207031-17.226563 4.925781-6.460937-1.453125-12.097656-7.359375-14.019531-14.699219zm-57-43.757812.75-.753906c4.175781-4.222657 7.640625-8.332032 10.589844-12.570313 2.992187-4.296875 5.390625-8.667969 7.128906-12.984375.542969-1.339844.96875-2.707031 1.382813-4.03125.578124-1.855469 1.132812-3.632812 1.890624-4.992188 1.308594 2.855469 2.578126 8.144532 2.628907 10.511719.277343 13.132813-6.175781 26.0625-16.835938 33.742188-3.121093 2.246093-5.785156 3.382812-8.144531 3.472656-2.148438.082031-4.257812-.976563-4.820312-2.414063-.457032-1.167968-.128907-2.941406.859374-4.632812 1.078126-1.84375 2.777344-3.546875 4.570313-5.347656zm-37.289063 13.464844c5.75-17.503907 14.355469-33.75 25.167969-48.359376 5.339844 4.792969 11.023438 9.238282 16.960938 13.265626-.539063.863281-1.105469 1.730468-1.707031 2.589843-2.617188 3.761719-5.722657 7.441407-9.492188 11.253907l-.722656.722656c-2.0625 2.070312-4.398438 4.414062-6.121094 7.367187-2.570312 4.398438-3.132812 9.253907-1.539062 13.324219 2.050781 5.226562 7.707031 8.769531 13.894531 8.769531.207031 0 .410156-.003906.617187-.011719 4.390625-.164062 8.839844-1.917968 13.609375-5.351562 7.605469-5.476562 13.480469-13.101562 17.0625-21.6875l23.847657 19.660156c-.480469.628906-.949219 1.273438-1.394532 1.953125-5.765625 8.730469-7.953125 20.246094-5.570312 29.335938 2.894531 11.03125 11.332031 19.632812 21.503906 21.917969 1.890625.421874 3.828125.628906 5.785156.628906 7.175782 0 14.558594-2.78125 20.253906-7.816406 3.539063-3.128907 6.441407-7.058594 8.574219-11.527344 8.238281 5.328125 16.519531 10.65625 24.824219 15.980468-10.910156 5.25-21.875 10.277344-32.707031 15.246094-22.824219 10.464844-46.398438 21.289063-68.742188 33.796875-6.125-3.542969-13.304687-5.007812-20.351562-3.964843-7.382813 1.097656-14.074219 5.679687-18.84375 12.898437-4.285157 6.492187-6.589844 14.519531-6.511719 21.949219-3.308594 1.492187-6.542969 3.183594-9.648438 5.066406-4.765624-10.113281-8.589843-20.710938-11.453124-31.613281-9.144532-34.816407-8.183594-72.246094 2.703124-105.394531zm63.695313 113.242187c4.375 4.402344 6.371094 10.242187 5.476563 16.019531-1.09375 7.046875-4.257813 13.191406-8.910157 17.304688-4.890625 4.324218-11.484375 6.210937-17.226562 4.921875-6.460938-1.449219-12.09375-7.355469-14.019531-14.699219-1.667969-6.363281.035156-14.917969 4.238281-21.289062 3.183593-4.816407 7.433593-7.839844 11.96875-8.515626 6.691406-.988281 13.59375 1.347657 18.472656 6.257813zm91.40625 119.628906c-38.75-2.980469-75.214844-16.941406-102.679687-39.316406-16.246094-13.234375-29.28125-29.5-39.117188-47.601563 2.242188-1.386718 4.554688-2.664062 6.925781-3.824218 3.492188 9.664062 11.324219 17.03125 20.613281 19.117187 1.890626.421875 3.828126.628907 5.785157.628907 7.175781 0 14.558593-2.78125 20.253906-7.816407 6.398437-5.65625 10.71875-13.917969 12.167969-23.265625 1.273437-8.203125-1.160156-16.410156-6.679688-22.871094 21.003906-11.535156 43.15625-21.71875 64.644532-31.574218 11.609374-5.324219 23.371093-10.722656 35.078124-16.386719l-1.617187 18.082031c-.441406.046875-.886719.089844-1.332031.15625-7.382813 1.09375-14.078125 5.675782-18.84375 12.898438-5.765625 8.730468-7.949219 20.242187-5.566406 29.332031 2.890624 11.03125 11.332031 19.636719 21.503906 21.917969 1.234375.277344 2.492187.453125 3.757812.546875l-.058594 23.125c0 .070312.015626.136719.019532.203125-8.472656 5.171875-14.898438 16.09375-16.007813 24.6875-.929687 7.175781.929688 14.226562 5.09375 19.351562 2.988281 3.675782 7.078125 6.152344 11.429688 7.253906l-.011719 15.925782c-5.128906-.003906-10.253906-.175782-15.359375-.570313zm99.578125-17.070312c-23.484375 10.324219-48.816406 16.222656-74.21875 17.433593l.011719-15.683593c1.289062-.335938 2.546875-.800781 3.746093-1.421875 6.085938-3.136719 10.300782-9.339844 12.890626-18.960938 1.007812-3.746094 2.101562-8.726562 1.617187-14.027344-.617187-6.746093-4.640625-13.4375-10.246094-17.050781-2.679687-1.730469-5.59375-2.644531-8.535156-2.746093l.054687-21.488282c4.445313-1.25 8.695313-3.523437 12.277344-6.691406 6.398438-5.65625 10.71875-13.917969 12.167969-23.265625 1.386719-8.953125-1.625-17.917969-8.265625-24.601563-4.363281-4.390624-9.851562-7.359374-15.714844-8.667968l1.445313-16.152344c14.46875 9.222656 28.964843 18.394531 43.414062 27.46875-1.078125.796875-2.144531 1.617188-3.195312 2.464844-1.96875 1.597656-3.988281 3.414062-5.417969 5.902344-1.941406 3.378906-2.25 7.300781-.820312 10.492187 1.121093 2.5 3.261718 4.542969 6.195312 5.910156 2.503906 1.164063 5.230469 1.742188 8.144531 1.742188 4.75 0 9.988281-1.542969 15.492188-4.605469 3.347656-1.863281 6.367187-3.957031 9.027343-6.234375 27.132813 14.847656 55.355469 28.339844 83.953126 40.128906-20.496094 30.777344-49.972657 55.085938-84.023438 70.054688zm1.367188-127.726563c-3.355469 7.308594-10.109376 12.210938-15.1875 15.035156-3.402344 1.894532-9.820313 4.742188-14.554688 2.539063-.898438-.417969-1.238281-.820313-1.289062-.929687-.054688-.136719-.027344-.742188.363281-1.421876.578125-1.007812 1.636719-1.972656 3.042969-3.113281 0-.003906 0-.003906 0-.003906 3.632812-2.941406 7.519531-5.507813 11.636718-8.222656.875-.578125 1.75-1.15625 2.621094-1.738281 3.480469-2.320313 6.5-4.882813 9.417969-7.363282 1.410156-1.199218 2.871093-2.441406 4.34375-3.617187.34375.523437.707031 1.28125.855469 1.984375.492187 2.339844-.40625 5.019531-1.25 6.851562zm97.109374 31.617188c-2.714843 6.015625-5.757812 11.839844-9.082031 17.480468-.054687-.023437-.101562-.0625-.160156-.085937-27.96875-11.46875-55.574219-24.605469-82.15625-39.046875 1.328125-1.859375 2.460937-3.792969 3.378906-5.792969 2.136719-4.660156 2.792969-9.0625 1.945313-13.085937-.910156-4.3125-4.535156-10.625-10.828125-10.367188-2.910157.121094-5.023438 1.804688-6.035157 2.617188-1.597656 1.277344-3.121093 2.570312-4.597656 3.824218-2.824218 2.398438-5.492187 4.667969-8.484375 6.664063-.863281.570313-1.726562 1.140625-2.589843 1.710937-.082032.054688-.167969.113282-.25.167969-16.109376-10.105469-32.292969-20.347656-48.433594-30.644531 11.847656-6.023438 23.550781-12.402344 34.875-19.367188-.097656 3.144532-.101563 6.214844-.101563 9.128907 0 2.707031 0 5.773437.851563 8.90625 1.109375 4.078125 3.484375 7.316406 6.683594 9.117187 1.882812 1.058594 4.03125 1.574219 6.234374 1.574219 3.207032 0 6.527344-1.09375 9.300782-3.207031 4.097656-3.125 6.296875-7.660156 7.59375-10.800782 3.832031-9.261718 6.304687-23.292968 2.652344-35.976562l24.914062-14.414062c4.074219 7.171874 10.722656 12.429687 18.34375 14.140624 1.886719.425782 3.828125.632813 5.785156.632813 7.175782 0 14.558594-2.78125 20.253906-7.820313 6.398438-5.65625 10.71875-13.917968 12.167969-23.261718 1.039063-6.707032-.390625-13.425782-3.964843-19.179688l13.007812-7.890625c12.710938 20.765625 20.84375 44.335938 23.742188 68.644531 3.890624 32.613282-1.3125 65.921876-15.046876 96.332032zm0 0"/><path d="m341.515625 322.167969c-5.453125-3.667969-11.085937-4.894531-16.535156-6.082031-1.035157-.226563-2.085938-.457032-3.144531-.703126-7.246094-1.703124-13.726563-1.699218-19.816407.011719-6.640625 1.863281-12.128906 5.730469-15.453125 10.886719-2.117187 3.28125-3.472656 7.308594-3.921875 11.644531-.414062 4.03125.011719 7.691407 1.265625 10.882813 2.605469 6.632812 8.535156 10.675781 13.808594 13.359375-.925781 1.660156-1.738281 3.457031-2.289062 5.425781-1.476563 5.296875-.484376 10.621094 2.652343 14.230469 2.574219 2.964843 6.609375 4.671875 10.84375 4.671875.617188 0 1.238281-.035156 1.859375-.109375 3.605469-.429688 7.21875-2.03125 10.730469-4.757813 3.109375-2.414062 5.355469-5.207031 6.613281-8.167968 4.363282-.023438 8.859375-1.46875 12.707032-4.183594 4.335937-3.054688 7.828124-7.539063 10.382812-13.324219 2.015625-4.5625 2.953125-8.933594 2.785156-12.988281-.328125-7.988282-4.996094-15.761719-12.488281-20.796875zm.554687 29.746093c-1.785156 4.046876-4.203124 7.226563-6.996093 9.195313-2.929688 2.0625-6.542969 2.847656-9.433594 2.042969-1.496094-.414063-3.101563-.109375-4.34375.820312-1.238281.933594-1.976563 2.390625-1.996094 3.945313-.019531 1.773437-1.445312 3.894531-3.917969 5.8125-2.058593 1.597656-4.003906 2.515625-5.78125 2.726562-1.597656.191407-3.191406-.289062-3.972656-1.191406-.886718-1.019531-1.113281-3.023437-.566406-4.988281.695312-2.492188 2.414062-5 4.074219-7.425782.84375-1.230468 1.09375-2.773437.683593-4.207031-.414062-1.4375-1.445312-2.609375-2.816406-3.207031-5.945312-2.582031-11.90625-5.5-13.789062-10.289062-.664063-1.6875-.871094-3.773438-.621094-6.199219.285156-2.777344 1.105469-5.285157 2.375-7.25 1.972656-3.058594 5.527344-5.492188 9.753906-6.679688 4.480469-1.257812 9.191406-1.226562 14.828125.097657 1.109375.257812 2.210938.5 3.300781.734374 4.945313 1.082032 9.214844 2.011719 13.085938 4.613282 4.785156 3.214844 7.878906 8.164062 8.074219 12.910156.105469 2.515625-.546875 5.386719-1.941407 8.539062zm0 0"/><path d="m408.632812 222.421875c-8.398437-7.46875-21.261718-10.308594-32.765624-7.238281-6.074219 1.621094-11.753907 4.453125-16.425782 8.183594-8.722656 6.96875-14.320312 17.464843-14.972656 28.085937-.292969 4.78125.492188 8.898437 2.34375 12.238281 2.832031 5.113282 8.398438 8.695313 14.886719 9.582032 3.371093.460937 6.945312.242187 10.839843-.671876 2.117188 5.863282 5.375 11.378907 11.457032 13.917969 1.878906.78125 3.875 1.15625 5.871094 1.15625 5.347656 0 10.683593-2.671875 13.609374-7.265625 2.769532-4.34375 3.070313-9.90625 1.191407-14.597656 6.675781-4.320312 11.394531-11.457031 12.546875-19.429688 1.351562-9.328124-1.695313-17.839843-8.582032-23.960937zm-1.3125 22.527344c-.914062 6.332031-5.574218 12.042969-11.59375 14.214843-1.648437.59375-2.863281 2.007813-3.207031 3.722657-.34375 1.71875.238281 3.492187 1.535157 4.671875 1.9375 1.769531 2.398437 5.261718.988281 7.476562-1.410157 2.210938-4.773438 3.265625-7.191407 2.257813-3.804687-1.589844-5.773437-7.066407-7.199218-12.21875-.371094-1.339844-1.28125-2.464844-2.515625-3.101563-.71875-.375-1.511719-.5625-2.304688-.5625-.566406 0-1.136719.097656-1.683593.292969-4.335938 1.550781-7.964844 2.09375-11.09375 1.664063-3.328126-.453126-6.203126-2.1875-7.496094-4.523438-.914063-1.644531-1.285156-3.925781-1.109375-6.78125.480469-7.84375 4.679687-15.648438 11.234375-20.882812 3.601562-2.875 8.015625-5.066407 12.765625-6.335938 8.210937-2.191406 17.671875-.164062 23.539062 5.050781 3.035157 2.699219 6.425781 7.503907 5.332031 15.054688zm0 0"/><path d="m298.5625 146.066406c-1.960938 4.34375-2.441406 8.789063-1.292969 12.785156 1.503907 5.222657 5.875 9.480469 11.128907 10.847657 1.257812.328125 2.546874.488281 3.839843.488281 4.113281 0 8.230469-1.613281 11.167969-4.523438 2.476562-2.453124 3.890625-5.472656 4.734375-8.347656 5.703125.722656 11.621094-.425781 16.617187-3.34375 6.65625-3.882812 11.390626-10.742187 12.65625-18.34375.5625-3.355468.488282-6.976562-.214843-10.765625-2.769531-14.898437-17.632813-22.699219-29.519531-24.855469-3.933594-.710937-24.113282-3.753906-35.195313 6.382813-6.0625 5.539063-9.035156 13.859375-7.757813 21.703125 1.289063 7.914062 6.707032 14.675781 13.835938 17.972656zm.671875-32.296875c5.488281-5.019531 17.671875-5.550781 26.664063-3.917969 8.753906 1.585938 19.628906 6.945313 21.46875 16.839844.492187 2.636719.554687 5.089844.1875 7.289063-.773438 4.636719-3.777344 8.988281-7.839844 11.355469-4.054688 2.371093-9.320313 2.84375-13.738282 1.234374-1.421874-.515624-3.011718-.359374-4.308593.429688s-2.164063 2.125-2.359375 3.628906c-.507813 3.929688-1.441406 6.449219-2.9375 7.929688-1.378906 1.367187-3.566406 1.953125-5.449219 1.464844-1.878906-.488282-3.503906-2.074219-4.042969-3.9375-.769531-2.683594.453125-6.355469 3.269532-9.820313 1.15625-1.417969 1.441406-3.355469.75-5.046875-.691407-1.691406-2.25-2.871094-4.066407-3.078125-5.90625-.667969-11.277343-5.785156-12.230469-11.648437-.734374-4.488282 1.085938-9.480469 4.632813-12.722657zm0 0"/><path d="m161.691406 149.105469c5.613282 4.136719 13.3125 4.628906 20.214844 3.457031.296875 2.324219.945312 4.460938 1.9375 6.394531 2.90625 5.640625 8.949219 9.3125 15.214844 9.308594.246094 0 .492187-.003906.738281-.015625 6.640625-.308594 12.78125-4.871094 14.933594-11.097656 1.277343-3.691406 1.109375-7.703125-.273438-11.230469 3.410157-1.953125 6.519531-5.15625 9.03125-9.410156 3.660157-6.199219 5.292969-12.558594 4.71875-18.398438-.851562-8.644531-6.601562-16.617187-15.011719-20.808593-6.984374-3.480469-15.449218-4.347657-24.484374-2.5-10.378907 2.121093-20 7.457031-26.394532 14.632812-6.992187 7.847656-10.015625 18.046875-8.082031 27.289062 1.097656 5.246094 3.746094 9.644532 7.457031 12.378907zm8.089844-33.015625c4.992188-5.601563 12.621094-9.789063 20.933594-11.488282 6.726562-1.375 13.125-.789062 18.019531 1.652344 5.273437 2.628906 9.011719 7.667969 9.519531 12.835938.460938 4.6875-1.582031 9.296875-3.375 12.335937-.9375 1.585938-4.289062 6.796875-8.394531 6.683594-2.171875-.046875-4.089844 1.300781-4.808594 3.328125s-.058593 4.289062 1.636719 5.613281c1.914062 1.492188 2.777344 4.492188 1.96875 6.832031-.820312 2.378907-3.378906 4.257813-5.945312 4.378907-2.582032.113281-5.378907-1.511719-6.597657-3.882813-1.21875-2.363281-1.117187-5.417968-.820312-7.566406.242187-1.722656-.433594-3.445312-1.777344-4.550781-.90625-.746094-2.03125-1.136719-3.175781-1.136719-.546875 0-1.101563.089844-1.636719.277344-5.644531 1.957031-13.589844 2.683594-17.703125-.347656-1.726562-1.273438-3.007812-3.539063-3.601562-6.371094-1.269532-6.0625.9375-13.1875 5.757812-18.59375zm0 0"/><path d="m93.808594 269.480469c5.082031 4.800781 12.503906 7.003906 19.382812 5.746093 4.453125-.8125 8.613282-3.070312 11.816406-6.265624 2.65625 2.660156 5.738282 4.878906 9.132813 6.550781 1.84375.910156 4.601563 2.078125 7.796875 2.078125.230469 0 .464844-.007813.699219-.019532 3.730469-.203124 7.34375-2.042968 10.167969-5.175781 4.175781-4.632812 5.816406-11.269531 4.28125-17.320312-1.035157-4.089844-3.476563-7.726563-6.769532-10.296875.867188-2.054688 1.414063-4.171875 1.84375-6.140625 1.046875-4.828125 2.007813-11.167969.144532-17.398438-2.414063-8.078125-9.625-14.789062-18.371094-17.097656-8.167969-2.15625-16.53125-1.148437-24.195313 2.90625-14.671875 7.769531-25.027343 26.265625-24.082031 43.027344.445312 7.96875 3.34375 14.859375 8.152344 19.40625zm20.609375-53.59375c5.480469-2.902344 11.191406-3.605469 16.964843-2.078125 5.449219 1.4375 9.902344 5.480468 11.34375 10.296875 1.207032 4.042969.453126 8.753906-.339843 12.410156-.554688 2.550781-1.265625 5.136719-2.707031 6.742187-1.117188 1.242188-1.539063 2.957032-1.125 4.574219.410156 1.617188 1.601562 2.921875 3.171874 3.480469 2.730469.96875 4.957032 3.410156 5.667969 6.21875.714844 2.808594-.078125 6.015625-2.019531 8.167969-1.011719 1.125-2.238281 1.828125-3.277344 1.886719-.847656.050781-2.015625-.296876-3.53125-1.042969-3.894531-1.921875-7.214844-4.855469-9.601562-8.480469-.929688-1.414062-2.5-2.253906-4.175782-2.253906-.109374 0-.21875.003906-.328124.011718-1.792969.117188-3.386719 1.1875-4.171876 2.808594-1.6875 3.476563-5.09375 6.066406-8.894531 6.761719-3.804687.695313-7.90625-.523437-10.714843-3.175781-3.976563-3.757813-4.863282-9.570313-5.039063-12.703125-.726563-12.894531 7.523437-27.664063 18.777344-33.625zm0 0"/><path d="m214.394531 353.609375c4.640625-9.011719 4.109375-20.644531-1.933593-28.921875-5.707032-7.816406-16.8125-12.382812-26.996094-11.105469-10.484375 1.320313-19.882813 10.410157-24.75 17.796875-2.835938 4.304688-4.875 9.082032-6.058594 14.195313-1.132812 4.894531-1.425781 9.863281-.871094 14.773437.816406 7.191406 3.414063 13.371094 7.511719 17.875 4.375 4.804688 10.554687 7.433594 16.871094 7.433594 2.3125 0 4.640625-.351562 6.902343-1.074219 3.886719-1.238281 7.410157-3.53125 10.210938-6.539062 2.160156 2.550781 5.082031 4.796875 9.007812 5.375 2.90625.425781 6.050782-.203125 8.855469-1.773438 6.0625-3.386719 9.4375-10.53125 8.203125-17.371093-.789062-4.371094-3.386718-8.195313-6.953125-10.664063zm-6.128906 19.308594c-.878906.492187-1.796875.707031-2.523437.605469-2.28125-.335938-4.351563-3.898438-5.902344-6.96875-.878906-1.742188-2.703125-2.808594-4.648438-2.742188-1.953125.074219-3.683594 1.277344-4.433594 3.085938-1.582031 3.820312-4.925781 6.945312-8.722656 8.15625-4.753906 1.515624-9.992187.117187-13.339844-3.5625-3.378906-3.714844-4.570312-8.722657-4.972656-12.269532-.425781-3.777344-.199218-7.609375.675782-11.394531.917968-3.949219 2.484374-7.636719 4.671874-10.949219 3.976563-6.042968 11.316407-12.578125 17.640626-13.371094.75-.09375 1.503906-.140624 2.265624-.140624 5.996094 0 12.214844 2.839843 15.410157 7.21875 4.601562 6.304687 4.046875 16.101562-1.238281 21.84375-1.253907 1.359374-1.652344 3.300781-1.039063 5.042968.609375 1.742188 2.132813 3.007813 3.960937 3.289063 2.582032.394531 4.972657 2.71875 5.4375 5.292969.464844 2.570312-.960937 5.585937-3.242187 6.863281zm0 0"/></svg>