<svg height="511pt" viewBox="1 -22 511.99998 511" width="511pt" xmlns="http://www.w3.org/2000/svg"><path d="m480.925781 298.496094c-.699219 8.507812-1.871093 16.875-3.492187 25.078125-10.84375 55.003906-41.667969 102.808593-84.59375 135.585937-7.324219 5.601563-16.289063 8.609375-25.507813 8.609375h-222.675781c-9.214844 0-18.183594-3.007812-25.507812-8.609375-49.328126-37.667968-82.671876-95.191406-88.074219-160.664062l291.371093-46.9375zm0 0" fill="#51a2af"/><path d="m477.433594 323.574219c-10.84375 55.003906-41.667969 102.808593-84.59375 135.585937-7.324219 5.601563-16.289063 8.609375-25.507813 8.609375h-105.648437c-9.214844 0-18.179688-3.007812-25.503906-8.609375-34.5-26.34375-61.175782-62.390625-75.949219-104.082031-5.449219-15.378906 6.101562-31.503906 22.417969-31.503906zm0 0" fill="#67c1b0"/><path d="m512 222.636719v47.230469c0 15.808593-12.820312 28.628906-28.628906 28.628906h-454.742188c-15.820312 0-28.628906-12.820313-28.628906-28.628906v-47.230469c0-15.808594 12.808594-28.628907 28.628906-28.628907h454.742188c15.808594 0 28.628906 12.820313 28.628906 28.628907zm0 0" fill="#c4becc"/><path d="m418.273438 199.230469 27.898437-27.898438c15.097656-15.097656 15.097656-39.570312 0-54.667969-15.097656-15.097656-39.582031-15.097656-54.679687 0l-82.558594 82.566407" fill="#ff9216"/><g fill="#e6e6e6"><path d="m512 222.636719v47.230469c0 15.808593-12.820312 28.628906-28.628906 28.628906h-345.035156c-15.8125 0-28.632813-12.820313-28.632813-28.628906v-47.230469c0-15.808594 12.820313-28.628907 28.632813-28.628907h345.035156c15.808594 0 28.628906 12.820313 28.628906 28.628907zm0 0"/><path d="m168.308594 170.496094c-4.328125 0-7.839844-3.507813-7.839844-7.835938 0-15.164062 5.0625-23.027344 9.53125-29.964844 3.929688-6.101562 7.03125-10.921874 7.03125-21.480468 0-10.554688-3.101562-15.375-7.03125-21.476563-4.46875-6.9375-9.53125-14.800781-9.53125-29.964843 0-15.164063 5.0625-23.027344 9.53125-29.960938 3.929688-6.101562 7.03125-10.921875 7.03125-21.476562 0-4.328126 3.511719-7.835938 7.839844-7.835938s7.835937 3.507812 7.835937 7.835938c0 15.164062-5.0625 23.027343-9.53125 29.960937-3.929687 6.101563-7.03125 10.921875-7.03125 21.476563 0 10.554687 3.101563 15.375 7.03125 21.476562 4.46875 6.9375 9.53125 14.800781 9.53125 29.964844 0 15.167968-5.0625 23.03125-9.53125 29.964844-3.929687 6.101562-7.03125 10.925781-7.03125 21.480468 0 4.328125-3.507812 7.835938-7.835937 7.835938zm0 0"/><path d="m252.117188 170.496094c-4.328126 0-7.835938-3.507813-7.835938-7.835938 0-15.164062 5.0625-23.027344 9.53125-29.964844 3.925781-6.101562 7.03125-10.921874 7.03125-21.480468 0-10.554688-3.105469-15.375-7.03125-21.476563-4.46875-6.9375-9.53125-14.800781-9.53125-29.964843 0-15.164063 5.0625-23.027344 9.53125-29.960938 3.925781-6.101562 7.03125-10.921875 7.03125-21.476562 0-4.328126 3.507812-7.835938 7.835938-7.835938 4.332031 0 7.839843 3.507812 7.839843 7.835938 0 15.164062-5.0625 23.027343-9.53125 29.960937-3.929687 6.101563-7.03125 10.921875-7.03125 21.476563 0 10.554687 3.101563 15.375 7.03125 21.476562 4.46875 6.9375 9.53125 14.800781 9.53125 29.964844 0 15.167968-5.0625 23.03125-9.53125 29.964844-3.929687 6.101562-7.03125 10.925781-7.03125 21.480468-.003906 4.328125-3.511719 7.835938-7.839843 7.835938zm0 0"/></g></svg>