<svg height="512pt" viewBox="0 -26 512.00002 512" width="512pt" xmlns="http://www.w3.org/2000/svg"><path d="m476.617188 180.15625h-44.804688l14.089844-14.089844c8.519531-8.523437 13.214844-19.851562 13.214844-31.898437 0-12.050781-4.695313-23.378907-13.214844-31.902344-8.523438-8.519531-19.851563-13.214844-31.90625-13.214844-12.050782 0-23.382813 4.695313-31.902344 13.214844l-77.878906 77.890625h-268.828125c-19.511719 0-35.386719 15.871094-35.386719 35.382812v45.828126c0 17.96875 13.46875 32.84375 30.839844 35.082031 6.882812 61.03125 38.605468 117.089843 87.765625 154.632812 8.367187 6.390625 18.796875 9.914063 29.363281 9.914063h162.785156c4.199219 0 7.601563-3.40625 7.601563-7.605469s-3.402344-7.605469-7.601563-7.605469h-162.785156c-7.25 0-14.402344-2.410156-20.132812-6.789062-45.328126-34.617188-74.753907-86.097656-81.636719-142.246094h28.324219c4.199218 0 7.601562-3.40625 7.601562-7.605469s-3.402344-7.601562-7.601562-7.601562h-39.136719c-11.128907 0-20.179688-9.054688-20.179688-20.179688v-45.824219c0-11.125 9.050781-20.175781 20.179688-20.175781h441.230469c11.125 0 20.175781 9.050781 20.175781 20.175781v45.824219c0 11.125-9.050781 20.179688-20.175781 20.179688h-376.75c-4.199219 0-7.601563 3.402343-7.601563 7.601562s3.402344 7.605469 7.601563 7.605469h365.941406c-6.882813 56.144531-36.3125 107.625-81.644532 142.246094-5.734374 4.378906-12.886718 6.789062-20.132812 6.789062h-27.929688c-4.203124 0-7.605468 3.40625-7.605468 7.605469s3.402344 7.605469 7.605468 7.605469h27.929688c10.566406 0 20.992188-3.523438 29.359375-9.914063 49.167969-37.546875 80.894531-93.609375 87.773437-154.636719 17.371094-2.238281 30.835938-17.113281 30.835938-35.082031v-45.824219c0-19.511718-15.871094-35.382812-35.382812-35.382812zm-83.769532-67.136719c5.648438-5.648437 13.160156-8.757812 21.152344-8.757812 7.988281 0 15.5 3.109375 21.148438 8.757812 5.648437 5.652344 8.761718 13.160157 8.761718 21.148438 0 7.984375-3.113281 15.496093-8.761718 21.144531l-24.839844 24.84375h-84.585938zm0 0"/><path d="m163.3125 157.34375c0 4.199219 3.402344 7.601562 7.601562 7.601562 4.199219 0 7.605469-3.402343 7.605469-7.601562 0-10.242188 3.011719-14.921875 6.824219-20.839844 4.332031-6.734375 9.246094-14.359375 9.246094-29.074218 0-14.71875-4.914063-22.347657-9.246094-29.078126-3.8125-5.917968-6.824219-10.597656-6.824219-20.839843 0-10.238281 3.011719-14.914063 6.824219-20.835938 4.332031-6.730469 9.246094-14.359375 9.246094-29.070312 0-4.199219-3.40625-7.605469-7.605469-7.605469s-7.601563 3.40625-7.601563 7.605469c0 10.238281-3.011718 14.914062-6.824218 20.835937-4.335938 6.730469-9.246094 14.359375-9.246094 29.070313 0 14.714843 4.910156 22.34375 9.246094 29.074219 3.8125 5.921874 6.824218 10.601562 6.824218 20.84375 0 10.238281-3.011718 14.917968-6.824218 20.839843-4.335938 6.730469-9.246094 14.359375-9.246094 29.074219zm0 0"/><path d="m244.632812 157.34375c0 4.199219 3.40625 7.601562 7.605469 7.601562s7.601563-3.402343 7.601563-7.601562c0-10.242188 3.011718-14.921875 6.824218-20.839844 4.335938-6.734375 9.246094-14.359375 9.246094-29.074218 0-14.71875-4.910156-22.347657-9.246094-29.078126-3.8125-5.917968-6.824218-10.597656-6.824218-20.839843 0-10.238281 3.011718-14.914063 6.824218-20.835938 4.335938-6.730469 9.246094-14.359375 9.246094-29.070312 0-4.199219-3.402344-7.605469-7.605468-7.605469-4.199219 0-7.601563 3.40625-7.601563 7.605469 0 10.238281-3.011719 14.914062-6.824219 20.835937-4.335937 6.730469-9.246094 14.359375-9.246094 29.070313 0 14.714843 4.910157 22.34375 9.246094 29.074219 3.8125 5.921874 6.824219 10.601562 6.824219 20.84375 0 10.238281-3.011719 14.917968-6.824219 20.839843-4.335937 6.730469-9.246094 14.359375-9.246094 29.074219zm0 0"/></svg>