<?xml version="1.0" encoding="iso-8859-1"?>
<!-- Generator: Adobe Illustrator 19.0.0, SVG Export Plug-In . SVG Version: 6.00 Build 0)  -->
<svg version="1.1" id="Capa_1" xmlns="http://www.w3.org/2000/svg" xmlns:xlink="http://www.w3.org/1999/xlink" x="0px" y="0px"
	 viewBox="0 0 511.955 511.955" style="enable-background:new 0 0 511.955 511.955;" xml:space="preserve">
<path style="stroke:#000;stroke-width: 5px; fill: #fff;" d="M480,223.977H10.667C4.776,223.977,0,228.753,0,234.644c0,135.494,109.839,245.333,245.333,245.333
	s245.333-109.839,245.333-245.333C490.667,228.753,485.891,223.977,480,223.977z"/>
<g>
	<ellipse style="fill:#FAFAFA;" cx="245.333" cy="234.644" rx="234.667" ry="64"/>
	<path style="fill:#FAFAFA;" d="M480,234.644c0,11.733-11.733,22.827-32,32.427c-40.533,18.773-116.053,31.573-202.667,31.573
		S83.2,285.844,42.667,267.071c-20.267-9.6-32-20.693-32-32.427c0-35.413,104.96-64,234.667-64S480,199.231,480,234.644z"/>
</g>
<path style="fill:#c5c5c5;" d="M448,266.644v0.427c-40.533,18.773-116.053,31.573-202.667,31.573S83.2,285.844,42.667,267.071
	v-0.427c0-42.027,101.973-64,202.667-64S448,224.617,448,266.644z"/>
<path style="fill:#000;" d="M245.333,309.311C123.413,309.311,0,283.711,0,234.644s123.413-74.667,245.333-74.667
	s245.333,25.6,245.333,74.667S367.253,309.311,245.333,309.311z M245.333,181.311c-136.747,0-224,31.573-224,53.333
	s87.253,53.333,224,53.333s224-31.573,224-53.333S382.08,181.311,245.333,181.311z"/>
<path style="fill:#CFD8DC;" d="M471.787,31.977c-11.387-0.012-22.243,4.811-29.867,13.269L258.688,248.831
	c-3.947,4.373-3.601,11.118,0.772,15.065c1.964,1.773,4.518,2.752,7.164,2.748h42.667c2.61,0.001,5.13-0.956,7.083-2.688
	l182.123-161.899c16.554-14.718,18.042-40.068,3.325-56.622C494.196,36.859,483.262,31.96,471.787,31.977z"/>
<path style="fill:#a4a4a4;" d="M341.333,266.644h-96c-5.891,0-10.667-4.776-10.667-10.667s4.776-10.667,10.667-10.667h96
	c5.891,0,10.667,4.776,10.667,10.667S347.224,266.644,341.333,266.644z"/>
</svg>
